<svg width="61" height="41" viewBox="0 0 61 41" fill="none" xmlns="http://www.w3.org/2000/svg">
<rect x="0.110352" y="0.0498047" width="60.689" height="40" rx="5.5944" fill="#175AEA"/>
<g clip-path="url(#clip0_721_1173)">
<path fill-rule="evenodd" clip-rule="evenodd" d="M5.23633 8.84641V14.9007H7.20542V7.16814H12.9621L12.9753 5.20068H9.05317L5.23633 8.84641Z" fill="white"/>
<path fill-rule="evenodd" clip-rule="evenodd" d="M5.23145 9.07015C5.23145 6.95573 6.92816 5.23734 9.03511 5.20068H12.977V7.18903H9.03511C8.02673 7.22518 7.22035 8.05355 7.22035 9.07015C7.22035 9.58678 7.42861 10.0548 7.76578 10.3949C8.10674 10.7382 8.57903 10.9507 9.10092 10.9507C10.1175 10.9507 10.9459 10.1443 10.982 9.13596H12.9704C12.9338 11.2429 11.2153 12.9396 9.10092 12.9396C9.07894 12.9396 9.057 12.9394 9.03511 12.9391V12.9396C8.00213 12.9217 7.06776 12.4995 6.3836 11.8245C5.6871 11.1373 5.24974 10.1877 5.23145 9.13596H5.232C5.23163 9.11407 5.23145 9.09213 5.23145 9.07015Z" fill="white"/>
</g>
<defs>
<clipPath id="clip0_721_1173">
<rect width="7.99186" height="10" fill="white" transform="translate(5.11035 5.05029)"/>
</clipPath>
</defs>
</svg>
