<svg width="29" height="24" viewBox="0 0 29 24" fill="none" xmlns="http://www.w3.org/2000/svg">
<path d="M14.54 23.8312C13.2475 23.8312 12.0124 23.6288 10.8346 23.2242C9.66294 22.8256 8.58486 22.2639 7.60039 21.5391C6.61593 20.8144 5.76131 19.9597 5.03655 18.9753C4.31179 17.9908 3.74709 16.9097 3.34243 15.732C2.94381 14.5542 2.7445 13.3222 2.7445 12.0357C2.7445 10.7432 2.94381 9.51113 3.34243 8.33943C3.74105 7.1617 4.30273 6.0806 5.02749 5.09613C5.75829 4.11167 6.61291 3.25705 7.59133 2.53229C8.5758 1.80149 9.65388 1.23679 10.8256 0.838168C12.0033 0.433511 13.2384 0.231182 14.5309 0.231182C15.8234 0.231182 17.0585 0.433511 18.2362 0.838168C19.414 1.23679 20.4951 1.80149 21.4795 2.53229C22.464 3.25705 23.3186 4.11167 24.0434 5.09613C24.7742 6.0806 25.3389 7.1617 25.7375 8.33943C26.1422 9.51113 26.3445 10.7432 26.3445 12.0357C26.3445 13.3222 26.1422 14.5542 25.7375 15.732C25.3389 16.9097 24.7742 17.9908 24.0434 18.9753C23.3186 19.9597 22.464 20.8144 21.4795 21.5391C20.4951 22.2639 19.414 22.8256 18.2362 23.2242C17.0645 23.6288 15.8325 23.8312 14.54 23.8312ZM14.54 22.1461C15.6633 22.1461 16.7293 21.974 17.738 21.6297C18.7526 21.2915 19.6797 20.8144 20.5192 20.1983C21.3648 19.5823 22.0956 18.8545 22.7116 18.015C23.3277 17.1694 23.8048 16.2423 24.143 15.2337C24.4813 14.219 24.6504 13.153 24.6504 12.0357C24.6504 10.9123 24.4813 9.84633 24.143 8.8377C23.8048 7.82304 23.3247 6.89595 22.7026 6.05644C22.0865 5.21088 21.3557 4.48009 20.5102 3.86404C19.6707 3.24799 18.7436 2.77086 17.7289 2.43264C16.7203 2.09442 15.6543 1.92531 14.5309 1.92531C13.4136 1.92531 12.3476 2.09442 11.3329 2.43264C10.3243 2.77086 9.40021 3.24799 8.5607 3.86404C7.72118 4.48009 6.9934 5.21088 6.37736 6.05644C5.76131 6.89595 5.28418 7.82304 4.94596 8.8377C4.60774 9.84633 4.43863 10.9123 4.43863 12.0357C4.43863 13.153 4.60774 14.219 4.94596 15.2337C5.28418 16.2423 5.76131 17.1694 6.37736 18.015C6.99944 18.8545 7.73024 19.5823 8.56976 20.1983C9.40927 20.8144 10.3333 21.2915 11.342 21.6297C12.3566 21.974 13.4226 22.1461 14.54 22.1461ZM9.11333 13.6574C8.66639 13.6574 8.28287 13.5003 7.96277 13.1863C7.64267 12.8662 7.48262 12.4796 7.48262 12.0266C7.48262 11.5737 7.64267 11.1902 7.96277 10.8761C8.28287 10.556 8.66639 10.3959 9.11333 10.3959C9.56026 10.3959 9.94378 10.556 10.2639 10.8761C10.584 11.1902 10.744 11.5737 10.744 12.0266C10.744 12.4796 10.584 12.8662 10.2639 13.1863C9.94982 13.5003 9.5663 13.6574 9.11333 13.6574ZM14.5309 13.6574C14.0779 13.6574 13.6914 13.5003 13.3713 13.1863C13.0572 12.8662 12.9002 12.4796 12.9002 12.0266C12.9002 11.5737 13.0572 11.1902 13.3713 10.8761C13.6914 10.556 14.0779 10.3959 14.5309 10.3959C14.9778 10.3959 15.3614 10.556 15.6815 10.8761C16.0016 11.1902 16.1616 11.5737 16.1616 12.0266C16.1616 12.4796 16.0016 12.8662 15.6815 13.1863C15.3614 13.5003 14.9778 13.6574 14.5309 13.6574ZM19.9485 13.6574C19.4955 13.6574 19.109 13.5003 18.7889 13.1863C18.4688 12.8662 18.3087 12.4796 18.3087 12.0266C18.3087 11.5737 18.4688 11.1902 18.7889 10.8761C19.109 10.556 19.4955 10.3959 19.9485 10.3959C20.3954 10.3959 20.7789 10.556 21.099 10.8761C21.4191 11.1902 21.5792 11.5737 21.5792 12.0266C21.5792 12.4796 21.4191 12.8662 21.099 13.1863C20.7789 13.5003 20.3954 13.6574 19.9485 13.6574Z" fill="white"/>
</svg>
