<svg width="12" height="20" viewBox="0 0 12 20" fill="none" xmlns="http://www.w3.org/2000/svg">
<path d="M0.644456 10.276C0.65016 10.0764 0.690089 9.89387 0.764243 9.72845C0.838396 9.56303 0.952479 9.40331 1.10649 9.2493L9.67979 0.949797C9.92507 0.70452 10.2274 0.581881 10.5867 0.581881C10.8263 0.581881 11.0431 0.638922 11.237 0.753005C11.4367 0.867087 11.5935 1.0211 11.7076 1.21504C11.8274 1.40898 11.8873 1.62574 11.8873 1.86531C11.8873 2.21897 11.7532 2.52984 11.4851 2.79793L3.73324 10.2675L11.4851 17.7456C11.7532 18.0194 11.8873 18.3303 11.8873 18.6782C11.8873 18.9235 11.8274 19.1431 11.7076 19.337C11.5935 19.531 11.4367 19.685 11.237 19.7991C11.0431 19.9189 10.8263 19.9788 10.5867 19.9788C10.2274 19.9788 9.92507 19.8533 9.67979 19.6023L1.10649 11.3028C0.946775 11.1488 0.82984 10.9891 0.755686 10.8236C0.681533 10.6525 0.644456 10.47 0.644456 10.276Z" fill="white"/>
</svg>
