<svg width="16" height="16" viewBox="0 0 16 16" fill="none" xmlns="http://www.w3.org/2000/svg">
<g clip-path="url(#clip0_712_1791)">
<path d="M8.12836 15.7016C7.06586 15.7016 6.06977 15.4999 5.14008 15.0965C4.2104 14.698 3.39138 14.1472 2.68305 13.4437C1.97964 12.7404 1.42872 11.9238 1.03027 10.9941C0.631836 10.0644 0.432617 9.06826 0.432617 8.00581C0.432617 6.9433 0.631836 5.94721 1.03027 5.01752C1.42872 4.08784 1.97964 3.27128 2.68305 2.56787C3.39138 1.85954 4.2104 1.30616 5.14008 0.907711C6.06977 0.509277 7.06586 0.310059 8.12836 0.310059C9.19089 0.310059 10.187 0.509277 11.1167 0.907711C12.0464 1.30616 12.8629 1.85954 13.5663 2.56787C14.2697 3.27128 14.8207 4.08784 15.2191 5.01752C15.6224 5.94721 15.8241 6.9433 15.8241 8.00581C15.8241 9.06826 15.6224 10.0644 15.2191 10.9941C14.8207 11.9238 14.2697 12.7404 13.5663 13.4437C12.8629 14.1472 12.0464 14.698 11.1167 15.0965C10.187 15.4999 9.19089 15.7016 8.12836 15.7016ZM8.12836 14.0119C8.95969 14.0119 9.73685 13.857 10.46 13.547C11.188 13.2372 11.8249 12.8068 12.371 12.2558C12.9219 11.7 13.3523 11.0605 13.6622 10.3374C13.977 9.60942 14.1344 8.83219 14.1344 8.00581C14.1344 7.17449 13.977 6.3973 13.6622 5.67421C13.3523 4.9462 12.9219 4.30673 12.371 3.75581C11.8249 3.20488 11.188 2.77447 10.46 2.46457C9.73685 2.15468 8.95969 1.99973 8.12836 1.99973C7.29705 1.99973 6.5174 2.15468 5.78939 2.46457C5.0663 2.77447 4.42929 3.20488 3.87836 3.75581C3.32743 4.30673 2.89703 4.9462 2.58713 5.67421C2.27724 6.3973 2.12229 7.17449 2.12229 8.00581C2.12229 8.83219 2.27724 9.60942 2.58713 10.3374C2.89703 11.0605 3.32743 11.7 3.87836 12.2558C4.42929 12.8068 5.0663 13.2372 5.78939 13.547C6.5174 13.857 7.29705 14.0119 8.12836 14.0119ZM8.12836 9.15688C7.66598 9.15688 7.42495 8.92568 7.40528 8.46327L7.30198 5.09869C7.29214 4.8675 7.36346 4.67811 7.51595 4.53055C7.66844 4.37806 7.87012 4.30181 8.12098 4.30181C8.36694 4.30181 8.56616 4.37806 8.71864 4.53055C8.87605 4.67811 8.94983 4.86995 8.93996 5.10607L8.82932 8.45589C8.80964 8.92319 8.576 9.15688 8.12836 9.15688ZM8.12836 11.636C7.87257 11.636 7.65368 11.5573 7.47168 11.3999C7.2946 11.2425 7.20606 11.0433 7.20606 10.8022C7.20606 10.5563 7.2946 10.3547 7.47168 10.1972C7.65368 10.0349 7.87257 9.95368 8.12836 9.95368C8.38416 9.95368 8.59813 10.0324 8.77029 10.1899C8.94734 10.3473 9.03596 10.5514 9.03596 10.8022C9.03596 11.0482 8.94734 11.2499 8.77029 11.4073C8.5932 11.5597 8.37923 11.636 8.12836 11.636Z" fill="#D12A2C"/>
</g>
<defs>
<clipPath id="clip0_712_1791">
<rect width="16" height="16" fill="white"/>
</clipPath>
</defs>
</svg>
