<svg width="124" height="124" viewBox="0 0 124 124" fill="none" xmlns="http://www.w3.org/2000/svg">
<path fill-rule="evenodd" clip-rule="evenodd" d="M26 0C11.6406 0 0 11.6406 0 26V98C0 112.359 11.6406 124 26 124H98C112.359 124 124 112.359 124 98V26C124 11.6406 112.359 0 98 0H26ZM27.376 51.4313C27.352 51.9656 27.3398 52.503 27.3398 53.0432C27.3398 53.2439 27.3415 53.4442 27.3449 53.6441H27.3398C27.3463 54.0132 27.3583 54.3809 27.376 54.7471V106.282H45.3555V83.845C50.3091 86.6367 56.0037 88.2695 62.0708 88.375V88.3699C62.2706 88.3733 62.4709 88.375 62.6716 88.375C81.9783 88.375 97.6693 72.8825 98.0034 53.6441H79.8481C79.5181 62.8515 71.9543 70.2145 62.6716 70.2145C57.9063 70.2145 53.5939 68.274 50.4806 65.1397C47.4019 62.034 45.5004 57.7605 45.5004 53.0432C45.5004 43.7607 52.8633 36.1969 62.0708 35.8668H98.0635V17.7114H62.0708C43.5228 18.0341 28.4567 32.6301 27.3992 50.979L27.376 51.0012V51.4313Z" fill="white"/>
</svg>
