<svg width="399" height="288" viewBox="0 0 399 288" fill="none" xmlns="http://www.w3.org/2000/svg">
<path opacity="0.3" d="M8.83316 43.7005L13.1899 49.4186L20.3667 49.8333L14.6486 54.1901L14.2339 61.3668L9.8771 55.6488L2.70035 55.234L8.41842 50.8773L8.83316 43.7005Z" fill="white"/>
<path opacity="0.2" d="M91.5761 12.878L92.938 23.013L101.518 28.5763L91.3834 29.9382L85.8201 38.5185L84.4581 28.3836L75.8778 22.8203L86.0128 21.4583L91.5761 12.878Z" fill="white"/>
<path opacity="0.4" d="M395.909 201.528L388.265 206.724L387.233 215.908L382.037 208.264L372.852 207.232L380.497 202.037L381.528 192.852L386.724 200.496L395.909 201.528Z" fill="white"/>
<path opacity="0.7" d="M346.006 261.557L344 266.358L346.34 271.006L341.539 269L336.891 271.34L338.896 266.539L336.557 261.891L341.358 263.897L346.006 261.557Z" fill="white"/>
<path opacity="0.7" d="M357.006 136.557L355 141.358L357.34 146.006L352.539 144L347.891 146.34L349.896 141.539L347.557 136.891L352.358 138.897L357.006 136.557Z" fill="white"/>
<path opacity="0.6" d="M36.2283 130.028L36.3053 139.271L43.3716 145.228L34.1293 145.305L28.1716 152.372L28.0946 143.129L21.0283 137.172L30.2706 137.095L36.2283 130.028Z" fill="white"/>
<rect x="55.549" y="69.346" width="268.808" height="175.176" rx="24.14" transform="rotate(-5.93539 55.549 69.346)" fill="url(#paint0_linear_1290_2240)"/>
<rect x="55.549" y="69.346" width="268.808" height="175.176" rx="24.14" transform="rotate(-5.93539 55.549 69.346)" stroke="black"/>
<mask id="mask0_1290_2240" style="mask-type:luminance" maskUnits="userSpaceOnUse" x="253" y="179" width="60" height="22">
<path d="M283.795 186.982C284.021 189.468 286.468 190.614 288.289 191.257C290.16 191.917 290.815 192.397 290.886 193.154C290.993 194.312 289.638 194.969 288.321 195.126C286.025 195.4 284.622 194.899 283.508 194.525L283.073 198.389C284.189 198.757 286.207 198.969 288.257 198.775C293.064 198.275 295.969 195.636 295.613 192.049C295.159 187.497 288.655 187.919 288.488 185.881C288.439 185.263 288.975 184.542 290.281 184.237C290.927 184.084 292.728 183.832 294.874 184.538L295.299 180.8C294.156 180.523 292.7 180.296 290.936 180.48C286.411 180.95 283.472 183.624 283.795 186.982ZM302.983 179.545C302.105 179.637 301.417 180.213 301.167 181.013L295.96 197.702L300.764 197.203L301.453 194.53L307.323 193.919L308.145 196.436L312.379 195.995L306.892 179.139L302.983 179.545ZM304.139 184.133L306.198 190.463L302.402 190.857L304.139 184.133ZM277.411 182.204L275.417 199.838L279.995 199.362L281.987 181.728L277.411 182.204ZM270.639 182.908L267.095 195.138L264.13 185.361C263.788 184.27 262.828 183.72 261.836 183.823L254.047 184.633L253.991 185.145C255.625 185.317 257.498 185.673 258.659 186.142C259.37 186.428 259.595 186.72 259.904 187.544L264.985 200.923L269.822 200.42L275.446 182.408L270.639 182.908Z" fill="white"/>
</mask>
<g mask="url(#mask0_1290_2240)">
<path d="M248.198 187.074L301.931 161.243L318.121 193.519L264.389 219.35" fill="white"/>
</g>
<rect x="79.5967" y="88.8643" width="40.32" height="40.32" rx="10.9964" transform="rotate(-5.93539 79.5967 88.8643)" fill="white"/>
<g clip-path="url(#clip0_1290_2240)">
<path fill-rule="evenodd" clip-rule="evenodd" d="M90.2814 104.426L92.1402 122.305L97.9551 121.701L95.5811 98.8657L112.581 97.0983L112.016 91.2842L100.434 92.4883L90.2814 104.426Z" fill="#0D0F11"/>
<path fill-rule="evenodd" clip-rule="evenodd" d="M90.3384 105.088C89.6892 98.844 94.1722 93.2485 100.383 92.4933L112.024 91.2831L112.634 97.1549L100.993 98.3651C98.0267 98.7815 95.8997 101.475 96.2118 104.477C96.3704 106.003 97.1291 107.321 98.2293 108.222C99.3415 109.131 100.801 109.614 102.343 109.454C105.345 109.141 107.544 106.506 107.341 103.517L113.212 102.906C113.751 109.14 109.197 114.678 102.953 115.327C102.888 115.334 102.824 115.34 102.759 115.346L102.759 115.347C99.703 115.611 96.8141 114.651 94.5865 112.868C92.3186 111.053 90.7355 108.383 90.3586 105.282L90.3602 105.282C90.3524 105.218 90.3451 105.153 90.3384 105.088Z" fill="#0D0F11"/>
</g>
<g opacity="0.34" filter="url(#filter0_f_1290_2240)">
<ellipse cx="195" cy="242" rx="148" ry="13" fill="url(#paint1_linear_1290_2240)"/>
</g>
<defs>
<filter id="filter0_f_1290_2240" x="17" y="199" width="356" height="86" filterUnits="userSpaceOnUse" color-interpolation-filters="sRGB">
<feFlood flood-opacity="0" result="BackgroundImageFix"/>
<feBlend mode="normal" in="SourceGraphic" in2="BackgroundImageFix" result="shape"/>
<feGaussianBlur stdDeviation="15" result="effect1_foregroundBlur_1290_2240"/>
</filter>
<linearGradient id="paint0_linear_1290_2240" x1="189.904" y1="68.9004" x2="329.887" y2="239.587" gradientUnits="userSpaceOnUse">
<stop stop-color="#111113"/>
<stop offset="1" stop-color="#171719"/>
</linearGradient>
<linearGradient id="paint1_linear_1290_2240" x1="47" y1="242" x2="343" y2="242" gradientUnits="userSpaceOnUse">
<stop stop-color="#010101"/>
<stop offset="1" stop-color="#010101" stop-opacity="0.3"/>
</linearGradient>
<clipPath id="clip0_1290_2240">
<rect width="23.728" height="29.6902" fill="white" transform="translate(88.75 93.2559) rotate(-5.93539)"/>
</clipPath>
</defs>
</svg>
