<svg width="120" height="120" viewBox="0 0 120 120" fill="none" xmlns="http://www.w3.org/2000/svg">
<path d="M64.0775 20.1543C65.7222 22.7997 106.246 91.3282 108.289 94.6419C110.332 97.9556 107.668 101.811 104.154 101.932C100.639 102.053 19.6283 101.987 15.7282 101.932C11.8282 101.877 9.9563 97.2984 11.5929 94.6419C13.2295 91.9853 53.8909 23.2449 55.8068 20.1543C57.7226 17.0636 62.4327 17.5088 64.0775 20.1543Z" stroke="#8F0000" stroke-width="6"/>
<path d="M64.0775 20.1543C65.7222 22.7997 106.246 91.3282 108.289 94.6419C110.332 97.9556 107.668 101.811 104.154 101.932C100.639 102.053 19.6283 101.987 15.7282 101.932C11.8282 101.877 9.9563 97.2984 11.5929 94.6419C13.2295 91.9853 53.8909 23.2449 55.8068 20.1543C57.7226 17.0636 62.4327 17.5088 64.0775 20.1543Z" fill="url(#paint0_linear_989_2798)"/>
<path d="M63.6614 27.9491C65.1383 30.3426 101.527 92.3446 103.362 95.3427C105.196 98.3408 102.804 101.829 99.6481 101.938C96.4925 102.048 23.7479 101.988 20.2458 101.938C16.7437 101.889 15.0628 97.7462 16.5324 95.3427C18.002 92.9391 54.5143 30.7454 56.2346 27.9491C57.955 25.1528 62.1845 25.5556 63.6614 27.9491Z" fill="url(#paint1_linear_989_2798)"/>
<path d="M54.3836 73.8817L53.2838 40H66.1979L65.0981 73.8817H54.3836ZM59.7409 91.6562C56.0156 91.6562 53 88.8535 53 85.2702C53 81.7224 56.0156 78.9196 59.7409 78.9196C63.4306 78.9196 66.4462 81.7224 66.4462 85.2702C66.4462 88.8535 63.4306 91.6562 59.7409 91.6562Z" fill="white"/>
<defs>
<linearGradient id="paint0_linear_989_2798" x1="59.9419" y1="25.2373" x2="59.9419" y2="73.6663" gradientUnits="userSpaceOnUse">
<stop stop-color="#FF5D00"/>
<stop offset="0.5" stop-color="#FC390B"/>
<stop offset="1" stop-color="#F91616"/>
</linearGradient>
<linearGradient id="paint1_linear_989_2798" x1="59.9478" y1="52.3557" x2="59.9478" y2="92.2427" gradientUnits="userSpaceOnUse">
<stop stop-color="white" stop-opacity="0.36"/>
<stop offset="0.5" stop-color="white" stop-opacity="0.18"/>
<stop offset="1" stop-color="white" stop-opacity="0"/>
</linearGradient>
</defs>
</svg>
