<svg width="22" height="16" viewBox="0 0 22 16" fill="none" xmlns="http://www.w3.org/2000/svg">
<path fill-rule="evenodd" clip-rule="evenodd" d="M2.15901 2.15901C2.43577 1.88225 2.82435 1.7018 3.55812 1.60315C4.31347 1.50159 5.31459 1.5 6.75 1.5H14.75C16.1854 1.5 17.1865 1.50159 17.9419 1.60315C18.6757 1.7018 19.0642 1.88225 19.341 2.15901C19.6178 2.43577 19.7982 2.82435 19.8969 3.55812C19.9984 4.31347 20 5.31458 20 6.75V8.75C20 10.1854 19.9984 11.1865 19.8969 11.9419C19.7982 12.6757 19.6178 13.0642 19.341 13.341C19.0642 13.6178 18.6757 13.7982 17.9419 13.8969C17.1865 13.9984 16.1854 14 14.75 14H6.75C5.31459 14 4.31347 13.9984 3.55812 13.8969C2.82435 13.7982 2.43577 13.6178 2.15901 13.341C1.88225 13.0642 1.7018 12.6757 1.60315 11.9419C1.50159 11.1865 1.5 10.1854 1.5 8.75V6.75C1.5 5.31459 1.50159 4.31347 1.60315 3.55812C1.7018 2.82435 1.88225 2.43577 2.15901 2.15901ZM7 7.75C7 5.67893 8.67893 4 10.75 4C12.8211 4 14.5 5.67893 14.5 7.75C14.5 9.82107 12.8211 11.5 10.75 11.5C8.67893 11.5 7 9.82107 7 7.75ZM4.25 5C4.66422 5 5 5.33579 5 5.75V9.75C5 10.1642 4.66422 10.5 4.25 10.5C3.83579 10.5 3.5 10.1642 3.5 9.75V5.75C3.5 5.33579 3.83579 5 4.25 5ZM17.25 5C17.6642 5 18 5.33579 18 5.75V9.75C18 10.1642 17.6642 10.5 17.25 10.5C16.8358 10.5 16.5 10.1642 16.5 9.75V5.75C16.5 5.33579 16.8358 5 17.25 5Z" fill="white"/>
<path d="M8.5 7.75C8.5 6.50736 9.50736 5.5 10.75 5.5C11.9926 5.5 13 6.50736 13 7.75C13 8.99264 11.9926 10 10.75 10C9.50736 10 8.5 8.99264 8.5 7.75Z" fill="white"/>
<path fill-rule="evenodd" clip-rule="evenodd" d="M14.8049 5.4884e-07H6.69513C5.32754 -2.00148e-05 4.22522 -3.65824e-05 3.35825 0.116524C2.45814 0.237541 1.70027 0.496435 1.09835 1.09835C0.496434 1.70027 0.23754 2.45814 0.116524 3.35825C-3.67612e-05 4.22522 -2.0134e-05 5.32754 5.4884e-07 6.69513L6.08445e-07 8.80487C-1.99552e-05 10.1725 -3.65227e-05 11.2748 0.116524 12.1418C0.237541 13.0419 0.496435 13.7997 1.09835 14.4017C1.70027 15.0036 2.45814 15.2625 3.35825 15.3835C4.22522 15.5 5.32754 15.5 6.69513 15.5H14.8049C16.1725 15.5 17.2748 15.5 18.1418 15.3835C19.0419 15.2625 19.7997 15.0036 20.4017 14.4017C21.0036 13.7997 21.2625 13.0419 21.3835 12.1418C21.5 11.2748 21.5 10.1725 21.5 8.80487V6.69513C21.5 5.32754 21.5 4.22522 21.3835 3.35825C21.2625 2.45814 21.0036 1.70027 20.4017 1.09835C19.7997 0.496434 19.0419 0.23754 18.1418 0.116524C17.2748 -3.67612e-05 16.1725 -2.0134e-05 14.8049 5.4884e-07ZM2.15901 2.15901C2.43577 1.88225 2.82435 1.7018 3.55812 1.60315C4.31347 1.50159 5.31459 1.5 6.75 1.5H14.75C16.1854 1.5 17.1865 1.50159 17.9419 1.60315C18.6757 1.7018 19.0642 1.88225 19.341 2.15901C19.6178 2.43577 19.7982 2.82435 19.8969 3.55812C19.9984 4.31347 20 5.31458 20 6.75V8.75C20 10.1854 19.9984 11.1865 19.8969 11.9419C19.7982 12.6757 19.6178 13.0642 19.341 13.341C19.0642 13.6178 18.6757 13.7982 17.9419 13.8969C17.1865 13.9984 16.1854 14 14.75 14H6.75C5.31459 14 4.31347 13.9984 3.55812 13.8969C2.82435 13.7982 2.43577 13.6178 2.15901 13.341C1.88225 13.0642 1.7018 12.6757 1.60315 11.9419C1.50159 11.1865 1.5 10.1854 1.5 8.75V6.75C1.5 5.31459 1.50159 4.31347 1.60315 3.55812C1.7018 2.82435 1.88225 2.43577 2.15901 2.15901Z" fill="white"/>
</svg>
