<svg width="15" height="13" viewBox="0 0 15 13" fill="none" xmlns="http://www.w3.org/2000/svg">
<path d="M13.9656 6.69727C13.9656 6.92628 13.8829 7.12136 13.7175 7.2825L9.53813 11.4492C9.37273 11.6146 9.18826 11.6973 8.9847 11.6973C8.75145 11.6973 8.56273 11.6252 8.41854 11.481C8.27435 11.3368 8.20226 11.1587 8.20226 10.9466C8.20226 10.8279 8.22346 10.7219 8.26587 10.6285C8.31252 10.5353 8.37189 10.4526 8.44398 10.3805L9.86889 8.94281L12.1272 6.88175L12.4198 7.35884L10.1043 7.49243H2.59793C2.3562 7.49243 2.16111 7.42034 2.01268 7.27615C1.86425 7.12771 1.79004 6.93475 1.79004 6.69727C1.79004 6.46402 1.86425 6.2753 2.01268 6.13111C2.16111 5.98268 2.3562 5.90846 2.59793 5.90846H10.1043L12.4198 6.03569L12.1272 6.52551L9.86889 4.45172L8.44398 3.01406C8.37189 2.94197 8.31252 2.85927 8.26587 2.76597C8.22346 2.66842 8.20226 2.5624 8.20226 2.4479C8.20226 2.23586 8.27435 2.05774 8.41854 1.91355C8.56273 1.76936 8.75145 1.69727 8.9847 1.69727C9.08224 1.69727 9.17766 1.71847 9.27096 1.76088C9.36849 1.79905 9.46179 1.86266 9.55085 1.95172L13.7175 6.11203C13.8829 6.27317 13.9656 6.46826 13.9656 6.69727Z" fill="white"/>
</svg>
