<svg width="27" height="37" viewBox="0 0 27 37" fill="none" xmlns="http://www.w3.org/2000/svg">
<path d="M26.9151 18.7031C26.9151 19.3512 26.6636 19.9321 26.1609 20.446L15.2508 31.373C15.0273 31.5965 14.7536 31.7696 14.4296 31.8925C14.1168 32.0266 13.7927 32.0937 13.4575 32.0937C13.1336 32.0937 12.8096 32.0266 12.4855 31.8925C12.1726 31.7696 11.8989 31.5965 11.6643 31.373L0.75416 20.446C0.251386 19.9321 0 19.3512 0 18.7031C0 18.0104 0.217869 17.4463 0.653607 17.0105C1.10051 16.5747 1.65356 16.3569 2.31275 16.3569C2.67028 16.3569 2.98871 16.4294 3.26802 16.5747C3.55851 16.7088 3.81548 16.8875 4.03894 17.111L7.80973 20.865L12.6866 26.4793L11.2956 27.4178L11.0275 21.1164V2.51386C11.0275 1.76529 11.2509 1.16197 11.6979 0.703881C12.1447 0.234628 12.7314 0 13.4575 0C14.1837 0 14.7704 0.234628 15.2172 0.703881C15.6641 1.16197 15.8876 1.76529 15.8876 2.51386V21.1164L15.6362 27.4178L14.2452 26.4793L19.1053 20.865L22.8761 17.111C23.0884 16.8875 23.3397 16.7088 23.6303 16.5747C23.9208 16.4294 24.2448 16.3569 24.6023 16.3569C25.2616 16.3569 25.809 16.5747 26.2447 17.0105C26.6916 17.4463 26.9151 18.0104 26.9151 18.7031ZM26.9151 34.4398C26.9151 35.0879 26.6916 35.641 26.2447 36.0991C25.7978 36.5571 25.2503 36.7862 24.6023 36.7862H2.32952C1.67032 36.7862 1.11727 36.5571 0.670364 36.0991C0.223455 35.641 0 35.0879 0 34.4398C0 33.7807 0.223455 33.222 0.670364 32.7639C1.11727 32.3171 1.67032 32.0937 2.32952 32.0937H24.6023C25.2503 32.0937 25.7978 32.3171 26.2447 32.7639C26.6916 33.222 26.9151 33.7807 26.9151 34.4398Z" fill="#175AEA"/>
</svg>
