<svg width="47" height="30" viewBox="0 0 47 30" fill="none" xmlns="http://www.w3.org/2000/svg">
<rect x="0.87207" y="0.0791016" width="45.8726" height="29.0526" rx="5.73805" fill="#126CF4"/>
<mask id="mask0_1102_2182" style="mask-type:luminance" maskUnits="userSpaceOnUse" x="30" y="21" width="13" height="4">
<path d="M36.9699 22.251C36.9629 22.7834 37.4569 23.0806 37.829 23.2573C38.2114 23.4386 38.3398 23.5548 38.3383 23.7169C38.3354 23.965 38.0333 24.0745 37.7506 24.0788C37.2574 24.0862 36.9706 23.949 36.7426 23.8452L36.5649 24.6553C36.7937 24.7581 37.2172 24.8477 37.6565 24.8516C38.6875 24.8516 39.362 24.3557 39.3657 23.5868C39.3697 22.611 37.9804 22.557 37.9899 22.1208C37.9932 21.9886 38.1227 21.8475 38.4066 21.8116C38.547 21.7935 38.9348 21.7796 39.3744 21.9769L39.547 21.1931C39.3106 21.1092 39.0067 21.0288 38.6284 21.0288C37.6579 21.0288 36.9754 21.5315 36.9699 22.251ZM41.2051 21.0964C41.0169 21.0964 40.8582 21.2034 40.7874 21.3676L39.3146 24.794H40.3449L40.5499 24.2419H41.8089L41.9278 24.794H42.8359L42.0435 21.0964H41.2051ZM41.3492 22.0953L41.6466 23.4837H40.8323L41.3492 22.0953ZM35.7207 21.0964L34.9086 24.794H35.8904L36.7021 21.0964H35.7207ZM34.2684 21.0964L33.2465 23.6131L32.8331 21.4732C32.7846 21.2343 32.5931 21.0964 32.3804 21.0964H30.7099L30.6865 21.2037C31.0295 21.2763 31.4191 21.3932 31.6551 21.5183C31.7996 21.5948 31.8408 21.6616 31.8883 21.8432L32.6712 24.794H33.7087L35.2994 21.0964H34.2684Z" fill="white"/>
</mask>
<g mask="url(#mask0_1102_2182)">
<path d="M29.416 21.4852L41.3867 17.1897L44.11 24.3949L32.1394 28.6904" fill="white"/>
</g>
<rect x="29.9258" y="19.4473" width="13.5579" height="5.81053" rx="1.93684" fill="white"/>
</svg>
