<svg width="44" height="33" viewBox="0 0 44 33" fill="none" xmlns="http://www.w3.org/2000/svg">
<path d="M9.25078 26.5979H13.4617C13.9659 26.5979 14.3726 26.4433 14.682 26.134C14.9914 25.8246 15.1461 25.4293 15.1461 24.948V21.7684C15.1461 21.2756 14.9914 20.8803 14.682 20.5824C14.3726 20.273 13.9659 20.1184 13.4617 20.1184H9.25078C8.74661 20.1184 8.33985 20.273 8.03047 20.5824C7.7211 20.8803 7.5664 21.2756 7.5664 21.7684V24.948C7.5664 25.4293 7.7211 25.8246 8.03047 26.134C8.33985 26.4433 8.74661 26.5979 9.25078 26.5979ZM1.98047 13.5184H42.8523V9.41054H1.98047V13.5184ZM7.80703 32.1497C5.90494 32.1497 4.45547 31.6569 3.4586 30.6715C2.47318 29.6975 1.98047 28.2711 1.98047 26.3918V7.89804C1.98047 6.00742 2.47318 4.57514 3.4586 3.60117C4.45547 2.61575 5.90494 2.12305 7.80703 2.12305H37.0258C38.9394 2.12305 40.3888 2.61575 41.3741 3.60117C42.3597 4.5866 42.8523 6.01889 42.8523 7.89804V26.3918C42.8523 28.2711 42.3597 29.6975 41.3741 30.6715C40.3888 31.6569 38.9394 32.1497 37.0258 32.1497H7.80703Z" fill="white"/>
</svg>
