<svg width="86" height="86" viewBox="0 0 86 86" fill="none" xmlns="http://www.w3.org/2000/svg">
<rect width="86" height="86" rx="30" fill="#C23230"/>
<path d="M31.1182 57.8369C30.1598 57.8369 29.3265 57.6181 28.6182 57.1807C27.9098 56.7537 27.3578 56.1807 26.9619 55.4618C26.5661 54.7432 26.3682 53.9567 26.3682 53.1025C26.3682 52.2691 26.5817 51.4776 27.0088 50.7276L39.0557 29.6963C39.4932 28.915 40.0817 28.3265 40.8213 27.9307C41.5609 27.5244 42.3317 27.3213 43.1338 27.3213C43.9359 27.3213 44.7015 27.5192 45.4307 27.915C46.1598 28.3109 46.7536 28.9046 47.2119 29.6963L59.2431 50.7119C59.4618 51.0972 59.6234 51.4931 59.7276 51.8995C59.8316 52.2952 59.8837 52.6963 59.8837 53.1025C59.8837 53.9567 59.6858 54.7432 59.2901 55.4618C58.9045 56.1807 58.3578 56.7537 57.6495 57.1807C56.9411 57.6181 56.1077 57.8369 55.1493 57.8369H31.1182ZM43.1494 46.6494C44.264 46.6494 44.8525 46.0765 44.915 44.9307L45.1807 38.1963C45.2015 37.613 45.0192 37.139 44.6338 36.7744C44.2484 36.3994 43.7484 36.2119 43.1338 36.2119C42.5088 36.2119 42.0036 36.3942 41.6182 36.7588C41.2432 37.1234 41.0713 37.5973 41.1025 38.1807L41.3525 44.9463C41.415 46.0817 42.014 46.6494 43.1494 46.6494ZM43.1494 52.3057C43.7744 52.3057 44.2952 52.1233 44.7119 51.7587C45.139 51.3941 45.3525 50.9151 45.3525 50.3212C45.3525 49.7276 45.139 49.2483 44.7119 48.8837C44.2952 48.5192 43.7744 48.3369 43.1494 48.3369C42.5244 48.3369 41.9984 48.5192 41.5713 48.8837C41.1442 49.2483 40.9307 49.7276 40.9307 50.3212C40.9307 50.9151 41.1442 51.3941 41.5713 51.7587C42.0088 52.1233 42.5348 52.3057 43.1494 52.3057Z" fill="white"/>
</svg>
