<svg width="32" height="32" viewBox="0 0 32 32" fill="none" xmlns="http://www.w3.org/2000/svg">
<path d="M14 8H18C21.7712 8 23.6569 8 24.8284 9.17157C25.672 10.0151 25.9082 11.2288 25.9743 13.25H6.02572C6.09185 11.2288 6.32803 10.0151 7.17157 9.17157C8.34315 8 10.2288 8 14 8Z" fill="#165AEA"/>
<path fill-rule="evenodd" clip-rule="evenodd" d="M18 24H14C10.2288 24 8.34315 24 7.17157 22.8284C6 21.6569 6 19.7712 6 16C6 15.5581 6 15.142 6.00189 14.75H25.9981C26 15.142 26 15.5581 26 16C26 19.7712 26 21.6569 24.8284 22.8284C23.6569 24 21.7712 24 18 24ZM10 19.25C9.58579 19.25 9.25 19.5858 9.25 20C9.25 20.4142 9.58579 20.75 10 20.75H14C14.4142 20.75 14.75 20.4142 14.75 20C14.75 19.5858 14.4142 19.25 14 19.25H10ZM16.5 19.25C16.0858 19.25 15.75 19.5858 15.75 20C15.75 20.4142 16.0858 20.75 16.5 20.75H18C18.4142 20.75 18.75 20.4142 18.75 20C18.75 19.5858 18.4142 19.25 18 19.25H16.5Z" fill="#165AEA"/>
</svg>
