<svg width="331" height="243" viewBox="0 0 331 243" fill="none" xmlns="http://www.w3.org/2000/svg">
<path opacity="0.3" d="M9.10853 12.533L12.6879 18.7673L19.7505 20.1081L13.5162 23.6875L12.1753 30.7501L8.59596 24.5158L1.5334 23.1749L7.76764 19.5956L9.10853 12.533Z" fill="#165AEA"/>
<path opacity="0.4" d="M303.549 227.589L294.386 226.38L287.503 232.549L288.712 223.386L282.543 216.503L291.706 217.712L298.589 211.543L297.38 220.706L303.549 227.589Z" fill="#165AEA"/>
<path opacity="0.4" d="M299.549 21.5889L290.386 20.38L283.503 26.5492L284.712 17.3859L278.543 10.5035L287.706 11.7124L294.589 5.54324L293.38 14.7065L299.549 21.5889Z" fill="#165AEA"/>
<path opacity="0.7" d="M42.9319 234.657L38.2402 236.906L36.8936 241.932L34.6444 237.24L29.6187 235.893L34.3104 233.644L35.6569 228.618L37.9061 233.31L42.9319 234.657Z" fill="#165AEA"/>
<path opacity="0.7" d="M4.61795 211.657L9.30964 213.906L10.6562 218.932L12.9054 214.24L17.9311 212.893L13.2395 210.644L11.8929 205.618L9.64368 210.31L4.61795 211.657Z" fill="#165AEA"/>
<path opacity="0.6" d="M309.395 106.508L310.516 115.682L304.281 122.505L313.456 121.384L320.278 127.619L319.158 118.445L325.393 111.622L316.218 112.743L309.395 106.508Z" fill="#165AEA"/>
</svg>
