<svg width="86" height="86" viewBox="0 0 86 86" fill="none" xmlns="http://www.w3.org/2000/svg">
<rect width="86" height="86" rx="30" fill="#30C26E"/>
<path d="M32.8887 57.2413C31.9408 57.2413 31.196 57.0225 30.6543 56.5851C30.1126 56.1476 29.8418 55.5485 29.8418 54.788C29.8418 53.788 30.1491 52.7412 30.7637 51.6475C31.3887 50.5432 32.2845 49.5121 33.4512 48.5537C34.6178 47.5954 36.0189 46.8193 37.6543 46.2256C39.2897 45.6214 41.1178 45.3193 43.1387 45.3193C45.1699 45.3193 46.998 45.6214 48.623 46.2256C50.2585 46.8193 51.6543 47.5954 52.8105 48.5537C53.9773 49.5121 54.8731 50.5432 55.498 51.6475C56.1231 52.7412 56.4356 53.788 56.4356 54.788C56.4356 55.5485 56.1647 56.1476 55.623 56.5851C55.0918 57.0225 54.3469 57.2413 53.3887 57.2413H32.8887ZM43.1387 42.585C41.972 42.585 40.9043 42.2725 39.9355 41.6475C38.9668 41.0225 38.1907 40.1839 37.6074 39.1318C37.0345 38.0798 36.7481 36.9027 36.7481 35.6006C36.7481 34.3298 37.0397 33.1735 37.623 32.1318C38.2064 31.0902 38.9824 30.262 39.9512 29.6475C40.9199 29.0329 41.9824 28.7256 43.1387 28.7256C44.3053 28.7256 45.3731 29.0329 46.3418 29.6475C47.3105 30.2516 48.0866 31.0745 48.6699 32.1162C49.2533 33.1579 49.5449 34.3089 49.5449 35.5693C49.5449 36.8818 49.2533 38.0693 48.6699 39.1318C48.097 40.1839 47.3262 41.0225 46.3574 41.6475C45.3887 42.2725 44.3158 42.585 43.1387 42.585Z" fill="white"/>
</svg>
