<svg width="55" height="68" viewBox="0 0 55 68" fill="none" xmlns="http://www.w3.org/2000/svg">
<g clip-path="url(#clip0_954_3035)">
<path fill-rule="evenodd" clip-rule="evenodd" d="M1.57715 25.8397V66.8547H14.9168V14.4702H53.9158L54.005 1.1416H27.4345L1.57715 25.8397Z" fill="white"/>
<path fill-rule="evenodd" clip-rule="evenodd" d="M1.5498 27.3555C1.5498 13.0312 13.0442 1.38992 27.3179 1.1416H54.0222V14.6117H27.3179C20.4866 14.8566 15.0238 20.4685 15.0238 27.3555C15.0238 30.8554 16.4346 34.0261 18.7188 36.3303C21.0286 38.6558 24.2281 40.0955 27.7637 40.0955C34.6508 40.0955 40.2627 34.6326 40.5075 27.8013H53.9776C53.7297 42.075 42.088 53.5694 27.7637 53.5694C27.6148 53.5694 27.4662 53.5682 27.3179 53.5657V53.5694C20.3199 53.4477 13.99 50.5874 9.35513 46.0152C4.63663 41.3592 1.67374 34.9265 1.5498 27.8013H1.55355C1.55105 27.653 1.5498 27.5044 1.5498 27.3555Z" fill="white"/>
</g>
<defs>
<clipPath id="clip0_954_3035">
<rect width="54.1412" height="67.7455" fill="white" transform="translate(0.737305 0.126953)"/>
</clipPath>
</defs>
</svg>
