<svg width="38" height="38" viewBox="0 0 38 38" fill="none" xmlns="http://www.w3.org/2000/svg">
<rect width="37" height="37" rx="18.5" fill="#26A17B"/>
<path fill-rule="evenodd" clip-rule="evenodd" d="M21.1191 20.5766V20.5742C20.9892 20.5837 20.3199 20.6239 18.8267 20.6239C17.6345 20.6239 16.7952 20.5884 16.5001 20.5742V20.5777C11.9107 20.3753 8.48518 19.5739 8.48518 18.615C8.48518 17.6574 11.9107 16.8559 16.5001 16.65V19.7799C16.8 19.8012 17.6593 19.8521 18.8468 19.8521C20.2715 19.8521 20.9857 19.7929 21.1191 19.7811V16.6523C25.6991 16.8571 29.1163 17.6585 29.1163 18.615C29.1163 19.5739 25.6991 20.3729 21.1191 20.5766ZM21.1191 16.3268V13.526H27.5098V9.25488H10.1094V13.526H16.5001V16.3256C11.3064 16.5647 7.40039 17.597 7.40039 18.8328C7.40039 20.0687 11.3064 21.0998 16.5001 21.3401V30.3155H21.1191V21.3377C26.3046 21.0986 30.2011 20.0675 30.2011 18.8328C30.2011 17.5982 26.3046 16.5671 21.1191 16.3268Z" fill="white"/>
<path d="M29.3633 22.0498C33.6515 22.0499 37.126 25.5198 37.126 29.7988C37.1257 34.0777 33.6514 37.5468 29.3633 37.5469C25.0781 37.5469 21.5999 34.0778 21.5996 29.7988C21.5996 25.5197 25.075 22.0498 29.3633 22.0498Z" fill="#FF060A" stroke="#F0EFF4" stroke-width="0.8"/>
<path d="M33.5629 28.5183C33.1567 28.1422 32.5925 27.5693 32.1354 27.1639L32.1072 27.1462C32.0621 27.111 32.0113 27.0816 31.9577 27.061C30.8518 26.8554 25.7061 25.8946 25.6073 25.9064C25.5791 25.9093 25.5509 25.921 25.5283 25.9357L25.5029 25.9563C25.4719 25.9886 25.4465 26.0268 25.4324 26.0709L25.4268 26.0885V26.1855V26.2002C26.0051 27.8102 28.293 33.0812 28.7444 34.321C28.7726 34.4062 28.8234 34.5649 28.9193 34.5737H28.9419C28.9927 34.5737 29.2127 34.2828 29.2127 34.2828C29.2127 34.2828 33.1426 29.529 33.5404 29.0237C33.5911 28.962 33.6363 28.8944 33.6758 28.8239C33.6871 28.768 33.6814 28.7122 33.6617 28.6593C33.6419 28.6065 33.6053 28.5565 33.5629 28.5183ZM30.2171 29.0736L31.8928 27.6868L32.8774 28.5918L30.2171 29.0736ZM29.5654 28.9825L26.6793 26.6203L31.3512 27.4812L29.5654 28.9825ZM29.8249 29.5995L32.7787 29.1236L29.4018 33.1869L29.8249 29.5995ZM26.2872 26.8583L29.3256 29.4291L28.8855 33.1898L26.2872 26.8583Z" fill="white"/>
</svg>
