<svg width="16" height="11" viewBox="0 0 16 11" fill="none" xmlns="http://www.w3.org/2000/svg">
<path d="M4.04893 11.0045C3.41728 11.0045 2.86152 10.8794 2.38164 10.6292C1.90586 10.379 1.53262 10.0324 1.26191 9.58945C0.995312 9.14648 0.862012 8.63994 0.862012 8.06982C0.862012 7.62275 0.950195 7.21055 1.12656 6.8332C1.30293 6.45176 1.54902 6.12568 1.86484 5.85498C2.18477 5.58018 2.56006 5.37715 2.99072 5.2459C3.05635 4.62656 3.22451 4.05439 3.49521 3.52939C3.77002 3.00029 4.12275 2.54092 4.55342 2.15127C4.98408 1.76162 5.47217 1.45811 6.01768 1.24072C6.56728 1.02334 7.14971 0.914649 7.76494 0.914649C8.7165 0.914649 9.55937 1.14434 10.2936 1.60371C11.0277 2.05898 11.604 2.69883 12.0224 3.52324C12.5925 3.52324 13.1175 3.61758 13.5974 3.80625C14.0813 3.99082 14.5018 4.25332 14.8586 4.59375C15.2195 4.93008 15.4984 5.32588 15.6953 5.78115C15.8963 6.23643 15.9968 6.73066 15.9968 7.26387C15.9968 7.78887 15.8983 8.279 15.7015 8.73428C15.5087 9.18955 15.238 9.5874 14.8894 9.92783C14.5407 10.2642 14.1347 10.5267 13.6712 10.7153C13.2077 10.9081 12.7053 11.0045 12.1639 11.0045H4.04893Z" fill="white"/>
</svg>
