<svg width="54" height="18" viewBox="0 0 54 18" fill="none" xmlns="http://www.w3.org/2000/svg">
<mask id="mask0_695_4608" style="mask-type:luminance" maskUnits="userSpaceOnUse" x="0" y="0" width="54" height="18">
<path d="M27.8991 6.28865C27.8687 8.62884 30.0396 9.93485 31.675 10.7113C33.3552 11.508 33.9196 12.0188 33.9132 12.7312C33.9004 13.8216 32.5728 14.3028 31.3302 14.3215C29.1626 14.3543 27.9023 13.7513 26.9003 13.2952L26.1194 16.8554C27.1247 17.3069 28.9862 17.7006 30.9166 17.7178C35.4476 17.7178 38.4121 15.5385 38.4281 12.1594C38.4458 7.87117 32.3403 7.63371 32.382 5.71688C32.3965 5.13574 32.9656 4.51554 34.213 4.35776C34.8303 4.27809 36.5346 4.21716 38.4666 5.08419L39.225 1.63951C38.186 1.27083 36.8505 0.917774 35.1878 0.917774C30.923 0.917774 27.9232 3.12674 27.8991 6.28865ZM46.5121 1.21459C45.6848 1.21459 44.9873 1.68482 44.6763 2.40656L38.2037 17.4647H42.7315L43.6325 15.0386H49.1656L49.6883 17.4647H53.6789L50.1965 1.21459H46.5121ZM47.1454 5.6044L48.4521 11.7064H44.8735L47.1454 5.6044ZM22.4094 1.21459L18.8404 17.4647H23.1549L26.7223 1.21459H22.4094ZM16.0266 1.21459L11.5357 12.275L9.7191 2.87053C9.50586 1.82073 8.66412 1.21459 7.72938 1.21459H0.387778L0.285156 1.68638C1.79228 2.00507 3.50462 2.51904 4.54197 3.06894C5.17688 3.40481 5.35806 3.69851 5.56649 4.4968L9.00722 17.4647H13.5671L20.5575 1.21459H16.0266Z" fill="white"/>
</mask>
<g mask="url(#mask0_695_4608)">
<path d="M-5.30469 2.92438L47.304 -15.9534L59.2722 15.7121L6.66409 34.5898" fill="white"/>
</g>
</svg>
