<svg width="22" height="28" viewBox="0 0 22 28" fill="none" xmlns="http://www.w3.org/2000/svg">
<g clip-path="url(#clip0_695_4619)">
<path fill-rule="evenodd" clip-rule="evenodd" d="M0.950195 10.7065V26.7558H6.17007V6.25754H21.4305L21.4654 1.04199H11.0683L0.950195 10.7065Z" fill="white"/>
<path fill-rule="evenodd" clip-rule="evenodd" d="M0.94043 11.2996C0.94043 5.69445 5.43825 1.13916 11.0236 1.04199H21.4731V6.31291H11.0236C8.35048 6.40875 6.21284 8.60468 6.21284 11.2996C6.21284 12.6691 6.76491 13.9098 7.65871 14.8115C8.56257 15.7214 9.81456 16.2848 11.198 16.2848C13.893 16.2848 16.0889 14.1472 16.1847 11.4741H21.4557C21.3587 17.0594 16.8032 21.5572 11.198 21.5572C11.1398 21.5572 11.0816 21.5567 11.0236 21.5558V21.5572C8.28527 21.5096 5.80833 20.3904 3.99469 18.6012C2.14832 16.7793 0.988927 14.2622 0.94043 11.4741H0.941895C0.940918 11.416 0.94043 11.3579 0.94043 11.2996Z" fill="white"/>
</g>
<defs>
<clipPath id="clip0_695_4619">
<rect width="21.1857" height="26.5091" fill="white" transform="translate(0.62207 0.645508)"/>
</clipPath>
</defs>
</svg>
