<svg width="36" height="26" viewBox="0 0 36 26" fill="none" xmlns="http://www.w3.org/2000/svg">
<g clip-path="url(#clip0_1284_2227)">
<path d="M11.3335 23.6171C17.2244 23.6171 22 18.8639 22 13.0005C22 7.13703 17.2244 2.38379 11.3335 2.38379C5.44255 2.38379 0.666992 7.13703 0.666992 13.0005C0.666992 18.8639 5.44255 23.6171 11.3335 23.6171Z" fill="white"/>
<path d="M24.6665 23.6171C30.5574 23.6171 35.333 18.8639 35.333 13.0005C35.333 7.13703 30.5574 2.38379 24.6665 2.38379C18.7756 2.38379 14 7.13703 14 13.0005C14 18.8639 18.7756 23.6171 24.6665 23.6171Z" fill="white" fill-opacity="0.5"/>
<path fill-rule="evenodd" clip-rule="evenodd" d="M17.9997 21.2874C19.2475 20.2964 20.2553 19.0364 20.9478 17.6013C21.6404 16.1663 21.9999 14.5933 21.9993 12.9999C21.9999 11.4065 21.6404 9.83352 20.9478 8.39847C20.2553 6.96343 19.2475 5.70338 17.9997 4.7124C16.7519 5.70338 15.7441 6.96343 15.0515 8.39847C14.3589 9.83352 13.9995 11.4065 14 12.9999C13.9995 14.5933 14.3589 16.1663 15.0515 17.6013C15.7441 19.0364 16.7519 20.2964 17.9997 21.2874Z" fill="white"/>
</g>
<defs>
<clipPath id="clip0_1284_2227">
<rect width="34.6667" height="26" fill="white" transform="translate(0.666992)"/>
</clipPath>
</defs>
</svg>
