<svg width="37" height="37" viewBox="0 0 37 37" fill="none" xmlns="http://www.w3.org/2000/svg">
<rect width="37" height="37" rx="18.5" fill="black" fill-opacity="0.06"/>
<path d="M19.2109 25.2969C18.4609 25.2969 17.7188 25.1901 16.9844 24.9766C16.25 24.763 15.6146 24.4089 15.0781 23.9141C14.8021 23.6589 14.5599 23.3464 14.3516 22.9766C14.1432 22.6068 14.0391 22.2396 14.0391 21.875C14.0391 21.5885 14.1354 21.3594 14.3281 21.1875C14.5208 21.0104 14.7734 20.9219 15.0859 20.9219C15.5651 20.9219 15.9115 21.1719 16.125 21.6719C16.2552 22.0938 16.4688 22.4401 16.7656 22.7109C17.0625 22.9818 17.4219 23.1823 17.8438 23.3125C18.2656 23.4427 18.7318 23.5078 19.2422 23.5078C19.6276 23.5078 20.0026 23.4714 20.3672 23.3984C20.7318 23.3255 21.0599 23.2109 21.3516 23.0547C21.6432 22.8932 21.8724 22.6849 22.0391 22.4297C22.2109 22.1745 22.2969 21.862 22.2969 21.4922C22.2969 21.0651 22.1901 20.7214 21.9766 20.4609C21.7682 20.2005 21.4662 19.9896 21.0703 19.8281C20.6797 19.6615 20.2135 19.5182 19.6719 19.3984L18.1719 19.0625C17.4635 18.901 16.8073 18.6745 16.2031 18.3828C15.599 18.0859 15.112 17.6901 14.7422 17.1953C14.3776 16.6953 14.1953 16.0677 14.1953 15.3125C14.1953 14.6719 14.3307 14.1068 14.6016 13.6172C14.8776 13.1276 15.25 12.7188 15.7188 12.3906C16.1927 12.0573 16.7292 11.8099 17.3281 11.6484C17.9323 11.4818 18.5573 11.3984 19.2031 11.3984C19.8906 11.3984 20.5495 11.4948 21.1797 11.6875C21.8099 11.875 22.3724 12.1745 22.8672 12.5859C23.2318 12.8568 23.5417 13.1953 23.7969 13.6016C24.0573 14.0026 24.1875 14.4062 24.1875 14.8125C24.1875 15.099 24.0911 15.3203 23.8984 15.4766C23.7109 15.6276 23.4766 15.7031 23.1953 15.7031C22.9297 15.7031 22.7083 15.638 22.5312 15.5078C22.3594 15.3724 22.2161 15.1901 22.1016 14.9609C21.9922 14.6693 21.8438 14.4141 21.6562 14.1953C21.474 13.9714 21.2578 13.7865 21.0078 13.6406C20.763 13.4948 20.4896 13.3854 20.1875 13.3125C19.8906 13.2396 19.5703 13.2031 19.2266 13.2031C18.8516 13.2031 18.4948 13.2448 18.1562 13.3281C17.8177 13.4063 17.5156 13.526 17.25 13.6875C16.9844 13.849 16.7734 14.0495 16.6172 14.2891C16.4661 14.5287 16.3906 14.8047 16.3906 15.1172C16.3906 15.4974 16.4948 15.8177 16.7031 16.0781C16.9167 16.3333 17.2083 16.5469 17.5781 16.7188C17.9531 16.8854 18.3854 17.0234 18.875 17.1328L20.375 17.4844C20.9375 17.6146 21.4661 17.7734 21.9609 17.9609C22.4557 18.1484 22.8932 18.3854 23.2734 18.6719C23.6537 18.9531 23.9505 19.3073 24.1641 19.7344C24.3776 20.1562 24.4844 20.6667 24.4844 21.2656C24.4844 21.9427 24.3438 22.5339 24.0625 23.0391C23.7812 23.5391 23.3958 23.9557 22.9062 24.2891C22.4167 24.6276 21.8542 24.8802 21.2188 25.0469C20.5833 25.2135 19.9141 25.2969 19.2109 25.2969ZM19.2344 27.1406C19.099 27.1406 18.9844 27.0911 18.8906 26.9922C18.7969 26.8984 18.75 26.7865 18.75 26.6562V10.0625C18.75 9.93229 18.7969 9.82031 18.8906 9.72656C18.9844 9.6276 19.099 9.57812 19.2344 9.57812C19.3646 9.57812 19.4766 9.6276 19.5703 9.72656C19.6641 9.82031 19.7109 9.93229 19.7109 10.0625V26.6562C19.7109 26.7865 19.6641 26.8984 19.5703 26.9922C19.4766 27.0911 19.3646 27.1406 19.2344 27.1406Z" fill="black" fill-opacity="0.4"/>
</svg>
