<svg width="20" height="19" viewBox="0 0 20 19" fill="none" xmlns="http://www.w3.org/2000/svg">
<g clip-path="url(#clip0_1298_2411)">
<path d="M3.37988 8.93907C2.70488 8.93907 2.19864 8.77031 1.86114 8.43281C1.52988 8.09531 1.36426 7.57656 1.36426 6.87657V2.96718C1.36426 2.26719 1.52988 1.75156 1.86114 1.42031C2.19864 1.08281 2.70488 0.914062 3.37988 0.914062H7.36425C8.03925 0.914062 8.54551 1.08281 8.88301 1.42031C9.22051 1.75156 9.38925 2.26719 9.38925 2.96718V6.87657C9.38925 7.57656 9.22051 8.09531 8.88301 8.43281C8.54551 8.77031 8.03925 8.93907 7.36425 8.93907H3.37988ZM3.35175 7.44844H7.39238C7.56114 7.44844 7.68926 7.40469 7.77675 7.31718C7.86426 7.22969 7.90801 7.09843 7.90801 6.92344V2.91094C7.90801 2.73594 7.86426 2.60781 7.77675 2.52657C7.68926 2.43906 7.56114 2.39531 7.39238 2.39531H3.35175C3.18301 2.39531 3.05489 2.43906 2.96738 2.52657C2.88613 2.60781 2.84551 2.73594 2.84551 2.91094V6.92344C2.84551 7.09843 2.88613 7.22969 2.96738 7.31718C3.05489 7.40469 3.18301 7.44844 3.35175 7.44844ZM4.53301 5.95781C4.40175 5.95781 4.33614 5.87969 4.33614 5.72344V4.10157C4.33614 3.95781 4.40175 3.88594 4.53301 3.88594H6.20175C6.33926 3.88594 6.40801 3.95781 6.40801 4.10157V5.72344C6.40801 5.87969 6.33926 5.95781 6.20175 5.95781H4.53301ZM12.8674 8.93907C12.1924 8.93907 11.6861 8.77031 11.3486 8.43281C11.0111 8.09531 10.8424 7.57656 10.8424 6.87657V2.96718C10.8424 2.26719 11.0111 1.75156 11.3486 1.42031C11.6861 1.08281 12.1924 0.914062 12.8674 0.914062H16.8518C17.5268 0.914062 18.0299 1.08281 18.3611 1.42031C18.6986 1.75156 18.8674 2.26719 18.8674 2.96718V6.87657C18.8674 7.57656 18.6986 8.09531 18.3611 8.43281C18.0299 8.77031 17.5268 8.93907 16.8518 8.93907H12.8674ZM12.8392 7.44844H16.8799C17.0549 7.44844 17.183 7.40469 17.2642 7.31718C17.3455 7.22969 17.3861 7.09843 17.3861 6.92344V2.91094C17.3861 2.73594 17.3455 2.60781 17.2642 2.52657C17.183 2.43906 17.0549 2.39531 16.8799 2.39531H12.8392C12.6643 2.39531 12.533 2.43906 12.4455 2.52657C12.3643 2.60781 12.3236 2.73594 12.3236 2.91094V6.92344C12.3236 7.09843 12.3643 7.22969 12.4455 7.31718C12.533 7.40469 12.6643 7.44844 12.8392 7.44844ZM14.0581 5.95781C13.9393 5.95781 13.8799 5.87969 13.8799 5.72344V4.10157C13.8799 3.95781 13.9393 3.88594 14.0581 3.88594H15.7361C15.8737 3.88594 15.9424 3.95781 15.9424 4.10157V5.72344C15.9424 5.87969 15.8737 5.95781 15.7361 5.95781H14.0581ZM3.37988 18.4172C2.70488 18.4172 2.19864 18.2484 1.86114 17.911C1.52988 17.5796 1.36426 17.0641 1.36426 16.364V12.4453C1.36426 11.7516 1.52988 11.2359 1.86114 10.8984C2.19864 10.5609 2.70488 10.3922 3.37988 10.3922H7.36425C8.03925 10.3922 8.54551 10.5609 8.88301 10.8984C9.22051 11.2359 9.38925 11.7516 9.38925 12.4453V16.364C9.38925 17.0641 9.22051 17.5796 8.88301 17.911C8.54551 18.2484 8.03925 18.4172 7.36425 18.4172H3.37988ZM3.35175 16.936H7.39238C7.56114 16.936 7.68926 16.8922 7.77675 16.8047C7.86426 16.7172 7.90801 16.589 7.90801 16.4203V12.3984C7.90801 12.2234 7.86426 12.0922 7.77675 12.0047C7.68926 11.9172 7.56114 11.8734 7.39238 11.8734H3.35175C3.18301 11.8734 3.05489 11.9172 2.96738 12.0047C2.88613 12.0922 2.84551 12.2234 2.84551 12.3984V16.4203C2.84551 16.589 2.88613 16.7172 2.96738 16.8047C3.05489 16.8922 3.18301 16.936 3.35175 16.936ZM4.53301 15.4453C4.40175 15.4453 4.33614 15.3672 4.33614 15.211V13.589C4.33614 13.4453 4.40175 13.3734 4.53301 13.3734H6.20175C6.33926 13.3734 6.40801 13.4453 6.40801 13.589V15.211C6.40801 15.3672 6.33926 15.4453 6.20175 15.4453H4.53301ZM11.508 12.8953C11.3768 12.8953 11.3111 12.8203 11.3111 12.6703V11.0484C11.3111 10.9047 11.3768 10.8328 11.508 10.8328H13.1768C13.3081 10.8328 13.3736 10.9047 13.3736 11.0484V12.6703C13.3736 12.8203 13.3081 12.8953 13.1768 12.8953H11.508ZM16.5236 12.8953C16.3924 12.8953 16.3268 12.8203 16.3268 12.6703V11.0484C16.3268 10.9047 16.3924 10.8328 16.5236 10.8328H18.1924C18.3236 10.8328 18.3892 10.9047 18.3892 11.0484V12.6703C18.3892 12.8203 18.3236 12.8953 18.1924 12.8953H16.5236ZM14.0392 15.4172C13.9081 15.4172 13.8424 15.3391 13.8424 15.1829V13.561C13.8424 13.4172 13.9081 13.3453 14.0392 13.3453H15.7081C15.8392 13.3453 15.9049 13.4172 15.9049 13.561V15.1829C15.9049 15.3391 15.8392 15.4172 15.7081 15.4172H14.0392ZM11.508 17.9203C11.3768 17.9203 11.3111 17.8453 11.3111 17.6953V16.064C11.3111 15.9203 11.3768 15.8484 11.508 15.8484H13.1768C13.3081 15.8484 13.3736 15.9203 13.3736 16.064V17.6953C13.3736 17.8453 13.3081 17.9203 13.1768 17.9203H11.508ZM16.5236 17.9203C16.3924 17.9203 16.3268 17.8453 16.3268 17.6953V16.064C16.3268 15.9203 16.3924 15.8484 16.5236 15.8484H18.1924C18.3236 15.8484 18.3892 15.9203 18.3892 16.064V17.6953C18.3892 17.8453 18.3236 17.9203 18.1924 17.9203H16.5236Z" fill="black"/>
</g>
<defs>
<clipPath id="clip0_1298_2411">
<rect width="19.2" height="18" fill="white" transform="translate(0.400391 0.5)"/>
</clipPath>
</defs>
</svg>
