<svg width="20" height="20" viewBox="0 0 20 20" fill="none" xmlns="http://www.w3.org/2000/svg">
<path d="M18.3333 7.08317C18.3333 4.09163 15.9082 1.6665 12.9166 1.6665C11.1809 1.6665 9.63586 2.48509 8.64453 3.75585C12.8725 3.9193 16.2499 7.39849 16.2499 11.6665C16.2499 11.7584 16.2484 11.85 16.2453 11.9412L16.5222 12.0153C17.3274 12.2307 18.0641 11.494 17.8487 10.6888L17.7425 10.292C17.6568 9.97159 17.7084 9.633 17.8462 9.33125C18.1589 8.6465 18.3333 7.88519 18.3333 7.08317Z" fill="#7B7B7B"/>
<path fill-rule="evenodd" clip-rule="evenodd" d="M15.0003 11.6667C15.0003 15.3486 12.0156 18.3333 8.33366 18.3333C7.30407 18.3333 6.32899 18.0999 5.45846 17.6832C5.15925 17.5399 4.82027 17.4897 4.49982 17.5753L3.47812 17.8488C2.67283 18.0642 1.93612 17.3275 2.15158 16.5223L2.42495 15.5005C2.5107 15.1801 2.4604 14.8411 2.31716 14.5418C1.90039 13.6713 1.66699 12.6962 1.66699 11.6667C1.66699 7.98477 4.65176 5 8.33366 5C12.0156 5 15.0003 7.98477 15.0003 11.6667Z" fill="#7B7B7B"/>
</svg>
