<svg width="22" height="22" viewBox="0 0 22 22" fill="none" xmlns="http://www.w3.org/2000/svg">
<path fill-rule="evenodd" clip-rule="evenodd" d="M9.45295 0.350715C10.4313 -0.116905 11.5687 -0.116905 12.547 0.350715C12.9721 0.553863 13.3615 0.886063 13.9008 1.34604C13.9287 1.36992 13.9571 1.39414 13.986 1.4187C14.2478 1.64188 14.3303 1.7105 14.4138 1.76644C14.6261 1.90871 14.8645 2.00745 15.1152 2.05695C15.2138 2.0764 15.3206 2.08619 15.6635 2.11357C15.7013 2.11659 15.7386 2.11954 15.7752 2.12244C16.4817 2.17851 16.992 2.219 17.4362 2.3759C18.4587 2.73704 19.263 3.54128 19.6241 4.56373C19.7809 5.00793 19.8214 5.51821 19.8775 6.22478C19.8805 6.26146 19.8834 6.29867 19.8864 6.33642C19.9138 6.67941 19.9236 6.78626 19.9431 6.88483C19.9925 7.13552 20.0913 7.3739 20.2335 7.58616C20.2895 7.66962 20.3581 7.7521 20.5813 8.01399C20.6058 8.04282 20.63 8.07122 20.6539 8.09922C21.1139 8.63847 21.4461 9.02791 21.6493 9.45295C22.1169 10.4313 22.1169 11.5687 21.6493 12.547C21.4461 12.9721 21.1139 13.3615 20.654 13.9008C20.63 13.9287 20.6058 13.9571 20.5813 13.986C20.3581 14.2478 20.2895 14.3303 20.2335 14.4138C20.0913 14.6261 19.9925 14.8645 19.9431 15.1152C19.9236 15.2138 19.9138 15.3206 19.8864 15.6635C19.8834 15.7013 19.8805 15.7386 19.8775 15.7752C19.8214 16.4817 19.7809 16.992 19.6241 17.4362C19.263 18.4587 18.4587 19.263 17.4362 19.6241C16.992 19.7809 16.4817 19.8214 15.7752 19.8775C15.7386 19.8805 15.7013 19.8834 15.6635 19.8864C15.3206 19.9138 15.2138 19.9236 15.1152 19.9431C14.8645 19.9925 14.6261 20.0913 14.4138 20.2335C14.3303 20.2895 14.2478 20.3581 13.986 20.5813C13.9571 20.6058 13.9287 20.63 13.9008 20.6539C13.3615 21.1139 12.9721 21.4461 12.547 21.6493C11.5687 22.1169 10.4313 22.1169 9.45295 21.6493C9.02791 21.4461 8.63846 21.1139 8.09918 20.6539C8.0712 20.63 8.04281 20.6058 8.01399 20.5813C7.75209 20.3581 7.66962 20.2895 7.58616 20.2335C7.3739 20.0913 7.13552 19.9925 6.88483 19.9431C6.78626 19.9236 6.67941 19.9138 6.33642 19.8864C6.29867 19.8834 6.26147 19.8805 6.22478 19.8775C5.51821 19.8214 5.00793 19.7809 4.56373 19.6241C3.54128 19.263 2.73704 18.4587 2.3759 17.4362C2.219 16.992 2.17851 16.4817 2.12244 15.7752C2.11954 15.7386 2.11659 15.7013 2.11357 15.6635C2.08619 15.3206 2.0764 15.2138 2.05695 15.1152C2.00745 14.8645 1.90871 14.6261 1.76644 14.4138C1.7105 14.3303 1.64188 14.2478 1.4187 13.986C1.39414 13.9572 1.36992 13.9287 1.34605 13.9008C0.886063 13.3615 0.553863 12.9721 0.350715 12.547C-0.116905 11.5687 -0.116905 10.4313 0.350715 9.45295C0.553863 9.02791 0.886063 8.63846 1.34604 8.09919C1.36991 8.07121 1.39413 8.04281 1.4187 8.01399C1.64188 7.75209 1.7105 7.66962 1.76644 7.58616C1.90871 7.3739 2.00745 7.13552 2.05695 6.88483C2.0764 6.78626 2.08619 6.67941 2.11357 6.33642C2.11659 6.29867 2.11954 6.26147 2.12244 6.22478C2.17851 5.51822 2.219 5.00793 2.3759 4.56373C2.73704 3.54128 3.54128 2.73704 4.56373 2.3759C5.00793 2.219 5.51822 2.17851 6.22479 2.12244C6.26147 2.11954 6.29867 2.11659 6.33642 2.11357C6.67941 2.08619 6.78626 2.0764 6.88483 2.05695C7.13552 2.00745 7.3739 1.90871 7.58616 1.76644C7.66962 1.7105 7.75209 1.64188 8.01399 1.4187C8.04281 1.39413 8.0712 1.36992 8.09919 1.34604C8.63846 0.886063 9.02791 0.553863 9.45295 0.350715ZM11.833 1.84459C11.3062 1.59279 10.6937 1.59279 10.167 1.84459C9.96335 1.94193 9.74863 2.11587 9.08797 2.67891C9.07708 2.68816 9.06641 2.69728 9.05585 2.70628L9.0536 2.70821C8.83783 2.89207 8.68011 3.02647 8.50801 3.14182C8.1138 3.40603 7.67109 3.58941 7.20552 3.68132C7.00155 3.72159 6.79422 3.73809 6.5102 3.76071C6.49636 3.76181 6.48234 3.76292 6.46813 3.76406C5.60282 3.83311 5.32803 3.86192 5.11517 3.93711C4.56462 4.13156 4.13156 4.56462 3.93711 5.11517C3.86192 5.32803 3.83311 5.60282 3.76406 6.46813C3.76292 6.48234 3.76181 6.49636 3.76071 6.5102C3.73809 6.79422 3.72159 7.00155 3.68132 7.20552C3.58941 7.67109 3.40603 8.1138 3.14182 8.50801C3.02644 8.68015 2.892 8.83791 2.70806 9.05376L2.70627 9.05585C2.69728 9.06641 2.68815 9.07708 2.67891 9.08797C2.11587 9.74863 1.94193 9.96335 1.84459 10.167C1.59279 10.6937 1.59279 11.3062 1.84459 11.833C1.94193 12.0366 2.11587 12.2513 2.67891 12.912C2.68816 12.9229 2.69728 12.9336 2.70628 12.9441L2.70884 12.9471C2.89237 13.1625 3.0266 13.32 3.14182 13.4919C3.40603 13.8862 3.58941 14.3289 3.68132 14.7944C3.72159 14.9984 3.73809 15.2057 3.76071 15.4897C3.76181 15.5036 3.76292 15.5177 3.76406 15.5319C3.83311 16.3971 3.86192 16.6719 3.93711 16.8848C4.13156 17.4353 4.56462 17.8684 5.11517 18.0629C5.32803 18.1381 5.60282 18.1669 6.46813 18.2359L6.51019 18.2393C6.79423 18.2618 7.00156 18.2783 7.20552 18.3186C7.67109 18.4106 8.1138 18.5939 8.50801 18.8582C8.67977 18.9732 8.83721 19.1074 9.05231 19.2906L9.05585 19.2936L9.08797 19.321C9.74863 19.8841 9.96335 20.058 10.167 20.1554C10.6937 20.4072 11.3062 20.4072 11.833 20.1554C12.0366 20.058 12.2513 19.8841 12.912 19.321L12.9442 19.2936L12.9471 19.2912C13.1625 19.1076 13.32 18.9734 13.4919 18.8582C13.8862 18.5939 14.3289 18.4106 14.7944 18.3186C14.9984 18.2783 15.2057 18.2618 15.4897 18.2393L15.5319 18.2359C16.3971 18.1669 16.6719 18.1381 16.8848 18.0629C17.4353 17.8684 17.8684 17.4353 18.0629 16.8848C18.1381 16.6719 18.1669 16.3971 18.2359 15.5319L18.2393 15.4897C18.2618 15.2057 18.2783 14.9984 18.3186 14.7944C18.4106 14.3289 18.5939 13.8862 18.8582 13.4919C18.9734 13.32 19.1076 13.1625 19.2912 12.9471L19.2936 12.9442L19.321 12.912C19.8841 12.2513 20.058 12.0366 20.1554 11.833C20.4072 11.3062 20.4072 10.6937 20.1554 10.167C20.058 9.96335 19.8841 9.74863 19.321 9.08797L19.2936 9.05574L19.292 9.0538C19.108 8.83799 18.9735 8.68018 18.8582 8.50801C18.5939 8.1138 18.4106 7.67109 18.3186 7.20552C18.2783 7.00155 18.2618 6.79423 18.2393 6.51019L18.2359 6.46813C18.1669 5.60282 18.1381 5.32803 18.0629 5.11517C17.8684 4.56462 17.4353 4.13156 16.8848 3.93711C16.6719 3.86192 16.3971 3.83311 15.5319 3.76406C15.5177 3.76292 15.5036 3.76181 15.4897 3.76071C15.2057 3.73809 14.9984 3.72159 14.7944 3.68132C14.3289 3.58941 13.8862 3.40603 13.4919 3.14182C13.32 3.02657 13.1624 2.89231 12.947 2.70869L12.9441 2.70627C12.9336 2.69728 12.9229 2.68815 12.912 2.67891C12.2513 2.11587 12.0366 1.94193 11.833 1.84459Z" fill="white"/>
<path fill-rule="evenodd" clip-rule="evenodd" d="M11.833 1.84459C11.3062 1.59279 10.6937 1.59279 10.167 1.84459C9.96335 1.94193 9.74863 2.11587 9.08797 2.67891L9.05585 2.70628L9.0536 2.70821C8.83783 2.89207 8.68011 3.02647 8.50801 3.14182C8.1138 3.40603 7.67109 3.58941 7.20552 3.68132C7.00155 3.72159 6.79422 3.73809 6.5102 3.76071L6.46813 3.76406C5.60282 3.83311 5.32803 3.86192 5.11517 3.93711C4.56462 4.13156 4.13156 4.56462 3.93711 5.11517C3.86192 5.32803 3.83311 5.60282 3.76406 6.46813L3.76071 6.5102C3.73809 6.79422 3.72159 7.00155 3.68132 7.20552C3.58941 7.67109 3.40603 8.1138 3.14182 8.50801C3.02644 8.68015 2.892 8.83791 2.70806 9.05376L2.70627 9.05585L2.67891 9.08797C2.11587 9.74863 1.94193 9.96335 1.84459 10.167C1.59279 10.6937 1.59279 11.3062 1.84459 11.833C1.94193 12.0366 2.11587 12.2513 2.67891 12.912L2.70628 12.9441L2.70884 12.9471C2.89237 13.1625 3.0266 13.32 3.14182 13.4919C3.40603 13.8862 3.58941 14.3289 3.68132 14.7944C3.72159 14.9984 3.73809 15.2057 3.76071 15.4897L3.76406 15.5319C3.83311 16.3971 3.86192 16.6719 3.93711 16.8848C4.13156 17.4353 4.56462 17.8684 5.11517 18.0629C5.32803 18.1381 5.60282 18.1669 6.46813 18.2359L6.51019 18.2393C6.79423 18.2618 7.00156 18.2783 7.20552 18.3186C7.67109 18.4106 8.1138 18.5939 8.50801 18.8582C8.67977 18.9732 8.83721 19.1074 9.05231 19.2906L9.05585 19.2936L9.08797 19.321C9.74863 19.8841 9.96335 20.058 10.167 20.1554C10.6937 20.4072 11.3062 20.4072 11.833 20.1554C12.0366 20.058 12.2513 19.8841 12.912 19.321L12.9442 19.2936L12.9471 19.2912C13.1625 19.1076 13.32 18.9734 13.4919 18.8582C13.8862 18.5939 14.3289 18.4106 14.7944 18.3186C14.9984 18.2783 15.2057 18.2618 15.4897 18.2393L15.5319 18.2359C16.3971 18.1669 16.6719 18.1381 16.8848 18.0629C17.4353 17.8684 17.8684 17.4353 18.0629 16.8848C18.1381 16.6719 18.1669 16.3971 18.2359 15.5319L18.2393 15.4897C18.2618 15.2057 18.2783 14.9984 18.3186 14.7944C18.4106 14.3289 18.5939 13.8862 18.8582 13.4919C18.9734 13.32 19.1076 13.1625 19.2912 12.9471L19.2936 12.9442L19.321 12.912C19.8841 12.2513 20.058 12.0366 20.1554 11.833C20.4072 11.3062 20.4072 10.6937 20.1554 10.167C20.058 9.96335 19.8841 9.74863 19.321 9.08797L19.2936 9.05574L19.292 9.0538C19.108 8.83799 18.9735 8.68018 18.8582 8.50801C18.5939 8.1138 18.4106 7.67109 18.3186 7.20552C18.2783 7.00155 18.2618 6.79423 18.2393 6.51019L18.2359 6.46813C18.1669 5.60282 18.1381 5.32803 18.0629 5.11517C17.8684 4.56462 17.4353 4.13156 16.8848 3.93711C16.6719 3.86192 16.3971 3.83311 15.5319 3.76406L15.4897 3.76071C15.2057 3.73809 14.9984 3.72159 14.7944 3.68132C14.3289 3.58941 13.8862 3.40603 13.4919 3.14182C13.32 3.02657 13.1624 2.89231 12.947 2.70869L12.9441 2.70627L12.912 2.67891C12.2513 2.11587 12.0366 1.94193 11.833 1.84459ZM14.8972 8.27364C15.2205 7.95034 15.2205 7.42616 14.8972 7.10286C14.5739 6.77956 14.0498 6.77956 13.7265 7.10286L7.1035 13.7258C6.7802 14.0491 6.7802 14.5733 7.1035 14.8966C7.4268 15.2199 7.95098 15.2199 8.27429 14.8966L14.8972 8.27364ZM13.7598 14.8634C14.3695 14.8634 14.8637 14.3691 14.8637 13.7595C14.8637 13.1499 14.3695 12.6557 13.7598 12.6557C13.1502 12.6557 12.656 13.1499 12.656 13.7595C12.656 14.3691 13.1502 14.8634 13.7598 14.8634ZM8.24071 9.34423C8.85032 9.34423 9.34455 8.85 9.34455 8.24039C9.34455 7.63076 8.85032 7.13656 8.24071 7.13656C7.63108 7.13656 7.13689 7.63076 7.13689 8.24039C7.13689 8.85 7.63108 9.34423 8.24071 9.34423Z" fill="white"/>
</svg>
