<svg width="12" height="16" viewBox="0 0 12 16" fill="none" xmlns="http://www.w3.org/2000/svg">
<path d="M11.4961 8.39941C11.4961 8.62728 11.4072 8.83008 11.2295 9.00781L6.75195 13.499C6.66992 13.5856 6.57194 13.6517 6.45801 13.6973C6.34863 13.7428 6.2347 13.7656 6.11621 13.7656C6.00228 13.7656 5.89062 13.7428 5.78125 13.6973C5.67188 13.6517 5.57389 13.5856 5.4873 13.499L1.00977 9.00781C0.832031 8.83008 0.743164 8.62728 0.743164 8.39941C0.743164 8.15788 0.820638 7.95964 0.975586 7.80469C1.13053 7.64974 1.32422 7.57227 1.55664 7.57227C1.67969 7.57227 1.79134 7.59733 1.8916 7.64746C1.99186 7.69303 2.08073 7.75456 2.1582 7.83203L3.70312 9.36328L5.86328 11.7969L5.36426 12.084L5.26855 9.71191V1.60449C5.26855 1.34928 5.34603 1.13965 5.50098 0.975586C5.66048 0.811523 5.86556 0.729492 6.11621 0.729492C6.37142 0.729492 6.5765 0.811523 6.73145 0.975586C6.89095 1.13965 6.9707 1.34928 6.9707 1.60449V9.71191L6.875 12.084L6.37598 11.7969L8.53613 9.36328L10.0742 7.83203C10.1517 7.75456 10.2406 7.69303 10.3408 7.64746C10.4456 7.59733 10.5596 7.57227 10.6826 7.57227C10.915 7.57227 11.1087 7.64974 11.2637 7.80469C11.4186 7.95964 11.4961 8.15788 11.4961 8.39941ZM11.4961 14.5928C11.4961 14.8252 11.4186 15.0212 11.2637 15.1807C11.1087 15.3402 10.915 15.4199 10.6826 15.4199H1.56348C1.33105 15.4199 1.13509 15.3402 0.975586 15.1807C0.820638 15.0212 0.743164 14.8252 0.743164 14.5928C0.743164 14.3558 0.820638 14.1576 0.975586 13.998C1.13509 13.8431 1.33105 13.7656 1.56348 13.7656H10.6826C10.915 13.7656 11.1087 13.8431 11.2637 13.998C11.4186 14.1576 11.4961 14.3558 11.4961 14.5928Z" fill="white"/>
</svg>
