<svg width="20" height="24" viewBox="0 0 20 24" fill="none" xmlns="http://www.w3.org/2000/svg">
<path d="M16.3209 12.7504C16.3546 16.3824 19.507 17.5911 19.542 17.6065C19.5153 17.6917 19.0383 19.3288 17.8811 21.0199C16.8808 22.482 15.8426 23.9386 14.2071 23.9688C12.6001 23.9984 12.0834 23.0158 10.2462 23.0158C8.40945 23.0158 7.83533 23.9386 6.31413 23.9984C4.7355 24.0582 3.53334 22.4175 2.52476 20.9608C0.463763 17.9811 -1.11127 12.5409 1.0036 8.86873C2.05422 7.0451 3.93176 5.8903 5.96966 5.86069C7.51984 5.83112 8.98297 6.9036 9.93066 6.9036C10.8777 6.9036 12.6558 5.61385 14.525 5.80327C15.3075 5.83584 17.5041 6.11936 18.9145 8.18392C18.8009 8.25437 16.2936 9.71399 16.3209 12.7504ZM13.3007 3.83196C14.1388 2.81747 14.7029 1.4052 14.549 0C13.3409 0.0485541 11.8801 0.805021 11.0136 1.81896C10.237 2.71684 9.55692 4.15397 9.74043 5.53135C11.087 5.63553 12.4625 4.8471 13.3007 3.83196Z" fill="black"/>
</svg>
