<svg width="24" height="24" viewBox="0 0 24 24" fill="none" xmlns="http://www.w3.org/2000/svg">
<path d="M23 12.4601C23 11.6937 22.9148 10.9274 22.8297 10.1611H12.1865V14.5035H18.2318C17.9764 15.8659 17.2101 17.143 16.0181 17.9094V20.7191H19.6793C21.8079 18.7608 23 15.8659 23 12.4601Z" fill="#4285F4"/>
<path d="M12.1868 23.444C15.252 23.444 17.8064 22.4223 19.6796 20.7194L16.0183 17.9096C14.9966 18.5908 13.7194 19.0165 12.1868 19.0165C9.29185 19.0165 6.73749 17.0581 5.88604 14.3335H2.13965V17.2284C4.09799 21.06 7.92953 23.444 12.1868 23.444Z" fill="#34A853"/>
<path d="M5.88549 14.3335C5.37462 12.9712 5.37462 11.4386 5.88549 9.99113V7.09619H2.1391C0.521341 10.2466 0.521341 13.993 2.1391 17.2285L5.88549 14.3335Z" fill="#FBBC04"/>
<path d="M12.1866 5.39356C13.8044 5.39356 15.337 5.98958 16.529 7.09647L19.7645 3.86095C17.7211 1.98775 14.9964 0.880861 12.2718 0.966007C8.01449 0.966007 4.09781 3.35007 2.22461 7.18161L5.971 10.0766C6.73731 7.3519 9.29167 5.39356 12.1866 5.39356Z" fill="#EA4335"/>
</svg>
