<svg width="20" height="22" viewBox="0 0 20 22" fill="none" xmlns="http://www.w3.org/2000/svg">
<path d="M10.0001 7L13.5556 9M10.0001 7L6.44452 9M10.0001 7L10.0001 4.75M13.5556 9V13M13.5556 9L15.4127 7.87501M13.5556 13L10.0001 15M13.5556 13L15.4126 14.125M10.0001 15L6.44452 13M10.0001 15L10.0001 17.25M6.44452 13V9M6.44452 13L4.58742 14.125M6.44452 9L4.58751 7.87501M10.0001 4.75V1M10.0001 4.75L12.5001 2.25M10.0001 4.75L7.5001 2.25M10.0001 17.25V21M10.0001 17.25L12.5001 19.75M10.0001 17.25L7.50013 19.75M15.4127 7.87501L18.6603 6.00001L19.0001 5.80384M15.4127 7.87501L18.8278 8.79007M15.4127 7.87501L16.3278 4.45996M4.58742 14.125L1.33982 16L0.999904 16.1962M4.58742 14.125L3.67235 17.5401M4.58742 14.125L1.17236 13.21M4.58751 7.87501L1.33991 6.00001L1.00017 5.80384M4.58751 7.87501L1.17244 8.79007M4.58751 7.87501L3.67243 4.45996M15.4126 14.125L18.6602 16L19 16.1962M15.4126 14.125L16.3277 17.5401M15.4126 14.125L18.8277 13.21" stroke="black" stroke-width="1.5" stroke-linecap="round"/>
</svg>
