<svg width="18" height="18" viewBox="0 0 18 18" fill="none" xmlns="http://www.w3.org/2000/svg">
<path d="M11.43 1.5H8.50935C7.18619 1.49999 6.13813 1.49998 5.3179 1.6107C4.47376 1.72465 3.79051 1.96473 3.25169 2.50572C2.71288 3.0467 2.47375 3.73269 2.36026 4.58023C2.24998 5.40375 2.24999 6.45602 2.25 7.78448V12.1627C2.25 13.2937 2.93996 14.2631 3.92038 14.6694C3.86992 13.9874 3.86996 13.0303 3.87 12.234V8.5482V8.4768C3.86995 7.51552 3.86989 6.68733 3.95871 6.02408C4.05389 5.31329 4.26854 4.63194 4.81898 4.0793C5.36941 3.52664 6.04803 3.31114 6.75599 3.21557C7.41658 3.12641 8.24152 3.12645 9.1989 3.1265L9.27 3.12651H11.43L11.5011 3.1265C12.4585 3.12645 13.2816 3.12641 13.9422 3.21557C13.547 2.21084 12.5712 1.5 11.43 1.5Z" fill="black" fill-opacity="0.3"/>
<path d="M4.9502 8.54829C4.9502 6.50363 4.9502 5.48132 5.58284 4.84613C6.21549 4.21094 7.23373 4.21094 9.2702 4.21094H11.4302C13.4667 4.21094 14.4849 4.21094 15.1176 4.84613C15.7502 5.48132 15.7502 6.50364 15.7502 8.54829V12.1628C15.7502 14.2074 15.7502 15.2297 15.1176 15.8649C14.4849 16.5001 13.4667 16.5001 11.4302 16.5001H9.2702C7.23373 16.5001 6.21549 16.5001 5.58284 15.8649C4.9502 15.2297 4.9502 14.2074 4.9502 12.1628V8.54829Z" fill="black" fill-opacity="0.3"/>
</svg>
