<svg width="18" height="18" viewBox="0 0 18 18" fill="none" xmlns="http://www.w3.org/2000/svg">
<path d="M8.99591 14.5703C8.16298 14.5703 7.37378 14.4703 6.6283 14.2704C5.88699 14.0705 5.2019 13.8039 4.57304 13.4708C3.94417 13.1376 3.37778 12.7711 2.87386 12.3713C2.37409 11.9673 1.94513 11.5654 1.58697 11.1656C1.23298 10.7658 0.962277 10.3952 0.774867 10.0537C0.591623 9.708 0.5 9.43105 0.5 9.22282C0.5 9.01042 0.591623 8.73347 0.774867 8.39197C0.962277 8.05046 1.23298 7.67773 1.58697 7.27375C1.94513 6.86978 2.37409 6.46997 2.87386 6.07433C3.37778 5.67452 3.94417 5.30804 4.57304 4.97486C5.2019 4.64169 5.88699 4.37515 6.6283 4.17524C7.37378 3.97117 8.16298 3.86914 8.99591 3.86914C9.84132 3.86914 10.6368 3.97117 11.3823 4.17524C12.1278 4.37515 12.8149 4.64169 13.4438 4.97486C14.0768 5.30804 14.6411 5.67452 15.1367 6.07433C15.6365 6.46997 16.0613 6.86978 16.4111 7.27375C16.7651 7.67773 17.0337 8.05046 17.217 8.39197C17.4002 8.73347 17.4918 9.01042 17.4918 9.22282C17.4918 9.43105 17.4002 9.708 17.217 10.0537C17.0337 10.3952 16.7651 10.7658 16.4111 11.1656C16.0613 11.5654 15.6386 11.9673 15.1429 12.3713C14.6474 12.7711 14.0831 13.1376 13.45 13.4708C12.8212 13.8039 12.1319 14.0705 11.3823 14.2704C10.6368 14.4703 9.84132 14.5703 8.99591 14.5703ZM8.99591 12.6524C9.47064 12.6524 9.91425 12.565 10.3266 12.39C10.743 12.211 11.1074 11.9632 11.4197 11.6467C11.7363 11.3301 11.982 10.9657 12.1569 10.5534C12.336 10.1411 12.4255 9.69759 12.4255 9.22282C12.4255 8.74804 12.336 8.30451 12.1569 7.8922C11.982 7.4799 11.7363 7.1155 11.4197 6.79898C11.1074 6.48247 10.743 6.23675 10.3266 6.06183C9.91425 5.88275 9.47064 5.79321 8.99591 5.79321C8.52531 5.79321 8.08177 5.88275 7.6653 6.06183C7.253 6.23675 6.88859 6.48247 6.57208 6.79898C6.25973 7.1155 6.01401 7.4799 5.83493 7.8922C5.65585 8.30451 5.56631 8.74804 5.56631 9.22282C5.56631 9.69759 5.65585 10.1411 5.83493 10.5534C6.01401 10.9657 6.25973 11.3301 6.57208 11.6467C6.88859 11.9632 7.253 12.211 7.6653 12.39C8.08177 12.565 8.52531 12.6524 8.99591 12.6524ZM8.99591 10.5097C8.64194 10.5097 8.33998 10.3848 8.09009 10.1349C7.84022 9.885 7.71528 9.58098 7.71528 9.22282C7.71528 8.86466 7.84022 8.56063 8.09009 8.31075C8.33998 8.06087 8.64194 7.93593 8.99591 7.93593C9.34987 7.93593 9.6518 8.06087 9.90171 8.31075C10.1558 8.56063 10.2828 8.86466 10.2828 9.22282C10.2828 9.58098 10.1558 9.885 9.90171 10.1349C9.6518 10.3848 9.34987 10.5097 8.99591 10.5097Z" fill="white"/>
</svg>
