<?xml version="1.0" encoding="utf-8"?><svg viewBox="0 0 29 24" xmlns="http://www.w3.org/2000/svg" xmlns:xlink="http://www.w3.org/1999/xlink"><style>:root>svg{display:none}:root>svg:target{display:block}</style><svg viewBox="0 0 29 24" id="header-more-btn" xmlns="http://www.w3.org/2000/svg"><path d="M14.54 23.831c-1.292 0-2.528-.202-3.705-.607A11.868 11.868 0 017.6 21.54a12 12 0 01-4.258-5.807 11.45 11.45 0 01-.598-3.696c0-1.293.2-2.525.598-3.697.399-1.177.96-2.258 1.685-3.243.731-.984 1.586-1.839 2.564-2.564A11.73 11.73 0 0110.826.838 11.322 11.322 0 0114.53.231c1.292 0 2.527.203 3.705.607 1.178.399 2.26.963 3.244 1.694a12 12 0 012.563 2.564c.731.985 1.296 2.066 1.695 3.243.404 1.172.607 2.404.607 3.697 0 1.286-.203 2.518-.607 3.696a11.697 11.697 0 01-1.695 3.243 12 12 0 01-2.563 2.564 11.831 11.831 0 01-3.244 1.685 11.244 11.244 0 01-3.696.607zm0-1.685c1.123 0 2.19-.172 3.198-.516a10.028 10.028 0 002.781-1.432 10.02 10.02 0 002.193-2.183 10.044 10.044 0 001.939-5.98 9.99 9.99 0 00-1.948-5.979 9.936 9.936 0 00-2.193-2.192 10.029 10.029 0 00-5.98-1.939c-1.116 0-2.182.17-3.197.508a10.061 10.061 0 00-4.956 3.623 10.03 10.03 0 00-1.938 5.98 10.046 10.046 0 001.938 5.979c.622.84 1.353 1.567 2.193 2.183.84.616 1.763 1.093 2.772 1.432a9.884 9.884 0 003.198.516zm-5.427-8.489c-.447 0-.83-.157-1.15-.47a1.58 1.58 0 01-.48-1.16c0-.453.16-.837.48-1.15.32-.321.703-.481 1.15-.481.447 0 .83.16 1.15.48.321.314.481.698.481 1.15 0 .454-.16.84-.48 1.16a1.566 1.566 0 01-1.15.471zm5.418 0c-.453 0-.84-.157-1.16-.47a1.595 1.595 0 01-.47-1.16c0-.453.156-.837.47-1.15.32-.321.707-.481 1.16-.481.447 0 .83.16 1.15.48.32.314.48.698.48 1.15 0 .454-.16.84-.48 1.16-.32.314-.703.471-1.15.471zm5.417 0c-.453 0-.839-.157-1.16-.47a1.58 1.58 0 01-.48-1.16c0-.453.16-.837.48-1.15.321-.321.707-.481 1.16-.481.447 0 .83.16 1.151.48.32.314.48.698.48 1.15 0 .454-.16.84-.48 1.16-.32.314-.704.471-1.15.471z"/></svg><svg viewBox="0 0 12 20" id="return" xmlns="http://www.w3.org/2000/svg"><path d="M.644 10.276c.006-.2.046-.382.12-.548.074-.165.188-.325.342-.479L9.68.95c.245-.244.547-.367.907-.367.24 0 .456.057.65.171.2.114.357.268.47.462a1.28 1.28 0 01-.223 1.583l-7.75 7.47 7.751 7.478c.268.273.402.584.402.932 0 .245-.06.465-.18.659-.114.194-.27.348-.47.462-.194.12-.41.18-.65.18-.36 0-.662-.126-.907-.377l-8.574-8.3a1.56 1.56 0 01-.35-.478 1.362 1.362 0 01-.112-.548z"/></svg><svg viewBox="0 0 16 16" id="tooltip" xmlns="http://www.w3.org/2000/svg"><g clip-path="url(#cclip0_712_1791)"><path d="M8.128 15.702a7.425 7.425 0 01-2.988-.605 7.831 7.831 0 01-2.457-1.653 7.742 7.742 0 01-1.653-2.45 7.505 7.505 0 01-.597-2.988c0-1.063.199-2.059.597-2.988A7.77 7.77 0 015.14.908 7.505 7.505 0 018.128.31c1.063 0 2.059.2 2.989.598.93.398 1.746.952 2.45 1.66a7.743 7.743 0 011.652 2.45c.403.93.605 1.925.605 2.988a7.427 7.427 0 01-.605 2.988 7.742 7.742 0 01-4.102 4.103 7.426 7.426 0 01-2.989.605zm0-1.69a5.933 5.933 0 004.243-1.756 6.131 6.131 0 001.291-1.919 5.811 5.811 0 00.472-2.331c0-.832-.157-1.609-.472-2.332a6.021 6.021 0 00-1.291-1.918A5.936 5.936 0 008.128 2c-.831 0-1.61.155-2.339.465a6.044 6.044 0 00-3.202 3.21c-.31.722-.465 1.5-.465 2.33 0 .827.155 1.604.465 2.332a6.04 6.04 0 003.202 3.21c.728.31 1.508.465 2.34.465zm0-4.855c-.462 0-.703-.231-.723-.694L7.302 5.1a.71.71 0 01.214-.568c.152-.153.354-.23.605-.23.246 0 .445.077.598.23a.71.71 0 01.221.575l-.11 3.35c-.02.467-.254.7-.702.7zm0 2.479a.97.97 0 01-.656-.236.765.765 0 01-.266-.598c0-.246.089-.447.266-.605a.953.953 0 01.656-.243c.256 0 .47.078.642.236a.781.781 0 01.266.612.773.773 0 01-.266.605.95.95 0 01-.642.229z"/></g><defs><clipPath id="cclip0_712_1791"><path d="M0 0h16v16H0z"/></clipPath></defs></svg></svg>