<svg width="32" height="32" viewBox="0 0 32 32" fill="none" xmlns="http://www.w3.org/2000/svg">
<path d="M16.1664 25.6775C14.841 25.6775 13.5984 25.426 12.4387 24.9229C11.279 24.4257 10.2573 23.7385 9.3737 22.861C8.49624 21.9836 7.80898 20.965 7.31195 19.8053C6.81492 18.6455 6.56641 17.403 6.56641 16.0776C6.56641 14.7522 6.81492 13.5096 7.31195 12.3498C7.80898 11.1901 8.49624 10.1715 9.3737 9.29404C10.2573 8.41043 11.279 7.72011 12.4387 7.22308C13.5984 6.72605 14.841 6.47754 16.1664 6.47754C17.4918 6.47754 18.7344 6.72605 19.8942 7.22308C21.0539 7.72011 22.0725 8.41043 22.95 9.29404C23.8275 10.1715 24.5147 11.1901 25.0117 12.3498C25.5148 13.5096 25.7665 14.7522 25.7665 16.0776C25.7665 17.403 25.5148 18.6455 25.0117 19.8053C24.5147 20.965 23.8275 21.9836 22.95 22.861C22.0725 23.7385 21.0539 24.4257 19.8942 24.9229C18.7344 25.426 17.4918 25.6775 16.1664 25.6775ZM16.1664 23.5698C17.2034 23.5698 18.173 23.3766 19.075 22.9899C19.9831 22.6033 20.7778 22.0665 21.4589 21.3793C22.1461 20.6858 22.683 19.8881 23.0697 18.9861C23.4623 18.078 23.6587 17.1084 23.6587 16.0776C23.6587 15.0406 23.4623 14.071 23.0697 13.169C22.683 12.2609 22.1461 11.4632 21.4589 10.7759C20.7778 10.0887 19.9831 9.55175 19.075 9.16517C18.173 8.77859 17.2034 8.58531 16.1664 8.58531C15.1294 8.58531 14.1568 8.77859 13.2487 9.16517C12.3467 9.55175 11.552 10.0887 10.8648 10.7759C10.1775 11.4632 9.64062 12.2609 9.25404 13.169C8.86747 14.071 8.67418 15.0406 8.67418 16.0776C8.67418 17.1084 8.86747 18.078 9.25404 18.9861C9.64062 19.8881 10.1775 20.6858 10.8648 21.3793C11.552 22.0665 12.3467 22.6033 13.2487 22.9899C14.1568 23.3766 15.1294 23.5698 16.1664 23.5698ZM11.822 17.4858C11.4293 17.4858 11.0949 17.3477 10.8188 17.0716C10.5426 16.7955 10.4046 16.4611 10.4046 16.0684C10.4046 15.6756 10.5426 15.3412 10.8188 15.0651C11.0949 14.789 11.4293 14.6509 11.822 14.6509C12.2086 14.6509 12.54 14.789 12.8161 15.0651C13.0983 15.3412 13.2395 15.6756 13.2395 16.0684C13.2395 16.4611 13.1014 16.7955 12.8253 17.0716C12.5492 17.3477 12.2147 17.4858 11.822 17.4858ZM16.1572 17.4858C15.7706 17.4858 15.4362 17.3477 15.154 17.0716C14.8778 16.7955 14.7398 16.4611 14.7398 16.0684C14.7398 15.6756 14.8778 15.3412 15.154 15.0651C15.4362 14.789 15.7706 14.6509 16.1572 14.6509C16.5438 14.6509 16.8752 14.789 17.1513 15.0651C17.4335 15.3412 17.5747 15.6756 17.5747 16.0684C17.5747 16.4611 17.4335 16.7955 17.1513 17.0716C16.8752 17.3477 16.5438 17.4858 16.1572 17.4858ZM20.4924 17.4858C20.0997 17.4858 19.7654 17.3477 19.4892 17.0716C19.213 16.7955 19.075 16.4611 19.075 16.0684C19.075 15.6756 19.213 15.3412 19.4892 15.0651C19.7654 14.789 20.0997 14.6509 20.4924 14.6509C20.8852 14.6509 21.2195 14.789 21.4957 15.0651C21.7718 15.3412 21.9098 15.6756 21.9098 16.0684C21.9098 16.4611 21.7718 16.7955 21.4957 17.0716C21.2195 17.3477 20.8852 17.4858 20.4924 17.4858Z" fill="#165AEA"/>
</svg>
