<svg width="92" height="92" viewBox="0 0 92 92" fill="none" xmlns="http://www.w3.org/2000/svg">
<g clip-path="url(#clip0_954_1945)">
<mask id="mask0_954_1945" style="mask-type:luminance" maskUnits="userSpaceOnUse" x="-1" y="-1" width="93" height="93">
<path d="M91.998 -0.00195312H-0.00195312V91.998H91.998V-0.00195312Z" fill="white"/>
</mask>
<g mask="url(#mask0_954_1945)">
<path d="M9.30258 33.8758C7.29439 33.5801 5.29095 27.6895 5.92799 21.6731C6.27725 18.3738 10.6634 13.3359 22.2522 10.2661C36.1769 6.57769 55.4604 6.98169 65.918 9.67693C75.5279 12.154 84.4964 16.3933 85.0367 22.7562C85.5773 29.119 83.4112 33.3876 82.6475 33.7341C80.497 34.7095 66.8423 32.0556 64.2158 27.9813C62.9299 25.9863 64.0925 20.9971 62.447 19.3164C60.4283 17.2549 42.6903 14.6498 29.2386 19.0808C26.7598 19.8973 28.578 25.138 27.7249 27.2338C26.4959 30.253 14.4017 34.6265 9.30258 33.8758Z" fill="#C90030"/>
<path d="M64.2139 27.5812C62.9284 25.5197 64.0906 20.3664 62.4457 18.63C60.4272 16.4992 42.6896 13.8078 29.2373 18.3853C26.7595 19.2301 28.5777 24.6431 27.723 26.8094C26.4948 29.9288 14.9639 32.783 13.9239 33.0921C4.1383 35.9998 6.72918 22.7197 13.9525 18.0131C20.814 13.5423 30.5616 12.2475 40.6067 11.464C53.5601 10.4533 62.6121 12.6776 67.7887 14.4764C73.8026 16.5665 76.5376 18.2238 79.082 20.3753C84.8279 25.2337 85.6156 36.121 77.6089 33.3862C77.6089 33.3862 66.8404 31.7905 64.2139 27.5812Z" fill="#E6080B"/>
<g opacity="0.45">
<path d="M13.7676 33.8223C16.1238 33.5056 23.9435 29.3167 24.711 25.7998C25.7092 21.2268 24.8855 16.705 33.0885 17.3773C33.0885 17.3773 27.6547 18.7267 27.7336 21.6893C27.8128 24.652 28.6041 27.756 26.6558 28.8939C24.7075 30.032 13.7676 33.8223 13.7676 33.8223Z" fill="#6B0017"/>
</g>
<g opacity="0.45">
<path d="M77.7008 33.8211C75.3447 33.5045 67.7245 29.9479 66.7573 25.7987C65.6096 20.8749 65.6481 16.8885 58.3799 16.9063C58.3799 16.9063 63.8137 18.7255 63.7348 21.6882C63.6557 24.6509 62.8643 27.7549 64.8128 28.8928C66.7609 30.0309 77.7008 33.8211 77.7008 33.8211Z" fill="#6B0017"/>
</g>
<path d="M9.30263 33.8758C7.36204 33.2803 5.291 27.6895 5.92805 21.6731C6.27731 18.3738 10.6635 13.3359 22.2523 10.2661C36.177 6.57769 55.4605 6.98169 65.9181 9.67693C75.5279 12.154 84.4964 16.3933 85.0368 22.7562C85.5774 29.119 83.3915 33.3471 82.6475 33.7341C79.8582 35.1843 66.8423 32.0556 64.2159 27.9813C62.9299 25.9863 64.0925 20.9971 62.4471 19.3164C60.4284 17.2549 42.6903 14.6498 29.2386 19.0808C26.7598 19.8973 28.5781 25.138 27.725 27.2338C26.496 30.2529 13.5663 35.1843 9.30263 33.8758Z" stroke="#990021" stroke-width="1.58125" stroke-linecap="round" stroke-linejoin="round"/>
<path d="M74.4773 32.9681C70.201 31.9408 65.6217 30.1645 64.2134 27.9798C62.9274 25.9849 64.09 20.9956 62.4446 19.315C60.4259 17.2534 42.6878 14.6483 29.2361 19.0794C26.7573 19.8959 28.5756 25.1365 27.7225 27.2323C27.0303 28.9327 22.8918 31.0627 18.4971 32.465" stroke="#6B0017" stroke-width="1.58125" stroke-linecap="round" stroke-linejoin="round"/>
<g opacity="0.7">
<path d="M12.9108 18.8351C14.8544 16.8755 23.322 12.2275 43.1892 11.322C61.8792 10.4701 76.109 16.7026 80.1535 21.3635C80.8389 22.1537 82.9659 27.6336 80.602 27.7968C78.1307 27.9676 70.6051 26.2905 68.5514 23.7073C67.6804 22.6117 68.7612 19.0503 65.6459 16.8896C61.0368 13.6923 53.0447 12.4868 43.4007 12.8558C36.8622 13.1058 33.7636 13.8476 29.2398 15.1032C27.8857 15.4789 24.3273 17.7541 22.8089 20.4563C20.3557 24.8215 13.063 27.0914 10.8742 26.9194C9.27079 26.7935 8.74977 23.0309 12.9108 18.8351Z" fill="url(#paint0_linear_954_1945)"/>
</g>
<path d="M61.7646 18.376L61.5437 18.5695L59.541 29.1977L62.2094 29.84L61.7646 18.376Z" fill="#AB021E"/>
<path d="M61.7646 18.376L61.5437 18.5695L59.541 29.1977L62.2094 29.84L61.7646 18.376Z" stroke="#7D001A" stroke-width="1.58125" stroke-linecap="round" stroke-linejoin="round"/>
<path d="M55.9075 19.3408C55.9075 19.3408 58.2756 22.8012 45.8011 22.8012C39.1067 22.8012 35.5969 21.8947 35.5969 19.3408C35.5969 19.3408 27.0491 29.5116 35.5969 29.5116H56.4269C60.0843 29.5116 62.5995 24.4647 55.9075 19.3408Z" fill="#B2042A"/>
<path d="M55.9075 19.3408C55.9075 19.3408 58.2756 22.8012 45.8011 22.8012C39.1067 22.8012 35.5969 21.8947 35.5969 19.3408C35.5969 19.3408 27.0491 29.5116 35.5969 29.5116H56.4269C60.0843 29.5116 62.5995 24.4647 55.9075 19.3408Z" stroke="#84032B" stroke-width="1.58125" stroke-linecap="round" stroke-linejoin="round"/>
<path d="M62.3404 19.0562C62.2094 17.0652 56.0079 17.3428 55.9091 19.0562V24.756C55.9091 29.147 35.5985 28.9987 35.5985 24.756V19.0562C35.3528 16.6527 29.3243 16.8937 29.167 19.0562V28.6384H62.3404V19.0562Z" fill="#E6080B"/>
<path d="M62.3408 26.319C59.7377 25.9751 56.221 26.8221 55.9032 24.9434C56.6758 29.5122 35.79 28.9676 35.6056 24.9434C33.7714 25.4592 31.7711 25.9749 29.168 26.3188V28.6393L62.3408 28.6395V26.319Z" fill="#CC0022"/>
<path d="M29.167 21.5798C29.167 21.5798 29.3729 19.002 30.0879 18.6039C30.4073 18.4262 31.3106 18.4323 32.3066 18.4373C33.3767 18.4422 34.5419 18.4634 34.8512 18.7774C35.2955 19.2291 35.5985 21.9121 35.5985 21.9121" stroke="#F38B8B" stroke-width="1.58125" stroke-linecap="round" stroke-linejoin="round"/>
<path d="M55.9082 21.758C55.9082 21.758 56.486 19.0244 56.9273 18.7226C57.3687 18.4205 60.7709 18.5368 61.2819 18.7226C61.7928 18.9084 62.3395 22.7998 62.3395 22.7998" stroke="#F38B8B" stroke-width="1.58125" stroke-linecap="round" stroke-linejoin="round"/>
<path d="M62.3404 28.6379V19.0558C62.3404 18.2418 61.6807 17.582 60.8669 17.582H57.3826C56.5689 17.582 55.9091 18.2418 55.9091 19.0558V24.7556C55.9091 25.8239 55.4039 27.6295 52.9385 26.8452H38.5689C36.1035 27.6295 35.5985 25.8239 35.5985 24.7556V19.0558C35.5985 18.2418 34.9388 17.582 34.1248 17.582H30.6407C29.8268 17.582 29.167 18.2418 29.167 19.0558V28.6379H62.3404Z" stroke="#96001D" stroke-width="1.58125" stroke-linecap="round" stroke-linejoin="round"/>
<path d="M75.3545 84.4211H16.4561V79.2002H75.3545V81.3396V84.4211Z" fill="#1E1D1D"/>
<path d="M75.3545 84.4211H16.4561V79.2002H75.3545V81.3396V84.4211Z" stroke="#1E1D1D" stroke-width="1.60497" stroke-linecap="round" stroke-linejoin="round"/>
<path d="M74.8164 30.4864C72.7262 28.153 69.5188 29.5629 62.4382 28.6377C55.358 27.7127 52.7447 25.5088 45.8025 25.5088C38.8604 25.5088 36.2474 27.7127 29.1667 28.6377C22.0865 29.5629 18.8789 28.153 16.7887 30.4864C14.6985 32.8195 6.86556 76.2857 10.2315 81.7952C11.4636 83.8122 80.2753 83.8881 81.3739 81.7952C85.1206 74.6566 74.8164 30.4864 74.8164 30.4864Z" fill="#CC0022"/>
<g opacity="0.3">
<path d="M9.41016 72.6437C9.41016 72.6437 15.6118 33.0164 18.0224 30.9304C19.6594 29.514 25.8407 30.4463 30.6459 29.6338C36.5118 28.6421 40.4839 26.8369 45.3522 26.8369C52.9368 26.8369 56.9022 29.514 63.1153 29.8824C67.5545 30.1455 71.4357 29.7537 73.3636 30.7056C75.7266 31.8724 82.2101 71.7146 82.2101 71.7146" stroke="white" stroke-width="1.58125" stroke-linecap="round" stroke-linejoin="round"/>
</g>
<path d="M81.3754 81.7952C79.8195 83.5751 78.3124 82.674 45.8034 82.674C13.2945 82.674 11.7872 83.5751 10.2314 81.7952C9.59084 81.0625 8.62173 74.6579 11.2646 73.1464C12.8239 72.2546 29.3841 72.7364 45.906 72.7364C62.4295 72.7364 76.7843 73.1464 79.2761 73.1464C82.5355 73.9532 82.8731 77.1299 81.3754 81.7952Z" fill="#EA000C"/>
<path d="M9.51929 79.7826C8.93739 75.4211 9.65745 73.9474 11.2644 73.1441C12.8711 72.3408 76.7843 73.1441 79.2749 73.1441C81.7656 73.1441 82.3345 75.2306 82.1916 79.024" stroke="#F77979" stroke-width="1.58125" stroke-linecap="round" stroke-linejoin="round"/>
<path d="M81.779 68.7799C80.9032 62.4652 76.9075 32.8195 74.8171 30.4864C72.7269 28.153 69.5195 29.5629 62.4389 28.6377C55.3587 27.7127 52.7454 25.5088 45.8032 25.5088C38.8611 25.5088 36.2481 27.7127 29.1674 28.6377C22.0872 29.5629 18.8796 28.153 16.7894 30.4864C14.6992 32.8195 10.7032 62.4652 9.82755 68.7799C8.95193 75.0944 9.13101 80.5357 10.2322 81.7952C11.7881 83.5745 13.2937 82.6733 45.8032 82.6733C78.3131 82.6733 79.8186 83.5745 81.3746 81.7952C82.4757 80.5357 82.6548 75.0944 81.779 68.7799Z" stroke="#990021" stroke-width="1.58125" stroke-linecap="round" stroke-linejoin="round"/>
<path d="M19.8752 33.791L15.7995 66.4183C15.7005 67.2113 16.3187 67.9118 17.1179 67.9118H74.6795C75.482 67.9118 76.1014 67.2059 75.9971 66.4102L71.7166 33.7826C71.6299 33.1215 71.0664 32.627 70.3993 32.627H21.1935C20.5233 32.627 19.9582 33.126 19.8752 33.791Z" fill="#B2042A"/>
<path d="M19.8752 33.791L15.7995 66.4183C15.7005 67.2113 16.3187 67.9118 17.1179 67.9118H74.6795C75.482 67.9118 76.1014 67.2059 75.9971 66.4102L71.7166 33.7826C71.6299 33.1215 71.0664 32.627 70.3993 32.627H21.1935C20.5233 32.627 19.9582 33.126 19.8752 33.791Z" stroke="#99001D" stroke-width="1.58125" stroke-linecap="round" stroke-linejoin="round"/>
<path d="M21.1938 32.627C20.5236 32.627 19.9585 33.126 19.8755 33.791L15.7998 66.4183" stroke="#6B0017" stroke-width="1.58125" stroke-linecap="round" stroke-linejoin="round"/>
<path d="M70.401 32.627H21.1953" stroke="#EF6060" stroke-width="1.58125" stroke-linecap="round" stroke-linejoin="round"/>
<g opacity="0.7">
<path d="M61.6242 64.5258H67.9511C68.5196 64.5258 68.9513 64.1171 68.9066 63.619L68.4435 58.4519C68.3972 57.9208 67.8389 57.3232 67.2449 57.3232L61.567 57.497C60.9733 57.497 61.0557 64.5258 61.6242 64.5258Z" fill="#600111"/>
</g>
<path d="M58.3305 63.7619C58.3366 64.2855 66.4751 64.2855 66.4316 63.7619L65.9811 58.3299C65.9361 57.7715 58.2595 57.7715 58.2656 58.3299L58.3305 63.7619Z" fill="#E2E2E2"/>
<path d="M58.2656 58.3271L59.1043 61.1973C59.1994 61.6381 59.5775 61.97 60.0153 61.97H64.5778C65.0168 61.97 65.3625 61.6351 65.4156 61.1926L65.9809 58.3271" stroke="white" stroke-width="1.58125" stroke-linecap="round" stroke-linejoin="round"/>
<path d="M58.3305 63.7591C58.3366 64.2827 58.7954 64.7128 59.3482 64.7128H65.5023C66.0551 64.7128 66.4751 64.2827 66.4317 63.7591L65.9812 58.3271C65.9361 57.7688 65.4386 57.3232 64.8607 57.3232H59.2927C58.7152 57.3232 58.2596 57.7688 58.2657 58.3271L58.3305 63.7591Z" stroke="#C1A8AF" stroke-width="1.58125" stroke-linecap="round" stroke-linejoin="round"/>
<path d="M59.3477 64.7126H65.5017C66.0547 64.7126 66.4745 64.2825 66.4311 63.7589L66.2528 61.6075L65.9804 58.3271" stroke="#9B757C" stroke-width="1.58125" stroke-linecap="round" stroke-linejoin="round"/>
<g opacity="0.7">
<path d="M52.029 63.5079C52.0413 64.0274 51.6402 64.4561 51.1154 64.4561H45.262C44.7371 64.4561 44.9165 57.3976 45.4761 57.3976L50.8591 57.2568C51.4186 57.2568 51.8879 57.8395 51.9017 58.3934L52.029 63.5079Z" fill="#600111"/>
</g>
<path d="M49.8219 63.7543C49.8341 64.2775 42.0678 64.2775 42.0801 63.7543L42.209 58.3267C42.2212 57.7687 49.6804 57.7687 49.6944 58.3267L49.8219 63.7543Z" fill="#E2E2E2"/>
<path d="M49.6942 58.3262L48.988 61.1942C48.9131 61.6347 48.5621 61.9662 48.1416 61.9662H43.7598C43.3382 61.9662 42.9885 61.6316 42.9134 61.1894L42.209 58.3262" stroke="white" stroke-width="1.58125" stroke-linecap="round" stroke-linejoin="round"/>
<path d="M49.8221 63.752C49.8344 64.2752 49.412 64.7051 48.885 64.7051H43.0192C42.4921 64.7051 42.0681 64.2752 42.0803 63.752L42.2092 58.3244C42.2215 57.7664 42.6808 57.3213 43.2426 57.3213H48.6597C49.2215 57.3213 49.6806 57.7664 49.6946 58.3244L49.8221 63.752Z" stroke="#C1A8AF" stroke-width="1.58125" stroke-linecap="round" stroke-linejoin="round"/>
<path d="M49.693 58.3262L49.8205 63.7538C49.8326 64.277 49.4104 64.7069 48.8834 64.7069H43.0176" stroke="#9B757C" stroke-width="1.58125" stroke-linecap="round" stroke-linejoin="round"/>
<g opacity="0.7">
<path d="M35.5323 63.5368C35.5262 64.0422 35.0451 64.4572 34.4658 64.4572H28.0172C27.4379 64.4572 28.0842 57.3242 28.6895 57.3242H34.5239C35.1289 57.3242 35.6066 57.7543 35.6001 58.2933L35.5323 63.5368Z" fill="#600111"/>
</g>
<path d="M33.2144 63.7125C33.2083 64.2391 24.8864 64.2391 24.9308 63.7125L25.3918 58.2493C25.4378 57.6877 33.287 57.6877 33.2806 58.2493L33.2144 63.7125Z" fill="#E2E2E2"/>
<path d="M33.2824 58.2471L32.4252 61.1336C32.3281 61.577 31.9413 61.9108 31.4936 61.9108H26.8285C26.3793 61.9108 26.0261 61.5742 25.9717 61.1291L25.3936 58.2471" stroke="white" stroke-width="1.58125" stroke-linecap="round" stroke-linejoin="round"/>
<path d="M33.2155 63.7141C33.2093 64.2406 32.7403 64.6731 32.1748 64.6731H25.8822C25.3169 64.6731 24.8874 64.2406 24.9319 63.7141L25.3928 58.2508C25.4389 57.6893 25.9476 57.2412 26.5384 57.2412H32.2315C32.8221 57.2412 33.288 57.6893 33.2817 58.2508L33.2155 63.7141Z" stroke="#C1A8AF" stroke-width="1.58125" stroke-linecap="round" stroke-linejoin="round"/>
<path d="M33.2805 58.25L33.2145 63.7132C33.2082 64.2398 32.7393 64.6722 32.1738 64.6722H25.8809" stroke="#9B757C" stroke-width="1.58125" stroke-linecap="round" stroke-linejoin="round"/>
<g opacity="0.7">
<path d="M62.4324 52.8423H67.5084C67.9644 52.8423 68.3107 52.4677 68.2749 52.0117L67.9033 47.2796C67.8662 46.7932 67.4185 46.2461 66.9419 46.2461L62.3866 46.4052C61.9102 46.4052 61.9764 52.8423 62.4324 52.8423Z" fill="#600111"/>
</g>
<path d="M57.8666 52.1863C57.8727 52.6986 65.9124 52.6986 65.8695 52.1863L65.4244 46.8725C65.3799 46.3264 57.7966 46.3264 57.8027 46.8725L57.8666 52.1863Z" fill="#E2E2E2"/>
<path d="M57.8027 46.873L58.6311 49.6808C58.725 50.112 59.0986 50.4368 59.531 50.4368H64.0382C64.4719 50.4368 64.8132 50.1091 64.8658 49.6762L65.4244 46.873" stroke="white" stroke-width="1.58125" stroke-linecap="round" stroke-linejoin="round"/>
<path d="M57.8666 52.1864C57.8728 52.6987 58.326 53.1193 58.8721 53.1193H64.9514C65.4976 53.1193 65.9124 52.6987 65.8695 52.1864L65.4244 46.8726C65.3799 46.3265 64.8886 45.8906 64.3177 45.8906H58.8174C58.2469 45.8906 57.7967 46.3265 57.8028 46.8726L57.8666 52.1864Z" stroke="#C1A8AF" stroke-width="1.58125" stroke-linecap="round" stroke-linejoin="round"/>
<path d="M58.873 53.1198H64.9524C65.4987 53.1198 65.9134 52.6992 65.8705 52.1868L65.6944 50.082L65.4254 46.873" stroke="#9B757C" stroke-width="1.58125" stroke-linecap="round" stroke-linejoin="round"/>
<g opacity="0.7">
<path d="M52.0274 52.22C52.0401 52.7244 51.6277 53.1409 51.0883 53.1409H45.0715C44.5319 53.1409 44.7165 46.286 45.2917 46.286L50.8249 46.1494C51.4 46.1494 51.8823 46.7151 51.8966 47.2531L52.0274 52.22Z" fill="#600111"/>
</g>
<path d="M49.7413 52.1712C49.7533 52.6863 42.1159 52.6863 42.1279 52.1712L42.2548 46.828C42.2669 46.2787 49.6023 46.2787 49.616 46.828L49.7413 52.1712Z" fill="#E2E2E2"/>
<path d="M49.6168 46.8252L48.9222 49.6485C48.8485 50.0822 48.5034 50.4085 48.0899 50.4085H43.7808C43.3661 50.4085 43.0224 50.0792 42.9484 49.644L42.2559 46.8252" stroke="white" stroke-width="1.58125" stroke-linecap="round" stroke-linejoin="round"/>
<path d="M49.7435 52.1716C49.7555 52.6866 49.3402 53.1096 48.822 53.1096H43.0536C42.5351 53.1096 42.1181 52.6866 42.1301 52.1716L42.257 46.8283C42.2691 46.279 42.7207 45.8408 43.2732 45.8408H48.6004C49.1529 45.8408 49.6045 46.279 49.6181 46.8283L49.7435 52.1716Z" stroke="#C1A8AF" stroke-width="1.58125" stroke-linecap="round" stroke-linejoin="round"/>
<path d="M49.6173 46.8252L49.7426 52.1684C49.7545 52.6835 49.3394 53.1065 48.8211 53.1065H43.0527" stroke="#9B757C" stroke-width="1.58125" stroke-linecap="round" stroke-linejoin="round"/>
<g opacity="0.7">
<path d="M36.0252 52.4114C36.0191 52.9207 35.5443 53.3392 34.9723 53.3392H28.6052C28.0332 53.3392 28.6712 46.1494 29.269 46.1494H35.0296C35.6272 46.1494 36.0986 46.5827 36.0922 47.126L36.0252 52.4114Z" fill="#600111"/>
</g>
<path d="M33.601 52.1472C33.5951 52.6683 25.5452 52.6683 25.5881 52.1472L26.0338 46.7427C26.0782 46.1873 33.671 46.1873 33.6649 46.7427L33.601 52.1472Z" fill="#E2E2E2"/>
<path d="M33.6653 46.7441L32.8359 49.5997C32.742 50.0383 32.3679 50.3686 31.9348 50.3686H27.4221C26.9877 50.3686 26.6459 50.0355 26.5933 49.5951L26.0342 46.7441" stroke="white" stroke-width="1.58125" stroke-linecap="round" stroke-linejoin="round"/>
<path d="M33.601 52.1484C33.5951 52.6694 33.1414 53.0971 32.5943 53.0971H26.5071C25.9602 53.0971 25.5451 52.6694 25.588 52.1484L26.0337 46.7439C26.0782 46.1885 26.5704 45.7451 27.142 45.7451H32.6491C33.2205 45.7451 33.671 46.1885 33.6648 46.7439L33.601 52.1484Z" stroke="#C1A8AF" stroke-width="1.58125" stroke-linecap="round" stroke-linejoin="round"/>
<path d="M33.6638 46.7441L33.5997 52.1487C33.5936 52.6697 33.1402 53.0974 32.5931 53.0974H26.5059" stroke="#9B757C" stroke-width="1.58125" stroke-linecap="round" stroke-linejoin="round"/>
<g opacity="0.7">
<path d="M60.5601 42.6244H66.6697C67.2186 42.6244 67.6354 42.2289 67.5923 41.747L67.145 36.7481C67.1004 36.2342 66.6062 35.8242 66.0328 35.8242H60.5052C59.932 35.8242 60.0112 42.6244 60.5601 42.6244Z" fill="#600111"/>
</g>
<path d="M57.3818 41.1971C57.3877 41.6861 65.2461 41.6861 65.2042 41.1971L64.7692 36.1245C64.7257 35.603 57.3134 35.603 57.3193 36.1245L57.3818 41.1971Z" fill="#E2E2E2"/>
<path d="M57.3193 36.125L58.1291 38.8054C58.2208 39.2171 58.5859 39.5271 59.0087 39.5271H63.4143C63.8382 39.5271 64.1719 39.2144 64.2233 38.8011L64.7692 36.125" stroke="white" stroke-width="1.58125" stroke-linecap="round" stroke-linejoin="round"/>
<path d="M57.3819 41.1976C57.3878 41.6866 57.8307 42.0885 58.3646 42.0885H64.3069C64.8408 42.0885 65.2462 41.6866 65.2043 41.1976L64.7693 36.125C64.7258 35.6036 64.2455 35.1875 63.6875 35.1875H58.311C57.7534 35.1875 57.3135 35.6036 57.3194 36.125L57.3819 41.1976Z" stroke="#C1A8AF" stroke-width="1.58125" stroke-linecap="round" stroke-linejoin="round"/>
<path d="M58.3633 42.0885H64.3056C64.8397 42.0885 65.2449 41.6868 65.203 41.1978L65.0308 39.1885L64.7679 36.125" stroke="#9B757C" stroke-width="1.58125" stroke-linecap="round" stroke-linejoin="round"/>
<g opacity="0.7">
<path d="M52.1123 41.7453C52.125 42.2262 51.6917 42.6209 51.1515 42.6209H45.1382C44.5978 42.6209 44.7911 35.835 45.3671 35.835H50.9208C51.4968 35.835 51.9674 36.2441 51.9817 36.7568L52.1123 41.7453Z" fill="#600111"/>
</g>
<path d="M49.7089 41.1971C49.7212 41.6861 42.0132 41.6861 42.0254 41.1971L42.1535 36.1245C42.1657 35.603 49.5686 35.603 49.5824 36.1245L49.7089 41.1971Z" fill="#E2E2E2"/>
<path d="M49.5803 36.125L48.8794 38.8054C48.8051 39.2171 48.4566 39.5271 48.0393 39.5271H43.6905C43.2721 39.5271 42.925 39.2144 42.8505 38.8011L42.1514 36.125" stroke="white" stroke-width="1.58125" stroke-linecap="round" stroke-linejoin="round"/>
<path d="M49.7062 41.1976C49.7185 41.6866 49.2992 42.0885 48.7762 42.0885H42.9547C42.4315 42.0885 42.0105 41.6866 42.0227 41.1976L42.1508 36.125C42.1631 35.6036 42.6187 35.1875 43.1762 35.1875H48.5527C49.1103 35.1875 49.5659 35.6036 49.5797 36.125L49.7062 41.1976Z" stroke="#C1A8AF" stroke-width="1.58125" stroke-linecap="round" stroke-linejoin="round"/>
<path d="M49.5813 36.125L49.7078 41.1978C49.7199 41.6868 49.3008 42.0887 48.7778 42.0887H42.9561" stroke="#9B757C" stroke-width="1.58125" stroke-linecap="round" stroke-linejoin="round"/>
<g opacity="0.7">
<path d="M36.4463 41.747C36.4404 42.2289 35.9838 42.6244 35.4337 42.6244H29.3105C28.7605 42.6244 29.374 35.8242 29.9488 35.8242H35.4889C36.0635 35.8242 36.5169 36.2342 36.5108 36.7481L36.4463 41.747Z" fill="#600111"/>
</g>
<path d="M34.0384 41.1971C34.0327 41.6861 26.1741 41.6861 26.216 41.1971L26.6512 36.1245C26.6947 35.603 34.1068 35.603 34.1009 36.1245L34.0384 41.1971Z" fill="#E2E2E2"/>
<path d="M34.102 36.125L33.2924 38.8054C33.2007 39.2171 32.8354 39.5271 32.4126 39.5271H28.0073C27.5831 39.5271 27.2497 39.2144 27.1983 38.8011L26.6523 36.125" stroke="white" stroke-width="1.58125" stroke-linecap="round" stroke-linejoin="round"/>
<path d="M34.0403 41.1976C34.0345 41.6866 33.5916 42.0885 33.0575 42.0885H27.1152C26.5813 42.0885 26.1759 41.6866 26.2178 41.1976L26.6531 36.125C26.6965 35.6036 27.1769 35.1875 27.7348 35.1875H33.1111C33.6689 35.1875 34.1087 35.6036 34.1027 36.125L34.0403 41.1976Z" stroke="#C1A8AF" stroke-width="1.58125" stroke-linecap="round" stroke-linejoin="round"/>
<path d="M34.102 36.125L34.0395 41.1978C34.0336 41.6868 33.5909 42.0887 33.0568 42.0887H27.1143" stroke="#9B757C" stroke-width="1.58125" stroke-linecap="round" stroke-linejoin="round"/>
</g>
</g>
<defs>
<linearGradient id="paint0_linear_954_1945" x1="45.21" y1="11.2135" x2="45.6043" y2="24.0319" gradientUnits="userSpaceOnUse">
<stop stop-color="white"/>
<stop offset="0.56" stop-color="white" stop-opacity="0.65"/>
<stop offset="1" stop-color="white" stop-opacity="0.3"/>
</linearGradient>
<clipPath id="clip0_954_1945">
<rect width="92" height="92" fill="white"/>
</clipPath>
</defs>
</svg>
