<svg width="32" height="32" viewBox="0 0 32 32" fill="none" xmlns="http://www.w3.org/2000/svg">
<path d="M15.9574 25.159C14.632 25.159 13.3894 24.9075 12.2297 24.4042C11.07 23.9072 10.0483 23.2199 9.16471 22.3424C8.28725 21.465 7.6 20.4464 7.10297 19.2867C6.60594 18.127 6.35742 16.8844 6.35742 15.559C6.35742 14.2336 6.60594 12.991 7.10297 11.8313C7.6 10.6715 8.28725 9.65295 9.16471 8.77547C10.0483 7.89187 11.07 7.20156 12.2297 6.70453C13.3894 6.2075 14.632 5.95898 15.9574 5.95898C17.2828 5.95898 18.5254 6.2075 19.6851 6.70453C20.8448 7.20156 21.8635 7.89187 22.741 8.77547C23.6185 9.65295 24.3057 10.6715 24.8027 11.8313C25.3059 12.991 25.5574 14.2336 25.5574 15.559C25.5574 16.8844 25.3059 18.127 24.8027 19.2867C24.3057 20.4464 23.6185 21.465 22.741 22.3424C21.8635 23.2199 20.8448 23.9072 19.6851 24.4042C18.5254 24.9075 17.2828 25.159 15.9574 25.159ZM15.9574 23.0512C16.9944 23.0512 17.9639 22.858 18.866 22.4714C19.7741 22.0848 20.5687 21.5479 21.2498 20.8606C21.937 20.1672 22.4739 19.3695 22.8605 18.4675C23.2533 17.5594 23.4496 16.5899 23.4496 15.559C23.4496 14.522 23.2533 13.5525 22.8605 12.6505C22.4739 11.7423 21.937 10.9446 21.2498 10.2574C20.5687 9.57011 19.7741 9.03319 18.866 8.64662C17.9639 8.26005 16.9944 8.06675 15.9574 8.06675C14.9204 8.06675 13.9478 8.26005 13.0397 8.64662C12.1377 9.03319 11.343 9.57011 10.6558 10.2574C9.96855 10.9446 9.43163 11.7423 9.04506 12.6505C8.65847 13.5525 8.46519 14.522 8.46519 15.559C8.46519 16.5899 8.65847 17.5594 9.04506 18.4675C9.43163 19.3695 9.96855 20.1672 10.6558 20.8606C11.343 21.5479 12.1377 22.0848 13.0397 22.4714C13.9478 22.858 14.9204 23.0512 15.9574 23.0512ZM11.7051 15.559C11.7051 15.2829 11.791 15.0589 11.9628 14.8871C12.1346 14.7091 12.3586 14.6202 12.6347 14.6202H15.0186V12.2363C15.0186 11.9663 15.1045 11.7454 15.2763 11.5736C15.4543 11.3956 15.6752 11.3066 15.939 11.3066C16.2151 11.3066 16.4391 11.3925 16.6109 11.5644C16.7889 11.7362 16.8779 11.9601 16.8779 12.2363V14.6202H19.2709C19.5409 14.6202 19.7618 14.7091 19.9337 14.8871C20.1055 15.0589 20.1914 15.2829 20.1914 15.559C20.1914 15.8228 20.1055 16.0438 19.9337 16.2217C19.7618 16.3935 19.5409 16.4794 19.2709 16.4794H16.8779V18.8725C16.8779 19.1425 16.7889 19.3634 16.6109 19.5352C16.4391 19.707 16.2151 19.7929 15.939 19.7929C15.6752 19.7929 15.4543 19.707 15.2763 19.5352C15.1045 19.3634 15.0186 19.1425 15.0186 18.8725V16.4794H12.6347C12.3647 16.4794 12.1407 16.3935 11.9628 16.2217C11.791 16.0438 11.7051 15.8228 11.7051 15.559Z" fill="#165AEA"/>
</svg>
