<svg width="12" height="12" viewBox="0 0 12 12" fill="none" xmlns="http://www.w3.org/2000/svg">
<path d="M0.36442 5.06292C0.121459 5.30586 0 5.62256 0 6.01302C0 6.38612 0.121459 6.6985 0.36442 6.95012C0.616045 7.19306 0.932752 7.31454 1.31452 7.31454H4.68546V10.6985C4.68546 11.0803 4.80694 11.3926 5.04988 11.6356C5.30152 11.8785 5.61388 12 5.98698 12C6.37744 12 6.69414 11.8785 6.93708 11.6356C7.18871 11.3926 7.31454 11.0803 7.31454 10.6985V7.31454H10.6985C11.0803 7.31454 11.3926 7.19306 11.6356 6.95012C11.8785 6.6985 12 6.38612 12 6.01302C12 5.62256 11.8785 5.30586 11.6356 5.06292C11.3926 4.81129 11.0803 4.68546 10.6985 4.68546H7.31454V1.31454C7.31454 0.924089 7.18871 0.607381 6.93708 0.36442C6.69414 0.121481 6.37744 0 5.98698 0C5.61388 0 5.30152 0.125812 5.04988 0.377436C4.80694 0.620398 4.68546 0.932752 4.68546 1.31454V4.68546H1.31452C0.924067 4.68546 0.60736 4.81129 0.36442 5.06292Z" fill="#126CF4"/>
</svg>
