<svg width="18" height="18" viewBox="0 0 18 18" fill="none" xmlns="http://www.w3.org/2000/svg">
<path d="M9 1.25C10.0628 1.25 11.07 1.45006 12.0137 1.85449L12.3584 2.01172C13.1499 2.39567 13.857 2.89998 14.4766 3.52344L14.7354 3.79395C15.3209 4.43799 15.7884 5.16923 16.1377 5.9834L16.2812 6.34082C16.5945 7.18096 16.75 8.06901 16.75 9C16.75 10.0631 16.5467 11.07 16.1377 12.0137L16.1387 12.0146C15.7395 12.941 15.1843 13.7595 14.4775 14.4668L14.4785 14.4678C13.7706 15.1806 12.9475 15.7369 12.0156 16.1367L12.0166 16.1377C11.0722 16.5474 10.0641 16.75 9 16.75C7.93596 16.75 6.92778 16.5474 5.9834 16.1377V16.1367C5.16879 15.7872 4.43611 15.3181 3.78906 14.7295L3.5166 14.4697C2.80887 13.762 2.25398 12.9419 1.85449 12.0146V12.0137C1.45006 11.07 1.25 10.0628 1.25 9C1.25 7.93721 1.45006 6.93001 1.85449 5.98633L2.01172 5.64258C2.39509 4.85109 2.89669 4.14336 3.5166 3.52344L3.78906 3.26367C4.43695 2.67432 5.17045 2.20417 5.98633 1.85449L6.34375 1.71191C7.18308 1.40285 8.07025 1.25 9 1.25Z" fill="#CECECE" stroke="white" stroke-width="1.5"/>
</svg>
