<svg width="27" height="24" viewBox="0 0 27 24" fill="none" xmlns="http://www.w3.org/2000/svg">
<g clip-path="url(#clip0_1375_3320)">
<path d="M18.3993 22.8243C18.8593 22.8243 19.2218 22.6745 19.4866 22.3747C19.7445 22.0749 19.8735 21.6742 19.8735 21.1724V18.6946H20.4798C21.4696 18.6946 22.3304 18.496 23.0622 18.0986C23.7941 17.7013 24.3621 17.1297 24.7664 16.384C25.1637 15.6383 25.3623 14.7426 25.3623 13.6971V5.51085C25.3623 4.46536 25.1671 3.56972 24.7768 2.82394C24.3795 2.07815 23.808 1.50661 23.0622 1.10932C22.3164 0.70506 21.4173 0.50293 20.3648 0.50293H6.65831C5.59888 0.50293 4.69974 0.70506 3.96104 1.10932C3.21514 1.50661 2.64712 2.07815 2.25681 2.82394C1.85947 3.56972 1.66096 4.46536 1.66096 5.51085V13.6971C1.66096 14.7426 1.85947 15.6383 2.25681 16.384C2.64712 17.1297 3.21514 17.7013 3.96104 18.0986C4.69974 18.496 5.59888 18.6946 6.65831 18.6946H12.9314L16.486 21.831C16.8764 22.1725 17.2144 22.4235 17.5002 22.5838C17.779 22.7441 18.0787 22.8243 18.3993 22.8243ZM17.8347 20.221L14.531 16.9694C14.3009 16.7325 14.0849 16.5756 13.8828 16.499C13.6806 16.4153 13.4123 16.3736 13.0777 16.3736H6.76292C5.82891 16.3736 5.13196 16.1401 4.67191 15.6731C4.21186 15.2061 3.98184 14.5126 3.98184 13.5925V5.60496C3.98184 4.69188 4.21186 4.00186 4.67191 3.53487C5.13196 3.06788 5.82891 2.83438 6.76292 2.83438H20.2603C21.2012 2.83438 21.9017 3.06788 22.3617 3.53487C22.8148 4.00186 23.0413 4.69188 23.0413 5.60496V13.5925C23.0413 14.5126 22.8148 15.2061 22.3617 15.6731C21.9017 16.1401 21.2012 16.3736 20.2603 16.3736H18.7339C18.4272 16.3736 18.2007 16.4433 18.0543 16.5827C17.9079 16.7151 17.8347 16.9451 17.8347 17.2727V20.221Z" fill="black"/>
<path d="M12.0132 10.6646C12.0132 11.2849 12.3722 11.5951 13.0901 11.5951C13.3828 11.5951 13.6198 11.5219 13.801 11.3755C13.9892 11.2292 14.0938 11.0514 14.1147 10.8423V10.7796C14.1147 10.7587 14.1182 10.7378 14.1251 10.7169C14.146 10.466 14.2471 10.2464 14.4283 10.0582C14.6165 9.86306 14.8709 9.66093 15.1915 9.45183C15.6934 9.12424 16.0906 8.78968 16.3833 8.44815C16.6762 8.09966 16.8226 7.63267 16.8226 7.04718C16.8226 6.47565 16.6692 5.98776 16.3625 5.58349C16.0559 5.17923 15.6411 4.87255 15.1183 4.66345C14.6026 4.44739 14.0345 4.33936 13.4142 4.33936C12.536 4.33936 11.8076 4.51011 11.2291 4.85165C10.6506 5.18621 10.2777 5.59395 10.1104 6.07487C10.0756 6.16549 10.0477 6.25609 10.0268 6.34671C10.0128 6.43731 10.0059 6.53142 10.0059 6.62899C10.0059 6.88688 10.093 7.09598 10.2672 7.25628C10.4415 7.40962 10.6436 7.48629 10.8736 7.48629C11.0688 7.48629 11.2361 7.45145 11.3755 7.38175C11.5218 7.30507 11.6438 7.19705 11.7414 7.05764L11.8878 6.859C12.0063 6.68475 12.1317 6.53837 12.2641 6.41989C12.4035 6.30139 12.5534 6.21428 12.7137 6.15851C12.881 6.09578 13.0587 6.06443 13.2469 6.06443C13.6303 6.06443 13.9404 6.16898 14.1774 6.37806C14.4144 6.5802 14.5329 6.84156 14.5329 7.16219C14.5329 7.46887 14.4248 7.72327 14.2088 7.9254C13.9997 8.12754 13.6825 8.37497 13.2574 8.66771C12.8949 8.91863 12.5952 9.18696 12.3582 9.47273C12.1282 9.7585 12.0132 10.1244 12.0132 10.5705V10.6228V10.6646Z" fill="black"/>
<path d="M12.1805 14.4597C12.4245 14.6758 12.7207 14.7839 13.0692 14.7839C13.4246 14.7839 13.7209 14.6758 13.9578 14.4597C14.2018 14.2437 14.3238 13.9649 14.3238 13.6234C14.3238 13.2818 14.2018 13.003 13.9578 12.787C13.7209 12.5709 13.4246 12.4629 13.0692 12.4629C12.7207 12.4629 12.4245 12.5709 12.1805 12.787C11.9365 13.003 11.8146 13.2818 11.8146 13.6234C11.8146 13.9579 11.9365 14.2367 12.1805 14.4597Z" fill="black"/>
</g>
<defs>
<clipPath id="clip0_1375_3320">
<rect width="26" height="22.9412" fill="white" transform="matrix(-1 0 0 1 26.5 0.236816)"/>
</clipPath>
</defs>
</svg>
