<svg width="108" height="108" viewBox="0 0 108 108" fill="none" xmlns="http://www.w3.org/2000/svg">
<path d="M9.24957 87.8191H99.0574C103.605 87.8191 106.037 85.3874 106.037 80.8393V26.4983C106.037 21.9503 103.605 19.5186 99.0574 19.5186H9.24957C4.70152 19.5186 2.26953 21.9503 2.26953 26.4983V80.8393C2.26953 85.3874 4.70152 87.8191 9.24957 87.8191Z" fill="#D3D3D3"/>
<path d="M9.25189 85.3369C6.05561 85.3369 4.75195 84.033 4.75195 80.8367V26.4963C4.75195 23.3 6.05561 21.9961 9.25189 21.9961H99.0602C102.256 21.9961 103.56 23.3 103.56 26.4963V80.8367C103.56 84.033 102.256 85.3369 99.0602 85.3369H9.25189Z" fill="url(#paint0_radial_989_2086)"/>
<path d="M98.8611 19.3506H9.05328C4.50523 19.3506 2.07324 21.7826 2.07324 26.3304V29.8299H105.841V26.3304C105.841 21.7826 103.409 19.3506 98.8611 19.3506Z" fill="url(#paint1_radial_989_2086)"/>
<path d="M103.56 29.8309V26.496C103.56 23.2998 102.256 21.9961 99.0602 21.9961H9.25189C6.05561 21.9961 4.75195 23.2998 4.75195 26.496V29.8309H103.56Z" fill="url(#paint2_radial_989_2086)"/>
<path d="M104.848 29.833V80.6742C104.848 84.6474 102.833 86.6623 98.8598 86.6623H9.05205C5.07884 86.6623 3.06396 84.6474 3.06396 80.6742V29.833H1.08008V80.6742C1.08008 85.7405 3.98572 88.6461 9.05205 88.6461H98.8598C103.926 88.6461 106.832 85.7405 106.832 80.6742V29.833H104.848Z" fill="#909090"/>
<path d="M98.8589 18.3584H9.05108C3.98474 18.3584 1.0791 21.2638 1.0791 26.3301V29.8297H3.06298V26.3301C3.06298 22.3569 5.07786 20.3423 9.05108 20.3423H98.8589C102.832 20.3423 104.847 22.3569 104.847 26.3301V29.8297H106.831V26.3301C106.831 21.2638 103.925 18.3584 98.8589 18.3584Z" fill="#4C4C4C"/>
<path d="M51.0998 41.4128C51.7198 40.829 51.5693 40.1922 51.5693 37.1484H50.2108C50.2108 40.2676 50.3541 40.7174 49.7493 40.7174C49.4267 40.7174 49.2528 40.4885 49.2528 40.1347H47.9521C47.9521 42.1022 50.2785 42.1863 51.0998 41.4128Z" fill="black"/>
<path d="M53.9779 41.8453C56.5223 41.8453 56.4719 38.1543 53.9779 38.1543C51.4877 38.1543 51.449 41.8453 53.9779 41.8453ZM53.9779 39.1284C54.6763 39.1284 54.7068 40.8712 53.9809 40.8712C53.5645 40.8712 53.4522 40.4129 53.4522 39.9966C53.4522 39.5879 53.5772 39.1284 53.9779 39.1284Z" fill="black"/>
<path d="M59.0098 40.8523H60.3943L60.6343 41.7719H62.0634L60.5542 37.1484H60.1314H59.7148H58.8498L57.3408 41.7719H58.7697L59.0098 40.8523ZM59.6892 38.251H59.7148L60.144 39.8941H59.26L59.6892 38.251Z" fill="black"/>
<path d="M63.7189 41.1573H63.7446C63.9165 41.6007 64.3073 41.8465 64.805 41.8465C66.3138 41.8465 66.3418 39.8274 66.0144 38.9932C65.5842 37.8976 64.1184 37.872 63.7479 38.8699H63.7189V38.2321H62.4053V42.8908H63.7189V41.1573ZM64.8437 40.0007C64.8437 41.0599 63.7124 41.0683 63.7124 40.0007C63.7124 38.9518 64.8437 38.918 64.8437 40.0007Z" fill="black"/>
<path d="M69.7252 38.3706C69.1553 37.9776 68.2194 38.0906 67.9293 38.872H67.9005V38.2345H66.5869V42.8929H67.9005V41.1597H67.9263C68.0981 41.6031 68.489 41.8486 68.9867 41.8486C70.7025 41.8486 70.6859 39.0322 69.7252 38.3706ZM68.4612 40.7912C67.6959 40.7912 67.6847 39.215 68.4612 39.215C69.2642 39.215 69.0152 40.7912 68.4612 40.7912Z" fill="black"/>
<path d="M72.0995 37.1484H70.7861V41.7719H72.0995V37.1484Z" fill="black"/>
<path d="M76.1124 40.6242H74.9429C74.8097 41.0237 73.8312 41.1901 73.8024 40.2971H76.1282C76.1282 39.5077 76.066 38.7987 75.2779 38.3747C74.2126 37.8028 72.5176 38.2423 72.5176 39.9992C72.5176 42.4044 75.7131 42.3407 76.1124 40.6242ZM74.8975 39.5539H73.8158C73.9395 38.8635 74.7834 38.9168 74.8975 39.5539Z" fill="black"/>
<path d="M77.7236 39.2596C77.7236 38.9483 78.5286 38.8772 78.5824 39.3687H79.7739C79.7739 37.7655 76.4675 37.7198 76.4675 39.3332C76.4675 40.7306 78.5791 40.2386 78.5791 40.7624C78.5791 41.027 78.0276 41.0453 77.8245 40.9032C77.7918 40.8804 77.7013 40.8201 77.6564 40.6374H76.3877C76.5278 41.9195 78.2342 42.0229 79.0662 41.6978C80.0122 41.3268 80.0549 40.3619 79.614 39.974C79.2762 39.6769 77.7236 39.6583 77.7236 39.2596Z" fill="black"/>
<path d="M82.8999 38.373C82.6296 38.2279 82.3107 38.1553 81.9437 38.1553C79.4894 38.1553 79.5189 41.8463 81.9854 41.8463C82.8925 41.8463 83.5405 41.456 83.7344 40.6222H82.5651C82.4176 41.0649 81.4517 41.1365 81.4247 40.2954H83.7505C83.7505 39.4919 83.6724 38.7886 82.8999 38.373ZM81.4378 39.5522C81.4909 39.2563 81.6781 39.0589 81.9787 39.0589C82.276 39.0589 82.4657 39.2526 82.5195 39.5522H81.4378Z" fill="black"/>
<path d="M86.8199 38.373C86.5495 38.2279 86.2306 38.1553 85.8636 38.1553C85.4964 38.1553 85.1772 38.2289 84.9071 38.3765C83.5665 39.1068 83.7181 41.8463 85.9053 41.8463C86.9312 41.8463 87.4847 41.353 87.6546 40.6222H86.4851C86.3422 41.0507 85.3721 41.1472 85.3446 40.2954H87.6704C87.6704 39.4919 87.5923 38.7886 86.8199 38.373ZM85.358 39.5522C85.475 38.8997 86.3182 38.8739 86.4397 39.5522H85.358Z" fill="black"/>
<path d="M90.4477 37.1484V38.8722H90.422C90.1112 38.0357 89.1267 38.0191 88.6166 38.371C87.6473 39.0386 87.6614 41.8487 89.3648 41.8487C89.8476 41.8487 90.2546 41.6191 90.422 41.1663H90.4477V41.7719H91.7613V37.1484H90.4477ZM89.8806 40.7913C89.1233 40.7913 89.1081 39.2151 89.8806 39.2151C90.6218 39.2151 90.6575 40.7913 89.8806 40.7913Z" fill="black"/>
<path d="M49.2271 48.366H49.7154V47.9184H50.0373V47.5083H49.7154V45.9199H48.9915L48.0117 47.4897V47.9184H49.2271V48.366ZM48.4573 47.5219V47.5083L49.2254 46.2912H49.2373V47.5219H48.4573Z" fill="black"/>
<path d="M50.7343 46.0347C50.0099 46.531 50.0724 48.4119 51.2684 48.4119C52.2725 48.4119 52.432 47.1467 52.1448 46.4709C51.8681 45.8197 51.1479 45.7508 50.7343 46.0347ZM51.2684 48.0017C50.6162 48.0017 50.6162 46.2914 51.2684 46.2914C51.9333 46.2914 51.9053 48.0017 51.2684 48.0017Z" fill="black"/>
<path d="M53.9523 47.0843V47.0742C54.702 46.8825 54.5683 45.8809 53.5302 45.8809C52.4895 45.8809 52.3531 46.8812 53.1079 47.0742V47.0843C52.2653 47.2406 52.3268 48.4118 53.5302 48.4118C54.7384 48.4118 54.787 47.2391 53.9523 47.0843ZM53.5302 46.2504C53.9627 46.2504 54.0478 46.7248 53.7336 46.876C53.1444 47.1597 52.8463 46.2504 53.5302 46.2504ZM53.5302 48.0388C52.9185 48.0388 52.9224 47.2912 53.5302 47.2912C53.8747 47.2912 53.9846 47.6676 53.9846 47.6676C53.9846 47.8635 53.8206 48.0388 53.5302 48.0388Z" fill="black"/>
<path d="M54.8779 47.5917H55.9765V47.1592H54.8779V47.5917Z" fill="black"/>
<path d="M56.2617 46.3589V46.8132L56.8856 46.3894H56.8958V48.366H57.4044V45.9199H56.8941L56.2617 46.3589Z" fill="black"/>
<path d="M57.9499 48.0144V48.3653H59.7282V47.9584H58.6195V47.9368C59.323 47.2955 59.6942 47.0267 59.6942 46.5888C59.6942 45.6358 57.9209 45.6048 57.9209 46.6751H58.3958C58.4573 46.1208 59.1941 46.1712 59.1941 46.6228C59.1941 46.9055 59.0091 47.024 57.9499 48.0144Z" fill="black"/>
<path d="M61.9075 47.6756C61.9075 47.3249 61.6563 47.1285 61.3073 47.0961V47.0859C61.8361 46.9793 61.9236 46.4696 61.7108 46.1822C61.349 45.6937 60.1225 45.7393 60.0563 46.6008H60.5274C60.5708 46.1671 61.3326 46.1468 61.3326 46.5924C61.3326 46.9559 60.9016 46.9247 60.6378 46.9247V47.291C61.0053 47.291 61.3869 47.2731 61.3869 47.6553C61.3869 47.722 61.3693 47.781 61.3334 47.8323C61.1603 48.085 60.5641 48.0687 60.492 47.6724H60.002C60.0798 48.6844 61.9075 48.6385 61.9075 47.6756Z" fill="black"/>
<path d="M63.3749 47.1592H62.2764V47.5917H63.3749V47.1592Z" fill="black"/>
<path d="M65.4146 48.366V47.9184H65.7365V47.5083H65.4146V45.9199H64.6907L63.7109 47.4897V47.9184H64.9263V48.366H65.4146ZM64.1566 47.5219V47.5083L64.9246 46.2912H64.9365V47.5219H64.1566Z" fill="black"/>
<path d="M67.7468 46.3266V45.9199H66.1855L66.0737 47.3572H66.5193C66.7159 46.9813 67.4043 47.0463 67.4043 47.5591C67.4043 48.0876 66.6517 48.1806 66.5042 47.6642H66.0312C66.0989 48.68 67.8941 48.6802 67.8941 47.5489C67.8941 46.7006 66.8434 46.529 66.5431 47.0165H66.5329L66.5922 46.3266H67.7468Z" fill="black"/>
<path d="M69.5722 46.5476H70.0774C69.9239 45.8572 69.0825 45.7268 68.6237 46.0333C67.8678 46.5379 67.9435 48.4107 69.167 48.4107C69.696 48.4107 70.1096 48.0717 70.1096 47.5512C70.1096 46.6398 68.9175 46.5181 68.6448 47.1509H68.6348C68.6356 46.991 68.6557 46.8189 68.706 46.6671C68.8677 46.1798 69.38 46.1632 69.5722 46.5476ZM68.9347 47.1918C69.4705 46.9116 69.8963 47.6573 69.3875 47.9462C68.8642 48.2433 68.4273 47.4572 68.9347 47.1918Z" fill="black"/>
<path d="M72.1321 45.9199H70.3809V46.3266H71.627V46.337L70.5743 48.366H71.1117L72.1321 46.3318V45.9199Z" fill="black"/>
<path d="M49.1808 53.0301V50.584H48.6704L48.0381 51.0229V51.4772L48.662 51.0534H48.6722V53.0301H49.1808Z" fill="black"/>
<path d="M49.7282 52.6789V53.0298H51.5065V52.6231H50.3978V52.6016C51.0123 52.0414 51.783 51.4958 51.3622 50.8847C50.9699 50.3124 49.6992 50.4418 49.6992 51.3398H50.1741C50.2294 50.8431 50.7735 50.8587 50.925 51.105C51.0964 51.3825 50.6366 51.8293 49.7282 52.6789Z" fill="black"/>
<path d="M53.5564 50.989V50.582H51.9951L51.8832 52.0196H52.3291C52.3792 51.9239 52.4799 51.843 52.5885 51.8068C53.3099 51.5698 53.4567 52.6656 52.7596 52.6656C52.6051 52.6656 52.3936 52.6063 52.3137 52.3266H51.8408C51.8726 52.8017 52.2681 53.0708 52.7579 53.0708C54.0149 53.0708 53.9785 51.4128 52.9037 51.4128C52.6304 51.4128 52.4437 51.5313 52.3527 51.6789H52.3425L52.402 50.989H53.5564Z" fill="black"/>
<path d="M56.0059 52.342H55.9955L55.3007 50.584H54.709V53.0301H55.165V51.3773H55.1799L55.8398 53.0301H56.1617L56.8216 51.3773H56.8347V53.0301H57.2925V50.584H56.6991L56.0059 52.342Z" fill="black"/>
<path d="M58.8381 51.2532C58.3729 51.0498 57.6775 51.2172 57.6311 51.7742H58.0855C58.1207 51.6157 58.2479 51.5572 58.4093 51.5572C58.6992 51.5572 58.7076 51.7365 58.7076 51.9277C58.1718 51.9609 57.5498 51.9587 57.5498 52.5117C57.5498 53.1165 58.412 53.2586 58.6975 52.7624H58.7076V53.032H59.2026C59.2026 51.7531 59.2924 51.4508 58.8381 51.2532ZM58.5202 52.6568C58.3439 52.7433 58.0413 52.7103 58.0413 52.4829C58.0413 52.2228 58.4254 52.2563 58.7076 52.2374C58.7076 52.3808 58.7282 52.5531 58.5202 52.6568Z" fill="black"/>
<path d="M59.5312 53.0282H60.0277V51.2109H59.5312V53.0282Z" fill="black"/>
<path d="M59.9666 50.539C59.7293 50.3039 59.3372 50.6511 59.5892 50.903C59.8327 51.1466 60.2139 50.7828 59.9666 50.539Z" fill="black"/>
<path d="M62.043 53.0302C62.043 52.1494 62.2491 51.1758 61.4158 51.1758C61.148 51.1758 60.9588 51.2983 60.8616 51.5113H60.8514V51.213H60.3564V53.0302H60.8514C60.8514 51.9403 60.8341 51.9021 60.8961 51.7776C60.9551 51.6601 61.0647 51.5859 61.2142 51.5859C61.6896 51.5859 61.548 52.1464 61.548 53.0302H62.043Z" fill="black"/>
<path d="M63.5568 51.2551C63.5568 50.8737 64.3554 50.8181 64.4332 51.2856H64.9163C64.8588 50.2512 63.043 50.3194 63.043 51.2856C63.043 52.0593 64.0694 51.944 64.3546 52.1495C64.6507 52.3628 64.2901 52.8052 63.7433 52.6175C63.6942 52.6004 63.5144 52.5428 63.4755 52.3283H62.9922C63.0252 52.8575 63.4559 53.0723 63.9789 53.0723C65.0396 53.0723 65.1392 52.1753 64.7866 51.8492C64.4548 51.5432 63.5568 51.6389 63.5568 51.2551Z" fill="black"/>
<path d="M66.1965 53.0517V52.6889C65.7454 52.7554 65.8642 52.4935 65.8642 51.5886H66.1965V51.2156H65.8642V50.7715H65.364V51.2156H65.1113V51.5886H65.364C65.364 52.6405 65.3318 52.7876 65.5098 52.9431C65.6755 53.0877 65.9902 53.0867 66.1965 53.0517Z" fill="black"/>
<path d="M66.5272 52.5908C66.4193 52.6977 66.4193 52.8737 66.5272 52.9806C66.7883 53.2383 67.1747 52.8474 66.918 52.5908C66.8649 52.5377 66.6351 52.4842 66.5272 52.5908Z" fill="black"/>
<path d="M48.54 56.4629C48.54 55.4355 49.5818 55.3958 49.7501 56.1117H50.2503C50.1412 55.0216 48.6067 54.8993 48.1583 55.7871C47.9071 56.2858 47.9441 57.22 48.5628 57.5798C49.2031 57.9533 50.1752 57.6668 50.2521 56.8222H49.7519C49.6187 57.4876 48.54 57.5441 48.54 56.4629Z" fill="black"/>
<path d="M50.5913 55.201C50.4241 55.3642 50.5454 55.6424 50.7805 55.6424C51.0163 55.6424 51.1326 55.3627 50.9687 55.201C50.866 55.0993 50.6947 55.1 50.5913 55.201Z" fill="black"/>
<path d="M50.5303 57.6913H51.0267V55.874H50.5303V57.6913Z" fill="black"/>
<path d="M51.9873 55.4297H51.4871V55.8738H51.2344V56.2468H51.4871C51.4871 57.2563 51.3241 57.8788 52.3196 57.7099V57.3471C51.8831 57.4116 51.9873 57.1921 51.9873 56.2468H52.3196V55.8738H51.9873V55.4297Z" fill="black"/>
<path d="M53.3864 57.2945H53.3723L52.9887 55.874H52.4443L53.0851 57.6913C53.0335 57.8418 52.9835 57.9712 52.6259 57.8998V58.2676C53.6922 58.4702 53.6805 57.688 54.2923 55.874H53.7683L53.3864 57.2945Z" fill="black"/>
<path d="M56.7564 56.8362H56.745L55.641 55.2461H55.1934V57.6922H55.7035V56.092H55.7141L56.8224 57.6922H57.2665V55.2461H56.7564V56.8362Z" fill="black"/>
<path d="M58.8137 55.914C58.3817 55.7253 57.6546 55.8592 57.6067 56.435H58.061C58.1268 56.1392 58.6832 56.1293 58.6832 56.4774V56.5885C58.2007 56.6185 57.5254 56.6027 57.5254 57.1725C57.5254 57.7734 58.3837 57.9262 58.6731 57.4235H58.6832V57.6931H59.1782C59.1782 56.377 59.2729 56.1136 58.8137 55.914ZM58.6334 57.1988C58.4762 57.4344 58.0171 57.4158 58.0171 57.1438C58.0171 56.9908 58.1565 56.9322 58.3085 56.9233L58.6832 56.8983C58.6832 57.0418 58.6927 57.1088 58.6334 57.1988Z" fill="black"/>
<path d="M61.0173 56.2157H61.0071C60.8881 55.7172 60.1652 55.7187 59.9983 56.1834H59.9881V55.8782H59.4932V57.6954H59.9881C59.9881 56.5264 59.974 56.5249 60.0283 56.419C60.1568 56.1656 60.5969 56.1834 60.5969 56.5631V57.6954H61.0731C61.0731 56.7322 60.9719 56.2511 61.385 56.2511C61.7684 56.2511 61.6819 56.5906 61.6819 57.6954H62.1769C62.1769 56.3536 62.1754 56.3245 62.1022 56.1309C61.942 55.7063 61.1827 55.7477 61.0173 56.2157Z" fill="black"/>
<path d="M63.7588 55.9468C63.4933 55.8124 63.1017 55.7926 62.8368 55.95C62.1807 56.3376 62.262 57.7258 63.3189 57.7258C63.7231 57.7258 64.0356 57.5503 64.1497 57.1324H63.6954C63.5895 57.4506 62.9288 57.4888 62.9155 56.8986H64.1648V56.7441C64.1648 56.413 64.0039 56.071 63.7588 55.9468ZM62.9226 56.5849C62.9884 56.07 63.6244 56.0696 63.6867 56.5849H62.9226Z" fill="black"/>
<path d="M64.3213 58.2021H64.6638L64.913 57.2627H64.4433L64.3213 58.2021Z" fill="black"/>
<path d="M66.2265 56.4626C66.2265 55.4352 67.2683 55.3958 67.4367 56.1117H67.9369C67.8277 55.0216 66.2932 54.8993 65.8449 55.7871C65.5936 56.2858 65.6306 57.22 66.2493 57.5798C66.8544 57.9327 67.859 57.6981 67.9386 56.822H67.4384C67.3052 57.4873 66.2265 57.5438 66.2265 56.4626Z" fill="black"/>
<path d="M68.8653 55.2471L68.0127 57.6932H68.5501L68.7341 57.1H69.5988L69.7823 57.6932H70.3214L69.4689 55.2471H68.8653ZM68.8531 56.7169L69.1619 55.7217H69.1723L69.4803 56.7169H68.8531Z" fill="black"/>
<path d="M72.161 55.2021C71.1437 55.2021 70.925 56.3677 71.598 56.7526C71.9527 56.9544 72.5136 56.8622 72.6812 56.4617H72.6914C72.6914 57.4511 71.9395 57.5553 71.7558 57.065H71.2489C71.4512 57.9751 73.1814 58.1388 73.1814 56.4498C73.1814 55.5977 72.7343 55.2021 72.161 55.2021ZM72.6153 56.0498C72.6153 56.266 72.4749 56.3773 72.3931 56.421C72.2614 56.4912 72.0744 56.4964 71.9348 56.4203C71.8046 56.3491 71.7168 56.2174 71.7168 56.0428C71.7168 55.4744 72.6153 55.461 72.6153 56.0463V56.0498Z" fill="black"/>
<path d="M74.0128 56.3429H74.0027L74.0619 55.653H75.2165V55.2461H73.6552L73.5434 56.6837H73.989C74.1393 56.3965 74.6291 56.3432 74.8155 56.6549C74.973 56.9217 74.8262 57.3297 74.4198 57.3297C74.3469 57.3297 74.0689 57.3227 73.9739 56.9907H73.501C73.533 57.4715 73.935 57.7349 74.418 57.7349C74.9594 57.7349 75.3638 57.4043 75.3638 56.8754V56.8719C75.3638 56.0389 74.3173 55.8482 74.0128 56.3429Z" fill="black"/>
<path d="M76.6126 55.2061C76.0559 55.2061 75.6143 55.6123 75.6143 56.469V56.4723C75.6143 57.1726 75.9334 57.737 76.6126 57.737C77.2991 57.737 77.6095 57.1609 77.6095 56.4723V56.469C77.6095 55.7819 77.2998 55.2061 76.6126 55.2061ZM77.0908 56.4723C77.0908 56.8544 76.9931 57.3268 76.6126 57.3268C76.2303 57.3268 76.133 56.8547 76.133 56.4723V56.469C76.133 56.0862 76.2303 55.6162 76.6126 55.6162C76.9938 55.6162 77.0908 56.0874 77.0908 56.469V56.4723Z" fill="black"/>
<path d="M78.9896 56.0778C78.7163 56.0778 78.5296 56.1964 78.4386 56.3439H78.4284L78.4877 55.654H79.6423V55.2471H78.081L77.9692 56.6846H78.4148C78.4805 56.5589 78.6338 56.4456 78.8473 56.4456C79.1094 56.4456 79.2999 56.6241 79.2999 56.883V56.8865C79.2999 57.1469 79.1154 57.3306 78.8455 57.3306C78.6067 57.3306 78.4396 57.1841 78.4031 57.0033L78.3997 56.9916H77.9268L77.9282 57.0169C77.957 57.3993 78.2836 57.7358 78.8438 57.7358C79.3852 57.7358 79.7896 57.4053 79.7896 56.8763V56.8729C79.7896 56.4252 79.4702 56.0778 78.9896 56.0778Z" fill="black"/>
<path d="M81.7281 55.2461H81.0042L80.0244 56.8158V57.2446H81.2398V57.6922H81.7281V57.2446H82.05V56.8344H81.7281V55.2461ZM81.25 56.8481H80.47V56.8344L81.2381 55.6173H81.25V56.8481Z" fill="black"/>
<path d="M6.85742 71.8869H43.6525V35.21H6.85742V71.8869Z" fill="white"/>
<path d="M6.85742 71.8869H43.6525V35.21H6.85742V71.8869Z" stroke="black" stroke-width="0.99194" stroke-linecap="round" stroke-linejoin="round"/>
<path d="M35.5709 64.3669C36.3626 64.7793 37.0553 64.7773 37.0553 64.7773C36.4121 62.9816 36.6433 60.6625 36.6433 60.6625C35.6045 60.5534 14.2469 60.6539 13.5205 61.0342C13.5205 61.0342 13.7575 62.8111 12.9756 64.6612C12.9756 64.6612 13.558 64.5289 14.3014 64.3637C14.3014 64.3637 14.1362 65.1173 13.9709 65.5336C13.9709 65.5336 14.8096 65.5486 15.3919 65.213C15.3919 65.213 15.4501 65.6327 15.3919 66.1976C15.3919 66.1976 16.4904 65.8725 17.2545 64.6781C17.4073 64.4392 32.9107 64.896 33.0808 65.1138C33.922 66.1903 34.4493 66.2707 34.4493 66.2707C34.4107 65.6973 34.5483 65.1918 34.5483 65.1918C35.016 65.6464 35.8513 65.7691 35.8513 65.7691C35.5544 65.1259 35.5709 64.3669 35.5709 64.3669Z" fill="#A5591F"/>
<path d="M35.5709 64.3669C36.3626 64.7793 37.0553 64.7773 37.0553 64.7773C36.4121 62.9816 36.6433 60.6625 36.6433 60.6625C35.6045 60.5534 14.2469 60.6539 13.5205 61.0342C13.5205 61.0342 13.7575 62.8111 12.9756 64.6612C12.9756 64.6612 13.558 64.5289 14.3014 64.3637C14.3014 64.3637 14.1362 65.1173 13.9709 65.5336C13.9709 65.5336 14.8096 65.5486 15.3919 65.213C15.3919 65.213 15.4501 65.6327 15.3919 66.1976C15.3919 66.1976 16.4904 65.8725 17.2545 64.6781C17.4073 64.4392 32.9107 64.896 33.0808 65.1138C33.922 66.1903 34.4493 66.2707 34.4493 66.2707C34.4107 65.6973 34.5483 65.1918 34.5483 65.1918C35.016 65.6464 35.8513 65.7691 35.8513 65.7691C35.5544 65.1259 35.5709 64.3669 35.5709 64.3669Z" stroke="#A5591F" stroke-width="0.793552" stroke-linecap="round" stroke-linejoin="round"/>
<path d="M12.7024 54.6669C11.8773 54.5247 11.8196 56.3746 12.1621 58.0134C12.4792 59.5307 13.11 61.3789 14.2439 61.035C15.3778 60.691 15.53 55.1542 12.7024 54.6669Z" fill="#CE7300"/>
<path d="M12.7024 54.6669C11.8773 54.5247 11.8196 56.3746 12.1621 58.0134C12.4792 59.5307 13.11 61.3789 14.2439 61.035C15.3778 60.691 15.53 55.1542 12.7024 54.6669Z" stroke="#CE7300" stroke-width="1.19033" stroke-linecap="round" stroke-linejoin="round"/>
<path d="M37.7272 54.6669C38.5523 54.5247 38.6101 56.3746 38.2676 58.0134C37.9505 59.5307 37.3197 61.3789 36.1858 61.035C35.0519 60.691 34.8996 55.1542 37.7272 54.6669Z" fill="#CE7300"/>
<path d="M37.7272 54.6669C38.5523 54.5247 38.6101 56.3746 38.2676 58.0134C37.9505 59.5307 37.3197 61.3789 36.1858 61.035C35.0519 60.691 34.8996 55.1542 37.7272 54.6669Z" stroke="#CE7300" stroke-width="1.19033" stroke-linecap="round" stroke-linejoin="round"/>
<path d="M34.3015 45.351C32.1486 42.4754 29.4389 40.7217 25.2841 40.7217C21.1292 40.7217 18.4876 42.5278 16.2666 45.351C13.6818 48.6366 12.3195 57.2463 15.0597 62.96C17.7999 68.6737 22.5284 70.2825 25.2841 70.2825C28.0397 70.2825 32.7682 68.6737 35.5085 62.96C38.2486 57.2463 36.8862 48.8033 34.3015 45.351Z" fill="#F4AC00"/>
<path d="M34.3015 45.351C32.1486 42.4754 29.4389 40.7217 25.2841 40.7217C21.1292 40.7217 18.4876 42.5278 16.2666 45.351C13.6818 48.6366 12.3195 57.2463 15.0597 62.96C17.7999 68.6737 22.5284 70.2825 25.2841 70.2825C28.0397 70.2825 32.7682 68.6737 35.5085 62.96C38.2486 57.2463 36.8862 48.8033 34.3015 45.351Z" stroke="#CE7300" stroke-width="1.48791" stroke-linecap="round" stroke-linejoin="round"/>
<path d="M25.1 68.2998C19.91 68.1808 14.1722 62.8914 15.1066 53.7278C15.1066 53.7278 16.0198 52.6783 16.5321 51.3602C16.5321 51.3602 17.7642 52.1216 17.633 50.1073C17.633 50.1073 18.7603 50.8515 18.563 49.8479C18.4772 49.4118 18.0139 48.1471 18.2193 46.6084C18.2193 46.6084 20.5382 49.3379 25.0853 49.6835C29.2058 49.9968 30.163 50.3216 31.3278 51.5848C31.6587 51.9436 32.1049 52.1656 32.2726 51.5075C32.2726 51.5075 33.6159 53.4181 33.8795 52.5757C33.8795 52.5757 35.0769 54.117 35.3721 55.3591C35.7837 57.0908 35.2243 60.22 33.7717 62.8358C31.959 66.1 28.8706 68.3862 25.1 68.2998Z" fill="#FFCF00"/>
<path d="M27.2632 61.999C27.2632 62.8534 26.2823 63.6129 25.2142 63.6129C24.1461 63.6129 23.165 62.8534 23.165 61.999C23.165 61.1447 24.1461 60.3613 25.2142 60.3613C26.2823 60.3613 27.2632 61.1447 27.2632 61.999Z" fill="#BE7529"/>
<path d="M27.0401 61.1046C27.0783 61.899 26.363 62.4119 25.213 62.4119C24.0472 62.4119 23.3623 61.7238 23.3623 61.1003C23.3623 60.4769 24.2911 59.9707 25.2151 59.9707C26.139 59.9707 27.0102 60.482 27.0401 61.1046Z" fill="#FFCF00"/>
<path d="M26.2144 60.7912C26.2144 61.1331 25.7664 61.4548 25.2137 61.4548C24.661 61.4548 24.2129 61.1331 24.2129 60.7912C24.2129 60.4492 24.6369 60.1201 25.1897 60.1201C25.7424 60.1201 26.2144 60.4492 26.2144 60.7912Z" fill="#FFE181"/>
<path d="M27.793 57.2298C27.793 57.2298 28.2808 53.9948 30.9175 53.9951C33.3776 53.9953 34.4597 56.3367 34.4597 56.994C34.4597 56.994 33.4697 58.7076 31.0814 58.7055C28.3907 58.7032 27.793 57.2298 27.793 57.2298Z" fill="white"/>
<path d="M33.1081 56.4487C33.1081 57.5524 32.2093 58.447 31.1005 58.447C29.9917 58.447 29.0928 57.5524 29.0928 56.4487C29.0928 55.3449 29.9917 54.4502 31.1005 54.4502C32.2093 54.4502 33.1081 55.3449 33.1081 56.4487Z" fill="url(#paint3_linear_989_2086)"/>
<path d="M32.3687 56.4466C32.3687 57.1442 31.8008 57.7096 31.0999 57.7096C30.3991 57.7096 29.8311 57.1442 29.8311 56.4466C29.8311 55.7491 30.3991 55.1836 31.0999 55.1836C31.8008 55.1836 32.3687 55.7491 32.3687 56.4466Z" fill="#17130A"/>
<path d="M30.9891 55.4571C30.9891 55.722 30.7734 55.9368 30.5073 55.9368C30.2411 55.9368 30.0254 55.722 30.0254 55.4571C30.0254 55.1923 30.2411 54.9775 30.5073 54.9775C30.7734 54.9775 30.9891 55.1923 30.9891 55.4571Z" fill="#F4F4F4"/>
<path d="M32.5875 57.0127C32.4383 57.4553 32.0813 57.8032 31.6318 57.9412" stroke="#E09705" stroke-width="0.347179" stroke-linecap="round" stroke-linejoin="round"/>
<path d="M34.5087 57.0152C34.5087 57.0152 34.1227 53.8836 31.0404 53.9655C28.2595 54.0394 27.7635 56.916 27.7635 56.916C27.2104 56.4114 27.0257 53.1185 30.9377 53.1467C34.4626 53.1721 35.1038 55.4281 34.5087 57.0152Z" fill="#FFCF00"/>
<path d="M34.5101 57.0146C34.5101 57.0146 33.427 58.9439 31.1375 58.8993C28.4027 58.8462 27.6657 57.1138 27.6657 57.1138C27.3068 57.5573 28.899 59.3953 31.2367 59.3953C33.4743 59.3953 34.8614 57.8627 34.5101 57.0146Z" fill="#FFCF00"/>
<path d="M27.8203 56.7756C27.8203 56.7756 28.2643 53.5137 31.1266 53.5137C34.0569 53.5137 34.3571 56.266 34.4609 56.9949C34.4609 56.9949 34.0455 54.063 31.1026 54.03C28.6654 54.0027 27.8203 56.7756 27.8203 56.7756Z" fill="#764014"/>
<path d="M27.8203 56.7756C27.8203 56.7756 28.2643 53.5137 31.1266 53.5137C34.0569 53.5137 34.3571 56.266 34.4609 56.9949C34.4609 56.9949 34.0455 54.063 31.1026 54.03C28.6654 54.0027 27.8203 56.7756 27.8203 56.7756Z" stroke="#764014" stroke-width="0.396776" stroke-linecap="round" stroke-linejoin="round"/>
<path d="M33.4309 52.834C33.6434 52.4282 32.7461 50.9389 30.9077 50.797C29.7223 50.7056 28.4377 51.6871 28.5917 51.8394C28.7418 51.9879 29.843 51.4425 31.2245 51.8201C32.8378 52.2611 33.3269 53.0326 33.4309 52.834Z" fill="#853F00"/>
<path d="M33.4309 52.834C33.6434 52.4282 32.7461 50.9389 30.9077 50.797C29.7223 50.7056 28.4377 51.6871 28.5917 51.8394C28.7418 51.9879 29.843 51.4425 31.2245 51.8201C32.8378 52.2611 33.3269 53.0326 33.4309 52.834Z" stroke="#853F00" stroke-width="0.198388" stroke-linecap="round" stroke-linejoin="round"/>
<path d="M22.5742 57.2298C22.5742 57.2298 22.0864 53.9948 19.4497 53.9951C16.9896 53.9953 15.9075 56.3367 15.9075 56.994C15.9075 56.994 16.8974 58.7076 19.2857 58.7055C21.9765 58.7032 22.5742 57.2298 22.5742 57.2298Z" fill="white"/>
<path d="M17.2561 56.4487C17.2561 57.5524 18.155 58.447 19.2638 58.447C20.3726 58.447 21.2715 57.5524 21.2715 56.4487C21.2715 55.3449 20.3726 54.4502 19.2638 54.4502C18.155 54.4502 17.2561 55.3449 17.2561 56.4487Z" fill="url(#paint4_linear_989_2086)"/>
<path d="M17.9955 56.4466C17.9955 57.1442 18.5635 57.7096 19.2643 57.7096C19.9651 57.7096 20.5332 57.1442 20.5332 56.4466C20.5332 55.7491 19.9651 55.1836 19.2643 55.1836C18.5635 55.1836 17.9955 55.7491 17.9955 56.4466Z" fill="#17130A"/>
<path d="M18.0129 55.4571C18.0129 55.722 18.2285 55.9368 18.4947 55.9368C18.7608 55.9368 18.9766 55.722 18.9766 55.4571C18.9766 55.1923 18.7608 54.9775 18.4947 54.9775C18.2285 54.9775 18.0129 55.1923 18.0129 55.4571Z" fill="#F4F4F4"/>
<path d="M19.6498 57.9693C20.0924 57.8201 20.4401 57.4631 20.5781 57.0137" stroke="#E09705" stroke-width="0.347179" stroke-linecap="round" stroke-linejoin="round"/>
<path d="M15.8536 57.0152C15.8536 57.0152 16.2396 53.8836 19.3219 53.9655C22.1028 54.0394 22.5988 56.916 22.5988 56.916C23.1519 56.4114 23.3366 53.1185 19.4246 53.1467C15.8997 53.1721 15.2585 55.4281 15.8536 57.0152Z" fill="#FFCF00"/>
<path d="M15.8551 57.0156C15.8551 57.0156 16.9382 58.9448 19.2277 58.9003C21.9625 58.8471 22.6995 57.1148 22.6995 57.1148C23.0584 57.5583 21.4662 59.3963 19.1285 59.3963C16.8909 59.3963 15.5039 57.8636 15.8551 57.0156Z" fill="#FFCF00"/>
<path d="M22.5449 56.7756C22.5449 56.7756 22.1009 53.5137 19.2386 53.5137C16.3083 53.5137 16.0081 56.266 15.9044 56.9949C15.9044 56.9949 16.3197 54.063 19.2626 54.03C21.6998 54.0027 22.5449 56.7756 22.5449 56.7756Z" fill="#764014"/>
<path d="M22.5449 56.7756C22.5449 56.7756 22.1009 53.5137 19.2386 53.5137C16.3083 53.5137 16.0081 56.266 15.9044 56.9949C15.9044 56.9949 16.3197 54.063 19.2626 54.03C21.6998 54.0027 22.5449 56.7756 22.5449 56.7756Z" stroke="#764014" stroke-width="0.396776" stroke-linecap="round" stroke-linejoin="round"/>
<path d="M16.9353 52.833C16.7228 52.4272 17.6201 50.9379 19.4585 50.796C20.6439 50.7046 21.9285 51.6861 21.7745 51.8385C21.6244 51.987 20.5233 51.4415 19.1417 51.8191C17.5284 52.2601 17.0393 53.0316 16.9353 52.833Z" fill="#763C14"/>
<path d="M16.9353 52.833C16.7228 52.4272 17.6201 50.9379 19.4585 50.796C20.6439 50.7046 21.9285 51.6861 21.7745 51.8385C21.6244 51.987 20.5233 51.4415 19.1417 51.8191C17.5284 52.2601 17.0393 53.0316 16.9353 52.833Z" stroke="#763C14" stroke-width="0.49597" stroke-linecap="round" stroke-linejoin="round"/>
<path d="M28.4411 64.1832C28.226 63.9832 27.8797 63.9385 25.2211 63.9385C22.6264 63.9385 22.2507 63.9832 22.0009 64.1832C21.8036 64.3412 21.8688 65.7215 25.2204 65.7215C28.5182 65.7215 28.6145 64.3444 28.4411 64.1832Z" fill="#F4AC00"/>
<path d="M28.4202 64.6479C28.3462 64.2364 27.8795 64.3719 25.2208 64.3719C22.6262 64.3719 22.14 64.2105 22.0213 64.6479C21.9738 64.8229 22.526 66.3954 25.2174 66.3954C27.8577 66.3954 28.4534 64.8325 28.4202 64.6479Z" fill="#FFE181"/>
<path d="M28.34 64.4619C28.2172 64.2811 27.8813 64.3103 25.2226 64.3103C22.628 64.3103 22.2427 64.2873 22.1051 64.4619C21.9842 64.6152 23.0332 65.7205 25.2219 65.7205C27.3736 65.7205 28.4525 64.6275 28.34 64.4619Z" fill="#7E2312"/>
<path d="M28.2349 64.6929C28.0102 64.6033 27.3853 64.6924 25.2228 64.6924C23.0841 64.6924 22.4469 64.607 22.2116 64.6992C22.1124 64.5859 22.077 64.4981 22.1049 64.4626C22.2427 64.2883 22.6281 64.3113 25.2228 64.3113C27.8815 64.3113 28.2169 64.2821 28.3399 64.4626C28.3653 64.5 28.33 64.5846 28.2349 64.6929Z" fill="#511312"/>
<path d="M27.1248 66.39C27.1248 66.8125 26.5459 67.4245 25.2201 67.4245C23.8942 67.4245 23.3154 66.8125 23.3154 66.39C23.3154 65.9674 23.8942 66.39 25.2201 66.39C26.5459 66.39 27.1248 65.9674 27.1248 66.39Z" fill="#F4AC00"/>
<path d="M17.6016 43.5879C17.6016 43.5879 18.9182 47.2989 23.9953 48.2308C27.228 48.8242 30.2623 48.5779 31.4804 50.2179C31.4804 50.2179 31.5541 49.2432 31.4181 48.0461C31.7708 49.2858 32.6958 50.3115 33.4466 51.4884C33.4466 51.4884 34.0313 50.3691 33.7298 49.0992C34.2121 51.1377 36.4935 52.6256 36.6739 57.3281C36.6739 57.3281 37.1917 56.7679 37.5098 54.7367C37.5098 54.7367 41.2548 50.7409 37.9659 43.8423C37.2551 42.3516 34.961 39.1318 29.2029 37.5876C23.7758 36.1321 17.0882 37.5789 16.5905 40.7253C16.5905 40.7253 11.9926 40.9207 11.3789 49.3286C11.1639 52.2738 11.8318 54.863 12.5066 54.6662C12.5066 54.6662 12.9155 55.2301 13.3016 56.326C13.3016 56.326 13.551 55.2291 13.5471 53.6539C13.5471 53.6539 15.4759 51.3006 15.6727 49.5573C15.6727 49.5573 16.1861 50.2972 16.8781 50.6037C16.8781 50.6037 16.8656 49.7384 17.0571 48.3837C17.0571 48.3837 17.3435 49.0281 18.1671 49.3504C18.1671 49.3504 17.8833 45.2093 17.6016 43.5879Z" fill="#FFCF00"/>
<path d="M39.1258 48.0311C38.8253 45.3706 37.8173 44.2549 37.9503 44.6414C39.5319 49.2377 37.4615 53.371 37.0628 52.6465C35.4851 49.7791 34.063 48.8326 33.5307 48.9566C33.4921 49.7936 32.2197 48.5588 31.2509 48.0848C30.717 46.9694 29.7142 46.6106 29.7142 46.6106C30.203 47.2696 30.2617 48.3385 30.2617 48.3385L30.2623 48.3392C29.096 47.6305 27.2402 47.2246 24.6033 46.679C19.8374 45.6927 17.3742 41.4589 19.0179 39.6145C21.6872 36.6193 30.1818 37.4235 32.2593 39.08C26.9809 34.871 17.0878 37.58 16.5899 40.7264C16.5899 40.7264 15.2429 40.5707 13.6707 42.2272C13.6527 42.2462 15.3488 41.5732 16.1113 42.0638C16.8032 42.509 17.2739 47.791 16.2841 46.7331C16.1585 47.0719 16.0562 47.2733 16.0477 48.3942C16.0459 48.627 14.9458 47.0758 14.9458 47.0758C14.2856 51.6565 11.9427 51.2673 11.7939 53.6187C11.7939 53.6187 12.3891 55.0074 13.3017 56.3267C13.3017 56.3267 13.5507 55.2306 13.5467 53.6554C13.5467 53.6554 15.4759 51.3015 15.6723 49.5587C15.6723 49.5587 16.1863 50.2987 16.8776 50.6052C16.8776 50.6052 16.8657 49.7392 17.0572 48.3852C17.0572 48.3852 17.3429 49.029 18.1672 49.3514C18.1672 49.3514 17.8835 45.211 17.6027 43.5922C17.6434 43.7042 18.9974 47.3149 23.9948 48.2325C27.2275 48.8256 29.9517 48.6629 31.571 49.8424C31.5906 49.4474 31.5587 49.097 31.4908 48.7867C31.8275 49.3061 33.3398 51.3252 33.3398 51.3252C33.3398 51.3252 34.0042 50.3579 34.0134 50.3453C34.5667 50.9127 36.5022 56.0807 36.6738 57.3295C36.6738 57.3295 37.1916 56.7691 37.51 54.7376C37.51 54.7376 38.4593 55.5411 39.0049 51.6725C39.1874 50.377 39.218 49.149 39.1258 48.0311Z" fill="#EA9D01"/>
<path d="M15.5931 42.547C15.0537 41.9009 13.3843 43.3984 13.0469 45.5802C12.7421 47.55 14.0211 44.8718 14.9289 45.0932C15.8367 45.3146 16.0331 43.074 15.5931 42.547Z" fill="#FFE181"/>
<path d="M26.3356 43.4429C22.157 43.0937 20.218 42.2382 19.5198 41.569C18.9568 41.0294 19.0013 40.333 19.5913 39.8224C20.0581 39.4185 21.8575 37.962 26.9835 38.317C29.9026 38.519 32.1424 39.3997 33.7122 40.7244C33.713 40.7254 33.713 40.7254 33.7139 40.7264C35.8809 42.7482 33.3179 44.0266 26.3356 43.4429Z" fill="#FFE181"/>
<path d="M17.6 43.5879C17.6 43.5879 18.9166 47.2989 23.9937 48.2308C27.2264 48.8242 30.2607 48.5779 31.4788 50.2179C31.4788 50.2179 31.7327 49.4965 31.2809 48.1505L33.445 51.4884C33.445 51.4884 34.0298 50.3691 33.7282 49.0992C33.7282 49.0992 34.53 51.246 35.4754 52.6746C36.4208 54.1032 36.5008 56.0794 36.6723 57.3281C36.6723 57.3281 37.1901 56.7679 37.5082 54.7367C37.5082 54.7367 38.4577 55.5395 39.0032 51.6709C39.4626 48.4132 38.9597 45.582 37.9643 43.8423C37.1441 42.4088 34.9595 39.1318 29.2014 37.5876C23.7743 36.1321 17.0866 37.5789 16.589 40.7253C16.589 40.7253 11.6934 40.9207 11.3773 49.3286C11.2663 52.2795 11.8302 54.863 12.505 54.6662C12.505 54.6662 12.9139 55.2301 13.3 56.326C13.3 56.326 13.5495 55.2291 13.5455 53.6539C13.5455 53.6539 15.4743 51.3006 15.6711 49.5573C15.6711 49.5573 16.1845 50.2972 16.8765 50.6037C16.8765 50.6037 16.864 49.7384 17.0556 48.3837C17.0556 48.3837 17.3419 49.0281 18.1655 49.3504C18.1655 49.3504 17.6451 45.7812 17.6 43.5879Z" stroke="#A5591F" stroke-width="1.48791" stroke-linecap="round" stroke-linejoin="round"/>
<path d="M20.1476 77.3679C18.064 79.7166 9.91916 83.9596 8.59319 82.217C7.26721 80.4744 14.2758 75.5495 16.6244 77.7466C18.9731 79.9438 16.2455 81.8002 17.3441 81.7622C18.4427 81.7243 20.1473 79.761 21.6627 79.9093C23.1782 80.0576 21.1998 81.5993 20.6401 80.9667C20.0804 80.3341 23.2161 79.1485 24.4662 79.1485C25.7163 79.1485 21.5871 80.5501 23.4812 80.929C25.3753 81.3079 25.3753 79.0726 26.4739 79.0726C27.5725 79.0726 25.2994 80.5121 26.4739 80.5501C27.6484 80.588 32.8382 78.7695 33.8232 76.686C34.8082 74.6024 29.5804 76.4209 28.0273 78.6939C26.4742 80.9669 27.9839 81.8877 32.4595 80.2091C35.4785 79.0768 32.3707 80.4132 40.5309 79.6544" stroke="black" stroke-width="0.743955" stroke-linecap="round" stroke-linejoin="round"/>
<path d="M100.646 75.3449C100.646 78.959 97.7158 81.8889 94.1017 81.8889C90.4876 81.8889 87.5576 78.959 87.5576 75.3449C87.5576 71.7307 90.4876 68.8008 94.1017 68.8008C97.7158 68.8008 100.646 71.7307 100.646 75.3449Z" fill="#8A8A8A"/>
<path d="M100.646 75.3449C100.646 78.959 97.7158 81.8889 94.1017 81.8889C90.4876 81.8889 87.5576 78.959 87.5576 75.3449C87.5576 71.7307 90.4876 68.8008 94.1017 68.8008C97.7158 68.8008 100.646 71.7307 100.646 75.3449Z" stroke="#4F4F4F" stroke-width="0.99194" stroke-linecap="round" stroke-linejoin="round"/>
<path d="M94.0683 81.8978C90.1951 81.8083 87.8486 78.9061 87.8486 75.292C87.8486 71.6779 90.3947 68.737 94.0683 68.8099" stroke="#4F4F4F" stroke-width="0.99194" stroke-linecap="round" stroke-linejoin="round"/>
<path d="M94.0683 81.8978C90.1951 81.8083 87.8486 78.9061 87.8486 75.292C87.8486 71.6779 90.3947 68.737 94.0683 68.8099" stroke="#4F4F4F" stroke-width="0.99194" stroke-linecap="round" stroke-linejoin="round"/>
<path d="M94.432 81.8978C91.9457 81.8083 90.4395 78.9061 90.4395 75.292C90.4395 71.6779 92.0739 68.737 94.432 68.8099" stroke="#4F4F4F" stroke-width="0.99194" stroke-linecap="round" stroke-linejoin="round"/>
<path d="M94.1367 81.8978C94.1491 81.8083 94.1566 78.9061 94.1566 75.292C94.1566 71.6779 94.1484 68.737 94.1367 68.8099" stroke="#4F4F4F" stroke-width="0.99194" stroke-linecap="round" stroke-linejoin="round"/>
<path d="M94.1035 81.8978C96.4227 81.8083 97.8275 78.9061 97.8275 75.292C97.8275 71.6779 96.3031 68.737 94.1035 68.8099" stroke="#4F4F4F" stroke-width="0.99194" stroke-linecap="round" stroke-linejoin="round"/>
<path d="M100.643 75.3477H87.5547" stroke="#4F4F4F" stroke-width="0.99194" stroke-linecap="round" stroke-linejoin="round"/>
<path d="M99.6884 78.8066H88.5449" stroke="#4F4F4F" stroke-width="0.99194" stroke-linecap="round" stroke-linejoin="round"/>
<path d="M99.6884 71.8896H88.5449" stroke="#4F4F4F" stroke-width="0.99194" stroke-linecap="round" stroke-linejoin="round"/>
<defs>
<radialGradient id="paint0_radial_989_2086" cx="0" cy="0" r="1" gradientUnits="userSpaceOnUse" gradientTransform="translate(53.9559 53.6511) scale(50.2413 50.2413)">
<stop stop-color="#F5F5F5"/>
<stop offset="0.5" stop-color="#D7D7D7"/>
<stop offset="1" stop-color="#BABABA"/>
</radialGradient>
<radialGradient id="paint1_radial_989_2086" cx="0" cy="0" r="1" gradientUnits="userSpaceOnUse" gradientTransform="translate(53.9564 24.3877) scale(36.8741 36.8741)">
<stop stop-color="#CCCCCC"/>
<stop offset="0.5" stop-color="#A8A8A8"/>
<stop offset="1" stop-color="#838383"/>
</radialGradient>
<radialGradient id="paint2_radial_989_2086" cx="0" cy="0" r="1" gradientUnits="userSpaceOnUse" gradientTransform="translate(53.9559 25.8766) scale(35.0435 35.0435)">
<stop stop-color="#AFAFAF"/>
<stop offset="0.5" stop-color="#868686"/>
<stop offset="1" stop-color="#5E5E5E"/>
</radialGradient>
<linearGradient id="paint3_linear_989_2086" x1="30.8838" y1="55.8739" x2="31.9806" y2="57.5583" gradientUnits="userSpaceOnUse">
<stop stop-color="#370A00"/>
<stop offset="0.38" stop-color="#683002"/>
<stop offset="1" stop-color="#995704"/>
</linearGradient>
<linearGradient id="paint4_linear_989_2086" x1="19.4804" y1="55.8739" x2="18.3836" y2="57.5583" gradientUnits="userSpaceOnUse">
<stop stop-color="#370A00"/>
<stop offset="0.38" stop-color="#683002"/>
<stop offset="1" stop-color="#995704"/>
</linearGradient>
</defs>
</svg>
