<svg width="20" height="20" viewBox="0 0 20 20" fill="none" xmlns="http://www.w3.org/2000/svg">
<path d="M5.28283 11.3039H9.99038C10.2269 11.3039 10.425 11.224 10.5849 11.0642C10.7446 10.9044 10.8246 10.7063 10.8246 10.4698V4.33365C10.8246 4.09715 10.7446 3.899 10.5849 3.73921C10.425 3.57941 10.2269 3.49951 9.99038 3.49951C9.76028 3.49951 9.56534 3.57941 9.40558 3.73921C9.24571 3.899 9.16588 4.09715 9.16588 4.33365V9.64528H5.28283C5.04633 9.64528 4.84499 9.72511 4.6788 9.88497C4.51901 10.0447 4.43911 10.2397 4.43911 10.4698C4.43911 10.7063 4.51901 10.9044 4.6788 11.0642C4.84499 11.224 5.04633 11.3039 5.28283 11.3039ZM9.99997 20C8.61935 20 7.32501 19.7379 6.11696 19.2138C4.90891 18.696 3.84467 17.9769 2.92425 17.0565C2.01022 16.1425 1.29434 15.0847 0.776608 13.883C0.258867 12.6749 0 11.3806 0 9.99998C0 8.61935 0.258867 7.32501 0.776608 6.11695C1.29434 4.90891 2.01022 3.84787 2.92425 2.93384C3.84467 2.01342 4.90891 1.29434 6.11696 0.776609C7.32501 0.258868 8.61935 0 9.99997 0C11.3806 0 12.6749 0.258868 13.883 0.776609C15.0911 1.29434 16.1521 2.01342 17.0661 2.93384C17.9801 3.84787 18.696 4.90891 19.2138 6.11695C19.7379 7.32501 20 8.61935 20 9.99998C20 11.3806 19.7379 12.6749 19.2138 13.883C18.696 15.0847 17.9801 16.1425 17.0661 17.0565C16.1521 17.9769 15.0911 18.696 13.883 19.2138C12.6749 19.7379 11.3806 20 9.99997 20Z" fill="black"/>
</svg>
