<svg width="316" height="236" viewBox="0 0 316 236" fill="none" xmlns="http://www.w3.org/2000/svg">
<g filter="url(#filter0_d_954_3034)">
<rect x="112" y="32" width="92" height="92" rx="19.2903" fill="#175AEA"/>
<g clip-path="url(#clip0_954_3034)">
<path fill-rule="evenodd" clip-rule="evenodd" d="M132.577 69.8397V110.855H145.917V58.4702H184.916L185.005 45.1416H158.434L132.577 69.8397Z" fill="white"/>
<path fill-rule="evenodd" clip-rule="evenodd" d="M132.55 71.3555C132.55 57.0312 144.044 45.3899 158.318 45.1416H185.022V58.6117H158.318C151.487 58.8566 146.024 64.4685 146.024 71.3555C146.024 74.8554 147.435 78.0261 149.719 80.3303C152.029 82.6558 155.228 84.0955 158.764 84.0955C165.651 84.0955 171.263 78.6326 171.508 71.8013H184.978C184.73 86.075 173.088 97.5694 158.764 97.5694C158.615 97.5694 158.466 97.5682 158.318 97.5657V97.5694C151.32 97.4477 144.99 94.5874 140.355 90.0152C135.637 85.3592 132.674 78.9265 132.55 71.8013H132.554C132.551 71.653 132.55 71.5044 132.55 71.3555Z" fill="white"/>
</g>
</g>
<defs>
<filter id="filter0_d_954_3034" x="0.709671" y="-79.2903" width="314.581" height="314.581" filterUnits="userSpaceOnUse" color-interpolation-filters="sRGB">
<feFlood flood-opacity="0" result="BackgroundImageFix"/>
<feColorMatrix in="SourceAlpha" type="matrix" values="0 0 0 0 0 0 0 0 0 0 0 0 0 0 0 0 0 0 127 0" result="hardAlpha"/>
<feOffset/>
<feGaussianBlur stdDeviation="55.6452"/>
<feComposite in2="hardAlpha" operator="out"/>
<feColorMatrix type="matrix" values="0 0 0 0 1 0 0 0 0 1 0 0 0 0 1 0 0 0 0.25 0"/>
<feBlend mode="normal" in2="BackgroundImageFix" result="effect1_dropShadow_954_3034"/>
<feBlend mode="normal" in="SourceGraphic" in2="effect1_dropShadow_954_3034" result="shape"/>
</filter>
<clipPath id="clip0_954_3034">
<rect width="54.1412" height="67.7455" fill="white" transform="translate(131.737 44.127)"/>
</clipPath>
</defs>
</svg>
