<svg width="42" height="42" viewBox="0 0 42 42" fill="none" xmlns="http://www.w3.org/2000/svg">
<rect width="42" height="42" rx="21" fill="#4E5AC2"/>
<path d="M21.0001 17L24.5556 19M21.0001 17L17.4445 19M21.0001 17L21.0001 14.75M24.5556 19V23M24.5556 19L26.4127 17.875M24.5556 23L21.0001 25M24.5556 23L26.4126 24.125M21.0001 25L17.4445 23M21.0001 25L21.0001 27.25M17.4445 23V19M17.4445 23L15.5874 24.125M17.4445 19L15.5875 17.875M21.0001 14.75V11M21.0001 14.75L23.5001 12.25M21.0001 14.75L18.5001 12.25M21.0001 27.25V31M21.0001 27.25L23.5001 29.75M21.0001 27.25L18.5001 29.75M26.4127 17.875L29.6603 16L30.0001 15.8038M26.4127 17.875L29.8278 18.7901M26.4127 17.875L27.3278 14.46M15.5874 24.125L12.3398 26L11.9999 26.1962M15.5874 24.125L14.6724 27.5401M15.5874 24.125L12.1724 23.21M15.5875 17.875L12.3399 16L12.0002 15.8038M15.5875 17.875L12.1724 18.7901M15.5875 17.875L14.6724 14.46M26.4126 24.125L29.6602 26L30 26.1962M26.4126 24.125L27.3277 27.5401M26.4126 24.125L29.8277 23.21" stroke="white" stroke-width="1.5" stroke-linecap="round"/>
</svg>
