<svg width="400" height="287" viewBox="0 0 400 287" fill="none" xmlns="http://www.w3.org/2000/svg">
<rect x="134.178" y="78.1782" width="133.501" height="133.501" rx="27.9921" fill="white"/>
<path fill-rule="evenodd" clip-rule="evenodd" d="M164.037 133.086V192.603H183.394V116.588H239.986L240.115 97.2471H201.559L164.037 133.086Z" fill="#0D0F11"/>
<path fill-rule="evenodd" clip-rule="evenodd" d="M163.998 135.286C163.998 114.5 180.678 97.6069 201.39 97.2466H240.141V116.793H201.39C191.477 117.148 183.55 125.292 183.55 135.286C183.55 140.364 185.597 144.965 188.912 148.309C192.264 151.683 196.907 153.772 202.037 153.772C212.031 153.772 220.174 145.845 220.529 135.932H240.076C239.716 156.645 222.823 173.324 202.037 173.324C201.821 173.324 201.605 173.323 201.39 173.319V173.324C191.235 173.148 182.05 168.997 175.324 162.363C168.477 155.606 164.178 146.272 163.998 135.932H164.003C164 135.717 163.998 135.502 163.998 135.286Z" fill="#0D0F11"/>
<path d="M88.6008 123.398L92.214 130.028L99.5991 131.601L92.9688 135.214L91.3958 142.6L87.7827 135.969L80.3975 134.396L87.0278 130.783L88.6008 123.398Z" fill="white"/>
<path opacity="0.2" d="M119.507 37.7799L122.914 45.2376L130.793 47.5061L123.335 50.9127L121.066 58.7917L117.66 51.3339L109.781 49.0655L117.238 45.6588L119.507 37.7799Z" fill="white"/>
<path opacity="0.2" d="M47.1913 59.5223L53.8942 63.0098L60.9048 60.1916L57.4173 66.8944L60.2355 73.905L53.5327 70.4175L46.5221 73.2358L50.0096 66.5329L47.1913 59.5223Z" fill="white"/>
<path opacity="0.4" d="M335.775 152.163L332.461 161.515L337.404 170.119L328.051 166.805L319.448 171.748L322.762 162.395L317.819 153.792L327.171 157.106L335.775 152.163Z" fill="white"/>
<path opacity="0.4" d="M340.811 220.842L342.122 226.271L347.096 228.811L341.667 230.121L339.127 235.096L337.817 229.667L332.842 227.127L338.271 225.816L340.811 220.842Z" fill="white"/>
<path opacity="0.7" d="M268.82 231.584L269.739 235.377L273.216 237.148L269.423 238.067L267.652 241.544L266.733 237.751L263.256 235.98L267.049 235.061L268.82 231.584Z" fill="white"/>
</svg>
